M48
; DRILL file {KiCad 8.0.0} date 2025-05-08T15:49:17+0800
; FORMAT={-:-/ absolute / metric / decimal}
; #@! TF.CreationDate,2025-05-08T15:49:17+08:00
; #@! TF.GenerationSoftware,Kicad,Pcbnew,8.0.0
; #@! TF.FileFunction,Plated,1,2,PTH
FMAT,2
METRIC
; #@! TA.AperFunction,Plated,PTH,ViaDrill
T1C0.300
; #@! TA.AperFunction,Plated,PTH,ComponentDrill
T2C1.000
%
G90
G05
T1
X57.5Y-113.75
X57.5Y-114.5
X57.5Y-115.25
X57.5Y-116.0
X57.5Y-116.75
X57.5Y-117.5
X60.0Y-46.0
X60.0Y-46.75
X60.0Y-47.5
X60.0Y-48.25
X60.0Y-49.0
X60.0Y-49.75
X60.0Y-53.75
X60.0Y-54.5
X60.0Y-55.25
X60.0Y-56.0
X60.0Y-56.75
X60.0Y-57.5
X60.0Y-62.5
X60.0Y-63.25
X60.0Y-64.0
X60.0Y-64.75
X60.0Y-65.5
X60.0Y-66.25
X60.0Y-73.75
X60.0Y-74.5
X60.0Y-75.25
X60.0Y-76.0
X60.0Y-76.75
X60.0Y-77.5
X61.0Y-79.75
X61.0Y-102.25
X61.0Y-120.25
X61.0Y-138.0
X61.0Y-156.0
X61.0Y-174.25
X61.75Y-87.25
X61.75Y-109.5
X61.75Y-127.25
X61.75Y-145.75
X61.75Y-163.75
X62.0Y-181.25
X62.5Y-70.0
X63.25Y-70.0
X63.75Y-87.25
X63.75Y-109.5
X63.75Y-127.25
X63.75Y-145.75
X63.75Y-163.75
X63.75Y-181.5
X64.0Y-70.0
X64.75Y-70.0
X65.25Y-87.5
X65.25Y-109.5
X65.25Y-127.25
X65.25Y-145.75
X65.25Y-163.75
X65.25Y-181.5
X65.5Y-70.0
X65.75Y-40.0
X66.25Y-70.0
X66.5Y-40.0
X66.75Y-167.5
X67.25Y-40.0
X67.5Y-167.5
X68.0Y-40.0
X68.25Y-167.5
X68.25Y-184.25
X68.75Y-40.0
X69.0Y-167.5
X69.0Y-184.25
X69.5Y-40.0
X69.75Y-167.5
X69.75Y-184.25
X70.25Y-45.25
X70.5Y-167.5
X70.5Y-184.25
X71.25Y-184.25
X72.0Y-42.5
X72.0Y-184.25
X73.25Y-45.75
X74.5Y-43.0
X77.0Y-42.0
X77.5Y-166.25
X77.5Y-167.0
X77.5Y-167.75
X77.5Y-168.5
X77.5Y-169.25
X77.5Y-170.0
X78.0Y-102.25
X78.25Y-45.5
X78.75Y-109.25
X79.0Y-41.25
X80.0Y-131.25
X80.0Y-132.0
X80.0Y-132.75
X80.0Y-133.5
X80.0Y-134.25
X80.0Y-135.0
X80.75Y-47.75
X80.75Y-109.5
X81.25Y-40.25
X81.5Y-150.0
X82.0Y-174.5
X82.25Y-109.5
X82.25Y-150.0
X82.5Y-71.0
X82.5Y-71.75
X82.5Y-72.5
X82.5Y-73.25
X82.5Y-74.0
X82.5Y-74.75
X82.5Y-91.25
X82.5Y-92.0
X82.5Y-92.75
X82.5Y-93.5
X82.5Y-94.25
X82.5Y-95.0
X82.75Y-181.25
X83.0Y-150.0
X83.5Y-39.25
X83.75Y-150.0
X84.5Y-150.0
X84.75Y-181.5
X85.25Y-150.0
X86.25Y-181.5
X86.5Y-120.0
X87.25Y-127.25
X89.25Y-43.0
X89.25Y-127.25
X90.25Y-45.5
X90.75Y-127.25
X91.0Y-138.0
X91.75Y-42.75
X91.75Y-145.5
X92.5Y-173.75
X92.5Y-174.5
X92.5Y-175.25
X92.5Y-176.0
X92.5Y-176.75
X92.5Y-177.5
X93.0Y-54.75
X93.75Y-145.5
X94.431Y-42.931
X95.0Y-62.0
X95.0Y-102.0
X95.25Y-79.75
X95.25Y-145.25
X95.75Y-69.75
X95.75Y-87.5
X95.75Y-109.25
X96.25Y-42.0
X97.0Y-54.25
X97.75Y-69.75
X97.75Y-87.75
X97.75Y-109.25
X97.75Y-123.25
X98.0Y-41.25
X98.25Y-45.25
X99.0Y-156.0
X99.25Y-69.75
X99.25Y-87.5
X99.25Y-109.25
X99.75Y-163.5
X100.75Y-40.25
X100.75Y-47.75
X101.0Y-66.5
X101.75Y-79.5
X101.75Y-163.5
X102.75Y-66.5
X103.0Y-39.25
X103.0Y-174.5
X103.25Y-163.75
X103.5Y-64.75
X103.5Y-120.0
X103.75Y-54.75
X103.75Y-181.5
X104.25Y-127.5
X104.45Y-113.25
X104.5Y-54.75
X105.25Y-54.75
X105.25Y-111.5
X105.75Y-181.746
X106.0Y-54.75
X106.25Y-127.5
X106.75Y-54.75
X107.25Y-181.746
X107.5Y-54.75
X107.75Y-127.5
X108.0Y-138.0
X108.75Y-145.5
X110.75Y-145.5
X112.0Y-62.25
X112.0Y-80.25
X112.0Y-102.25
X112.25Y-145.5
X112.25Y-184.0
X112.75Y-70.0
X112.75Y-87.5
X112.75Y-109.5
X113.0Y-184.0
X113.75Y-184.0
X114.125Y-55.125
X114.5Y-184.0
X114.75Y-70.25
X114.75Y-87.5
X114.75Y-109.75
X115.25Y-184.0
X116.0Y-44.0
X116.0Y-156.0
X116.0Y-184.0
X116.25Y-43.0
X116.25Y-70.25
X116.25Y-82.75
X116.25Y-87.5
X116.25Y-109.75
X116.75Y-163.5
X117.5Y-65.0
X118.75Y-42.75
X118.75Y-163.5
X120.0Y-67.25
X120.25Y-163.5
X120.5Y-120.25
X121.25Y-43.0
X121.25Y-127.5
X123.25Y-42.0
X123.25Y-127.5
X124.0Y-54.0
X124.0Y-174.25
X124.25Y-62.75
X124.75Y-127.5
X124.75Y-181.25
X125.0Y-138.0
X125.25Y-41.25
X125.25Y-45.5
X125.75Y-145.5
X126.75Y-54.25
X126.75Y-58.75
X126.75Y-181.5
X127.5Y-40.25
X127.75Y-47.75
X127.75Y-145.5
X128.25Y-181.5
X129.0Y-62.25
X129.0Y-80.25
X129.0Y-102.25
X129.25Y-145.5
X129.5Y-130.0
X129.5Y-130.75
X129.5Y-131.5
X129.5Y-132.25
X129.5Y-133.0
X129.5Y-133.75
X129.75Y-39.25
X129.75Y-69.5
X129.75Y-87.5
X129.75Y-109.5
X131.75Y-69.5
X131.75Y-87.5
X131.75Y-109.5
X133.0Y-156.0
X133.25Y-69.5
X133.25Y-83.0
X133.25Y-87.5
X133.25Y-109.5
X133.75Y-65.0
X133.75Y-163.5
X134.5Y-70.25
X135.75Y-163.5
X137.25Y-163.5
X137.5Y-120.25
X138.25Y-127.5
X138.5Y-175.0
X139.25Y-93.75
X139.25Y-94.5
X139.25Y-95.25
X139.25Y-96.0
X139.25Y-96.75
X139.25Y-97.5
X139.25Y-175.0
X140.0Y-44.0
X140.0Y-175.0
X140.25Y-127.5
X140.5Y-43.0
X140.75Y-175.0
X141.5Y-175.0
X141.75Y-127.5
X142.0Y-138.0
X142.25Y-175.0
X142.75Y-145.5
X143.0Y-43.0
X143.75Y-64.75
X143.929Y-44.596
X144.5Y-56.5
X144.75Y-145.5
X145.25Y-56.0
X146.0Y-62.5
X146.0Y-102.0
X146.25Y-145.5
X146.75Y-69.5
X146.75Y-87.5
X146.75Y-109.5
X147.0Y-80.75
X147.25Y-42.0
X148.75Y-69.5
X148.75Y-87.5
X148.75Y-109.25
X149.25Y-41.25
X149.5Y-45.75
X150.0Y-155.75
X150.25Y-69.75
X150.25Y-87.5
X150.25Y-109.25
X150.75Y-163.5
X151.25Y-73.0
X151.5Y-40.25
X151.75Y-73.75
X151.75Y-138.25
X152.0Y-47.75
X152.25Y-74.5
X152.75Y-163.5
X153.75Y-39.25
X154.25Y-163.5
X154.5Y-120.25
X155.25Y-127.25
X155.75Y-54.25
X156.0Y-175.0
X156.5Y-54.25
X156.75Y-175.0
X157.25Y-54.25
X157.25Y-127.25
X157.5Y-175.0
X158.0Y-54.25
X158.25Y-175.0
X158.75Y-54.25
X158.75Y-127.25
X159.0Y-138.0
X159.0Y-175.0
X159.5Y-54.25
X159.75Y-145.75
X159.75Y-175.0
X160.75Y-129.25
X161.5Y-61.75
X161.75Y-145.75
X162.25Y-64.25
X162.25Y-184.25
X163.0Y-67.25
X163.0Y-102.25
X163.0Y-184.25
X163.25Y-145.75
X163.75Y-109.25
X163.75Y-184.25
X164.0Y-68.25
X164.5Y-184.25
X165.25Y-44.0
X165.25Y-184.25
X165.75Y-109.5
X166.0Y-43.0
X166.0Y-184.25
X167.0Y-156.0
X167.25Y-109.5
X167.75Y-163.75
X168.125Y-55.375
X168.5Y-43.0
X168.5Y-62.0
X168.5Y-63.75
X169.125Y-57.375
X169.429Y-44.621
X169.75Y-164.0
X171.25Y-164.0
X171.5Y-62.25
X171.5Y-79.25
X171.5Y-120.25
X172.25Y-69.75
X172.25Y-87.75
X172.25Y-127.5
X172.5Y-175.0
X172.75Y-42.0
X173.25Y-175.0
X174.0Y-175.0
X174.25Y-69.75
X174.25Y-127.5
X174.5Y-88.0
X174.75Y-41.25
X174.75Y-175.0
X175.5Y-46.0
X175.5Y-175.0
X175.75Y-64.75
X175.75Y-69.75
X175.75Y-82.5
X175.75Y-127.5
X176.0Y-88.0
X176.0Y-138.0
X176.25Y-175.0
X176.75Y-145.5
X177.0Y-40.25
X177.5Y-47.5
X178.75Y-63.5
X178.75Y-145.5
X179.25Y-39.25
X179.75Y-64.5
X180.0Y-102.25
X180.25Y-145.5
X180.75Y-109.5
X181.25Y-64.75
X181.25Y-131.75
X181.25Y-132.5
X181.25Y-133.25
X181.25Y-134.0
X181.25Y-134.75
X181.282Y-130.928
X182.75Y-109.5
X183.75Y-44.0
X184.0Y-156.25
X184.25Y-109.75
X184.5Y-43.0
X184.75Y-163.75
X186.0Y-97.0
X186.0Y-150.0
X186.75Y-163.75
X187.0Y-42.75
X188.181Y-54.181
X188.25Y-163.75
X188.5Y-62.25
X188.5Y-79.75
X188.5Y-120.25
X189.0Y-87.75
X189.25Y-69.5
X189.25Y-127.5
X189.5Y-43.0
X190.0Y-175.0
X190.635Y-54.385
X190.75Y-175.0
X191.25Y-42.0
X191.25Y-69.75
X191.25Y-88.0
X191.25Y-127.5
X191.5Y-175.0
X192.25Y-175.0
X192.5Y-88.25
X192.75Y-64.5
X192.75Y-69.75
X192.75Y-82.25
X192.75Y-127.25
X193.0Y-138.0
X193.0Y-175.0
X193.25Y-41.25
X193.25Y-54.0
X193.75Y-145.5
X193.75Y-175.0
X194.0Y-45.75
X195.5Y-40.25
X195.75Y-47.75
X195.75Y-145.75
X197.0Y-102.25
X197.25Y-145.75
X197.75Y-39.25
X197.75Y-109.25
X199.75Y-109.25
X200.75Y-73.0
X200.75Y-74.25
X201.0Y-61.5
X201.0Y-156.0
X201.25Y-109.25
X201.75Y-163.5
X202.25Y-150.75
X203.125Y-73.0
X203.125Y-74.25
X203.5Y-58.75
X203.75Y-163.5
X204.0Y-55.25
X205.25Y-44.0
X205.25Y-163.5
X205.5Y-62.0
X205.5Y-80.0
X205.5Y-120.0
X205.75Y-43.0
X206.25Y-69.5
X206.25Y-87.25
X206.25Y-127.25
X206.5Y-175.0
X207.25Y-175.0
X208.0Y-175.0
X208.25Y-42.75
X208.25Y-69.5
X208.25Y-87.5
X208.25Y-127.5
X208.75Y-175.0
X209.5Y-175.0
X209.75Y-69.75
X209.75Y-87.25
X209.75Y-127.5
X210.0Y-138.25
X210.25Y-175.0
X210.75Y-145.25
X211.0Y-42.754
X211.0Y-58.0
X212.25Y-58.25
X212.5Y-93.75
X212.5Y-94.5
X212.5Y-95.25
X212.5Y-96.0
X212.5Y-96.75
X212.5Y-97.5
X212.75Y-42.0
X212.75Y-145.25
X214.0Y-102.25
X214.25Y-145.5
X214.75Y-41.25
X214.75Y-109.25
X215.0Y-184.0
X215.75Y-45.122
X215.75Y-184.0
X216.5Y-184.0
X216.75Y-109.25
X217.0Y-40.25
X217.25Y-184.0
X217.5Y-47.75
X218.0Y-156.25
X218.0Y-184.0
X218.25Y-96.5
X218.25Y-109.25
X218.75Y-163.5
X218.75Y-184.0
X219.25Y-39.25
X220.75Y-163.5
X221.25Y-62.5
X222.25Y-158.5
X222.25Y-163.5
X222.5Y-79.75
X222.5Y-120.0
X222.75Y-54.25
X223.25Y-127.75
X223.5Y-54.25
X223.5Y-69.5
X223.5Y-87.5
X224.25Y-54.25
X225.0Y-54.25
X225.0Y-69.5
X225.0Y-174.0
X225.25Y-87.25
X225.25Y-127.75
X225.75Y-54.25
X225.75Y-181.5
X226.5Y-54.25
X226.681Y-87.181
X226.75Y-69.5
X226.75Y-121.5
X226.75Y-127.75
X227.0Y-138.0
X227.25Y-95.0
X227.75Y-145.5
X227.75Y-181.746
X228.0Y-95.0
X228.75Y-95.0
X228.816Y-42.75
X229.0Y-44.0
X229.25Y-181.746
X229.5Y-95.0
X229.75Y-145.5
X230.25Y-95.0
X230.75Y-175.75
X231.0Y-95.0
X231.0Y-102.25
X231.25Y-140.75
X231.25Y-145.5
X231.75Y-43.0
X231.75Y-109.25
X233.0Y-81.75
X233.75Y-109.25
X234.0Y-43.25
X235.0Y-156.25
X235.25Y-109.25
X235.75Y-163.5
X236.25Y-42.0
X237.0Y-111.25
X237.75Y-163.5
X238.25Y-41.25
X239.25Y-44.25
X239.25Y-157.0
X239.25Y-163.5
X239.5Y-120.25
X240.25Y-127.25
X240.5Y-40.25
X240.5Y-43.25
X240.75Y-47.5
X242.0Y-165.75
X242.25Y-127.25
X242.491Y-48.962
X242.75Y-39.25
X242.75Y-129.25
X242.75Y-165.75
X243.25Y-49.25
X243.5Y-127.25
X243.5Y-165.75
X244.0Y-138.25
X244.25Y-45.75
X244.25Y-50.5
X244.25Y-165.75
X244.662Y-45.064
X244.75Y-145.5
X245.0Y-165.75
X245.25Y-44.25
X245.75Y-165.75
X246.0Y-50.5
X246.0Y-174.0
X246.75Y-145.5
X246.75Y-181.25
X248.0Y-79.75
X248.0Y-102.25
X248.25Y-145.5
X248.75Y-67.75
X248.75Y-68.5
X248.75Y-69.25
X248.75Y-70.0
X248.75Y-70.75
X248.75Y-71.5
X248.75Y-87.75
X248.75Y-109.25
X248.75Y-181.5
X249.0Y-52.0
X249.25Y-122.25
X250.25Y-56.0
X250.25Y-181.5
X250.75Y-87.75
X250.75Y-109.25
X250.75Y-145.0
X251.75Y-176.5
X252.0Y-156.0
X252.25Y-87.75
X252.25Y-109.25
X252.75Y-163.25
X253.885Y-50.635
X254.25Y-45.5
X254.25Y-63.75
X254.345Y-51.905
X254.75Y-163.25
X255.0Y-53.25
X255.5Y-49.5
X255.75Y-54.5
X256.25Y-47.0
X256.25Y-163.25
X256.5Y-120.25
X257.25Y-127.25
X257.5Y-111.5
X257.5Y-112.25
X257.5Y-113.0
X257.5Y-113.75
X257.5Y-114.5
X257.5Y-115.25
X258.0Y-157.75
X259.25Y-45.5
X259.25Y-127.5
X260.0Y-68.0
X260.0Y-68.75
X260.0Y-69.5
X260.0Y-70.25
X260.0Y-71.0
X260.0Y-71.75
X260.75Y-127.5
X261.0Y-121.25
X261.0Y-138.0
X261.75Y-145.25
X263.0Y-55.0
X263.75Y-145.25
X264.75Y-80.0
X265.0Y-102.25
X265.25Y-145.25
X265.5Y-140.5
X265.75Y-87.75
X265.75Y-109.25
X266.25Y-42.0
X267.0Y-174.627
X267.75Y-87.75
X267.75Y-109.25
X267.75Y-181.5
X268.25Y-41.25
X269.0Y-156.0
X269.25Y-87.75
X269.25Y-109.25
X269.75Y-163.5
X269.75Y-181.25
X269.887Y-45.75
X270.25Y-167.75
X270.5Y-40.25
X270.75Y-47.5
X271.25Y-181.25
X271.75Y-163.75
X271.75Y-170.0
X272.5Y-96.5
X272.75Y-39.25
X273.25Y-163.75
X273.5Y-120.25
X274.25Y-127.25
X275.25Y-55.0
X275.25Y-64.0
X276.0Y-55.0
X276.25Y-127.5
X276.75Y-55.0
X277.0Y-65.5
X277.25Y-184.0
X277.5Y-55.0
X277.5Y-127.5
X278.0Y-184.0
X278.25Y-55.0
X278.75Y-184.0
X279.0Y-55.0
X279.0Y-138.25
X279.25Y-45.246
X279.5Y-184.0
X280.25Y-184.0
X281.0Y-47.0
X281.0Y-184.0
X281.75Y-68.0
X281.75Y-68.75
X281.75Y-69.5
X281.75Y-70.25
X281.75Y-71.0
X281.75Y-71.75
X282.0Y-80.25
X282.0Y-102.25
X282.75Y-87.75
X282.75Y-109.5
X283.0Y-101.25
X284.25Y-143.75
X284.5Y-46.0
X284.5Y-87.75
X284.75Y-109.5
X286.0Y-87.75
X286.25Y-109.5
X286.5Y-82.75
X286.75Y-167.0
X287.5Y-167.0
X288.0Y-174.0
X288.123Y-45.25
X288.25Y-167.0
X288.75Y-181.25
X289.0Y-167.0
X289.75Y-167.0
X290.5Y-120.25
X290.5Y-167.0
X290.75Y-181.5
X291.25Y-42.0
X291.25Y-127.25
X292.25Y-181.5
X292.5Y-106.75
X293.25Y-41.25
X293.25Y-127.5
X293.5Y-112.5
X294.5Y-46.0
X294.75Y-127.5
X295.5Y-40.25
X295.75Y-47.5
X297.25Y-133.25
X297.5Y-45.75
X297.75Y-39.25
X299.0Y-80.0
X299.25Y-46.0
X299.75Y-87.5
X300.555Y-68.75
X301.75Y-87.5
X303.123Y-45.0
X303.25Y-87.5
X305.75Y-42.0
X307.0Y-65.5
X307.0Y-75.75
X308.25Y-41.25
X308.5Y-88.5
X309.25Y-45.75
X309.75Y-88.0
X310.5Y-40.25
X310.5Y-106.666
X310.5Y-107.5
X310.5Y-108.25
X310.5Y-109.0
X310.5Y-109.75
X310.5Y-110.5
X310.75Y-47.5
X311.25Y-87.5
X312.5Y-86.75
X312.5Y-143.75
X312.5Y-144.5
X312.5Y-145.25
X312.5Y-146.0
X312.5Y-146.75
X312.5Y-147.5
X312.5Y-161.25
X312.5Y-162.0
X312.5Y-162.75
X312.5Y-163.5
X312.5Y-164.25
X312.5Y-165.0
X312.75Y-39.25
X314.0Y-86.5
X317.5Y-55.0
X317.5Y-68.75
X317.5Y-69.5
X317.5Y-70.25
X317.5Y-71.0
X317.5Y-71.75
X317.5Y-72.5
X318.25Y-55.0
X319.0Y-55.0
X319.0Y-80.0
X319.0Y-102.25
X319.0Y-120.25
X319.0Y-174.25
X319.75Y-55.0
X319.75Y-87.25
X319.75Y-109.5
X319.75Y-127.25
X319.75Y-181.5
X320.5Y-55.0
X320.5Y-100.5
X321.25Y-55.0
X321.75Y-87.25
X321.75Y-109.5
X321.75Y-127.5
X321.75Y-181.5
X323.25Y-87.25
X323.25Y-109.5
X323.25Y-127.5
X323.25Y-181.5
X325.0Y-152.25
X325.0Y-153.0
X325.0Y-153.75
X325.0Y-154.5
X325.0Y-155.25
X325.0Y-156.0
X325.25Y-103.5
X326.5Y-102.75
X328.0Y-102.25
X328.75Y-47.0
X329.5Y-102.0
X330.0Y-68.75
X330.0Y-69.5
X330.0Y-70.25
X330.0Y-71.0
X330.0Y-71.75
X330.0Y-72.5
X331.75Y-45.5
X335.5Y-42.0
X336.0Y-45.25
X336.0Y-80.0
X336.0Y-102.25
X336.0Y-120.0
X336.0Y-156.25
X336.0Y-174.25
X336.75Y-87.25
X336.75Y-109.0
X336.75Y-163.75
X336.75Y-181.25
X337.5Y-126.75
X338.75Y-87.5
X338.75Y-109.25
X338.75Y-127.25
X338.75Y-163.75
X338.75Y-181.25
X340.25Y-87.5
X340.25Y-96.0
X340.25Y-109.25
X340.25Y-127.25
X340.25Y-163.75
X340.25Y-181.25
X341.75Y-58.5
X342.25Y-41.25
X344.0Y-47.75
X344.5Y-40.25
X344.5Y-58.75
X344.5Y-96.25
X346.5Y-50.75
X346.75Y-39.25
X349.5Y-52.0
X350.0Y-135.0
X350.0Y-162.5
X350.25Y-50.0
X350.75Y-135.0
X350.75Y-162.5
X351.5Y-135.0
X351.5Y-162.5
X352.25Y-135.0
X352.25Y-162.5
X353.0Y-80.25
X353.0Y-102.5
X353.0Y-120.25
X353.0Y-135.0
X353.0Y-162.5
X353.0Y-174.25
X353.75Y-87.5
X353.75Y-109.25
X353.75Y-127.5
X353.75Y-135.0
X353.75Y-162.5
X353.75Y-181.25
X355.0Y-147.5
X355.0Y-148.25
X355.0Y-149.0
X355.0Y-149.75
X355.0Y-150.5
X355.0Y-151.25
X355.75Y-45.5
X355.75Y-87.5
X355.75Y-109.25
X355.75Y-127.5
X355.75Y-181.25
X356.75Y-43.377
X357.25Y-42.75
X357.25Y-87.5
X357.25Y-109.25
X357.25Y-127.5
X357.25Y-181.25
X360.75Y-51.3
X360.75Y-52.57
X361.0Y-55.75
X361.5Y-184.0
X362.25Y-184.0
X363.0Y-184.0
X363.75Y-184.0
X364.0Y-45.5
X364.0Y-49.25
X364.0Y-50.5
X364.25Y-46.75
X364.5Y-184.0
X365.25Y-184.0
X366.0Y-184.0
X370.75Y-62.75
X372.75Y-69.25
X373.0Y-102.25
X373.0Y-120.25
X373.0Y-138.25
X373.0Y-156.25
X373.0Y-174.0
X373.25Y-42.5
X373.25Y-63.5
X373.75Y-109.25
X373.75Y-127.5
X373.75Y-145.25
X373.75Y-163.5
X373.75Y-181.25
X374.0Y-42.5
X374.0Y-170.75
X374.75Y-42.5
X375.5Y-42.5
X375.75Y-109.25
X375.75Y-127.5
X375.75Y-145.5
X375.75Y-163.5
X375.75Y-181.25
X376.25Y-42.5
X377.0Y-42.5
X377.25Y-109.25
X377.25Y-117.0
X377.25Y-127.5
X377.25Y-137.25
X377.25Y-145.5
X377.25Y-155.75
X377.25Y-163.5
X377.25Y-181.25
X377.75Y-61.0
X378.5Y-65.25
X378.5Y-79.25
X379.75Y-67.75
X380.25Y-66.0
X380.75Y-60.0
X380.75Y-89.0
X382.75Y-89.0
X384.25Y-58.75
X385.5Y-64.25
X385.5Y-89.0
X386.25Y-64.25
X387.0Y-64.25
X387.75Y-64.25
X388.5Y-64.25
X388.75Y-73.5
X388.75Y-76.5
X389.25Y-64.25
X390.0Y-73.0
X390.0Y-77.0
X390.0Y-101.75
X390.0Y-120.25
X390.0Y-138.25
X390.0Y-156.25
X390.75Y-109.5
X390.75Y-127.5
X390.75Y-145.5
X390.75Y-163.75
X391.5Y-73.0
X391.5Y-77.0
X392.5Y-42.5
X392.75Y-73.5
X392.75Y-76.0
X392.75Y-109.5
X392.75Y-127.5
X392.75Y-145.5
X392.75Y-163.75
X393.25Y-42.5
X394.0Y-42.5
X394.25Y-109.25
X394.25Y-127.5
X394.25Y-145.5
X394.25Y-163.75
X394.75Y-42.5
X395.0Y-173.75
X395.0Y-174.5
X395.0Y-175.25
X395.0Y-176.0
X395.0Y-176.75
X395.0Y-177.5
X395.5Y-42.5
X396.0Y-78.75
X396.25Y-42.5
X396.75Y-78.75
X397.5Y-78.75
X398.25Y-78.75
X399.0Y-78.75
X399.75Y-78.75
X402.5Y-93.75
X402.5Y-94.5
X402.5Y-95.25
X402.5Y-96.0
X402.5Y-96.75
X402.5Y-97.5
X407.0Y-62.75
X407.0Y-102.25
X407.0Y-120.5
X407.0Y-138.0
X407.0Y-156.25
X407.0Y-174.25
X407.75Y-109.5
X407.75Y-127.5
X407.75Y-145.25
X407.75Y-163.5
X407.75Y-181.25
X408.75Y-69.25
X409.5Y-109.5
X409.75Y-65.0
X409.75Y-127.5
X409.75Y-145.25
X409.75Y-163.5
X409.75Y-181.25
X410.635Y-63.615
X411.25Y-109.5
X411.25Y-127.5
X411.25Y-145.25
X411.25Y-163.5
X411.25Y-181.25
X412.0Y-63.75
X413.25Y-57.75
X413.25Y-62.75
X416.25Y-67.5
X419.25Y-45.25
X421.75Y-52.5
X422.0Y-45.25
X424.0Y-102.25
X424.0Y-120.25
X424.0Y-156.25
X424.5Y-45.25
X424.75Y-109.5
X424.75Y-127.75
X424.75Y-163.5
X425.0Y-65.0
X425.75Y-65.0
X426.25Y-168.5
X426.5Y-65.0
X426.75Y-80.0
X426.75Y-109.5
X426.75Y-127.75
X426.75Y-163.5
X427.0Y-168.5
X427.25Y-65.0
X427.5Y-80.0
X427.5Y-138.75
X427.5Y-139.5
X427.5Y-140.25
X427.5Y-141.0
X427.5Y-141.75
X427.5Y-142.5
X427.75Y-51.75
X427.75Y-168.5
X428.0Y-65.0
X428.25Y-80.0
X428.25Y-109.5
X428.25Y-127.75
X428.25Y-163.5
X428.5Y-168.5
X428.75Y-65.0
X429.0Y-80.0
X429.25Y-168.5
X429.5Y-45.25
X429.5Y-184.25
X429.75Y-80.0
X430.0Y-168.5
X430.25Y-184.25
X430.5Y-80.0
X431.0Y-184.25
X431.75Y-184.25
X432.5Y-55.0
X432.5Y-55.75
X432.5Y-56.5
X432.5Y-57.25
X432.5Y-58.0
X432.5Y-58.75
X432.5Y-184.25
X433.25Y-184.25
T2
X409.14Y-40.0
X411.68Y-40.0
X414.22Y-40.0
X416.76Y-40.0
X419.3Y-40.0
X421.84Y-40.0
X424.38Y-40.0
X426.92Y-40.0
X429.46Y-40.0
X432.0Y-40.0
M30
