%TF.GenerationSoftware,KiCad,Pcbnew,8.0.0*%
%TF.CreationDate,2025-05-08T15:49:05+08:00*%
%TF.ProjectId,keyboard,6b657962-6f61-4726-942e-6b696361645f,1.0*%
%TF.SameCoordinates,Original*%
%TF.FileFunction,Soldermask,Top*%
%TF.FilePolarity,Negative*%
%FSLAX46Y46*%
G04 Gerber Fmt 4.6, Leading zero omitted, Abs format (unit mm)*
G04 Created by KiCad (PCBNEW 8.0.0) date 2025-05-08 15:49:05*
%MOMM*%
%LPD*%
G01*
G04 APERTURE LIST*
G04 Aperture macros list*
%AMRoundRect*
0 Rectangle with rounded corners*
0 $1 Rounding radius*
0 $2 $3 $4 $5 $6 $7 $8 $9 X,Y pos of 4 corners*
0 Add a 4 corners polygon primitive as box body*
4,1,4,$2,$3,$4,$5,$6,$7,$8,$9,$2,$3,0*
0 Add four circle primitives for the rounded corners*
1,1,$1+$1,$2,$3*
1,1,$1+$1,$4,$5*
1,1,$1+$1,$6,$7*
1,1,$1+$1,$8,$9*
0 Add four rect primitives between the rounded corners*
20,1,$1+$1,$2,$3,$4,$5,0*
20,1,$1+$1,$4,$5,$6,$7,0*
20,1,$1+$1,$6,$7,$8,$9,0*
20,1,$1+$1,$8,$9,$2,$3,0*%
G04 Aperture macros list end*
%ADD10C,0.000000*%
%ADD11R,0.558800X1.092200*%
%ADD12RoundRect,0.225000X0.225000X0.250000X-0.225000X0.250000X-0.225000X-0.250000X0.225000X-0.250000X0*%
%ADD13RoundRect,0.200000X-0.275000X0.200000X-0.275000X-0.200000X0.275000X-0.200000X0.275000X0.200000X0*%
%ADD14RoundRect,0.225000X-0.250000X0.225000X-0.250000X-0.225000X0.250000X-0.225000X0.250000X0.225000X0*%
%ADD15RoundRect,0.225000X0.250000X-0.225000X0.250000X0.225000X-0.250000X0.225000X-0.250000X-0.225000X0*%
%ADD16R,0.558800X1.981200*%
%ADD17O,1.250000X0.549999*%
%ADD18RoundRect,0.218750X-0.218750X-0.256250X0.218750X-0.256250X0.218750X0.256250X-0.218750X0.256250X0*%
%ADD19RoundRect,0.225000X-0.225000X-0.250000X0.225000X-0.250000X0.225000X0.250000X-0.225000X0.250000X0*%
%ADD20RoundRect,0.218750X0.256250X-0.218750X0.256250X0.218750X-0.256250X0.218750X-0.256250X-0.218750X0*%
%ADD21RoundRect,0.200000X-0.200000X-0.275000X0.200000X-0.275000X0.200000X0.275000X-0.200000X0.275000X0*%
%ADD22R,1.700000X1.700000*%
%ADD23O,1.700000X1.700000*%
G04 APERTURE END LIST*
D10*
G36*
X394053238Y-87945520D02*
G01*
X394060171Y-87952041D01*
X394066382Y-87957922D01*
X394071898Y-87963193D01*
X394076746Y-87967884D01*
X394080952Y-87972027D01*
X394082824Y-87973901D01*
X394084544Y-87975650D01*
X394086118Y-87977276D01*
X394087549Y-87978784D01*
X394088839Y-87980178D01*
X394089992Y-87981460D01*
X394091012Y-87982636D01*
X394091901Y-87983708D01*
X394092663Y-87984681D01*
X394093302Y-87985558D01*
X394093821Y-87986343D01*
X394094223Y-87987040D01*
X394094382Y-87987357D01*
X394094512Y-87987653D01*
X394094615Y-87987929D01*
X394094690Y-87988185D01*
X394094739Y-87988422D01*
X394094762Y-87988641D01*
X394094759Y-87988841D01*
X394094730Y-87989023D01*
X394094677Y-87989188D01*
X394094598Y-87989336D01*
X394094496Y-87989468D01*
X394094370Y-87989584D01*
X394094220Y-87989685D01*
X394094048Y-87989770D01*
X394093853Y-87989841D01*
X394093636Y-87989898D01*
X394093397Y-87989942D01*
X394093137Y-87989973D01*
X394092555Y-87989997D01*
X394092091Y-87989779D01*
X394091239Y-87989141D01*
X394088459Y-87986689D01*
X394084386Y-87982812D01*
X394079194Y-87977684D01*
X394066138Y-87964357D01*
X394050671Y-87948087D01*
X394011354Y-87906203D01*
X394053238Y-87945520D01*
G37*
G36*
X400700329Y-87910673D02*
G01*
X400700402Y-87910827D01*
X400700247Y-87911431D01*
X400699707Y-87912413D01*
X400698799Y-87913753D01*
X400695948Y-87917423D01*
X400691838Y-87922280D01*
X400686609Y-87928159D01*
X400680403Y-87934899D01*
X400673361Y-87942337D01*
X400665625Y-87950309D01*
X400657708Y-87958282D01*
X400650150Y-87965719D01*
X400643128Y-87972459D01*
X400636818Y-87978339D01*
X400631400Y-87983195D01*
X400629079Y-87985188D01*
X400627049Y-87986865D01*
X400625329Y-87988205D01*
X400623943Y-87989187D01*
X400622912Y-87989791D01*
X400622537Y-87989945D01*
X400622259Y-87989997D01*
X400622086Y-87989945D01*
X400622015Y-87989791D01*
X400622174Y-87989187D01*
X400622718Y-87988205D01*
X400623629Y-87986865D01*
X400626484Y-87983195D01*
X400630597Y-87978339D01*
X400635828Y-87972459D01*
X400642035Y-87965719D01*
X400649078Y-87958282D01*
X400656814Y-87950309D01*
X400664723Y-87942337D01*
X400672278Y-87934899D01*
X400679299Y-87928159D01*
X400685608Y-87922280D01*
X400691026Y-87917423D01*
X400693346Y-87915430D01*
X400695376Y-87913753D01*
X400697094Y-87912413D01*
X400698478Y-87911431D01*
X400699505Y-87910827D01*
X400699878Y-87910673D01*
X400700153Y-87910621D01*
X400700329Y-87910673D01*
G37*
G36*
X393682075Y-87575657D02*
G01*
X393683037Y-87576194D01*
X393684313Y-87577067D01*
X393685881Y-87578258D01*
X393689818Y-87581520D01*
X393694688Y-87585836D01*
X393700332Y-87591061D01*
X393706590Y-87597051D01*
X393713303Y-87603659D01*
X393720313Y-87610743D01*
X393723799Y-87614340D01*
X393727142Y-87617835D01*
X393730327Y-87621212D01*
X393733339Y-87624451D01*
X393736162Y-87627534D01*
X393738781Y-87630445D01*
X393741181Y-87633164D01*
X393743345Y-87635673D01*
X393745258Y-87637955D01*
X393746906Y-87639991D01*
X393748272Y-87641764D01*
X393749342Y-87643254D01*
X393750099Y-87644445D01*
X393750356Y-87644923D01*
X393750528Y-87645318D01*
X393750616Y-87645630D01*
X393750615Y-87645855D01*
X393750525Y-87645992D01*
X393750343Y-87646038D01*
X393749718Y-87645855D01*
X393748760Y-87645318D01*
X393747488Y-87644445D01*
X393745922Y-87643254D01*
X393741990Y-87639991D01*
X393737124Y-87635673D01*
X393731482Y-87630445D01*
X393725224Y-87624451D01*
X393718511Y-87617835D01*
X393711502Y-87610743D01*
X393708016Y-87607151D01*
X393704673Y-87603659D01*
X393701487Y-87600287D01*
X393698475Y-87597051D01*
X393695652Y-87593969D01*
X393693032Y-87591061D01*
X393690632Y-87588344D01*
X393688467Y-87585836D01*
X393686552Y-87583555D01*
X393684902Y-87581520D01*
X393683534Y-87579748D01*
X393682462Y-87578258D01*
X393681702Y-87577067D01*
X393681443Y-87576590D01*
X393681269Y-87576194D01*
X393681179Y-87575882D01*
X393681178Y-87575657D01*
X393681266Y-87575520D01*
X393681445Y-87575474D01*
X393682075Y-87575657D01*
G37*
G36*
X397434822Y-81465839D02*
G01*
X397565294Y-81472522D01*
X397696695Y-81482522D01*
X397823667Y-81495497D01*
X397940851Y-81511105D01*
X398042890Y-81529004D01*
X398294838Y-81590363D01*
X398539066Y-81669548D01*
X398774838Y-81765819D01*
X399001416Y-81878435D01*
X399218066Y-82006657D01*
X399424051Y-82149744D01*
X399618634Y-82306955D01*
X399801079Y-82477552D01*
X399970650Y-82660793D01*
X400126610Y-82855938D01*
X400268223Y-83062248D01*
X400394754Y-83278981D01*
X400505464Y-83505398D01*
X400599619Y-83740758D01*
X400676482Y-83984321D01*
X400708199Y-84108948D01*
X400735316Y-84235348D01*
X400761689Y-84389257D01*
X400780932Y-84543089D01*
X400793159Y-84696641D01*
X400798480Y-84849710D01*
X400797007Y-85002092D01*
X400788853Y-85153586D01*
X400774128Y-85303989D01*
X400752945Y-85453097D01*
X400725415Y-85600708D01*
X400691650Y-85746619D01*
X400651762Y-85890627D01*
X400605862Y-86032529D01*
X400554062Y-86172124D01*
X400496474Y-86309207D01*
X400433209Y-86443576D01*
X400364380Y-86575028D01*
X400290098Y-86703361D01*
X400210474Y-86828371D01*
X400125620Y-86949856D01*
X400035649Y-87067614D01*
X399940671Y-87181440D01*
X399840799Y-87291133D01*
X399736144Y-87396489D01*
X399626818Y-87497307D01*
X399512933Y-87593382D01*
X399394600Y-87684512D01*
X399271930Y-87770495D01*
X399145037Y-87851128D01*
X399014031Y-87926207D01*
X398879025Y-87995530D01*
X398740129Y-88058895D01*
X398597456Y-88116097D01*
X398383044Y-88188939D01*
X398168476Y-88247464D01*
X397954206Y-88291987D01*
X397740693Y-88322821D01*
X397528393Y-88340280D01*
X397317763Y-88344679D01*
X397109259Y-88336331D01*
X396903338Y-88315551D01*
X396700457Y-88282651D01*
X396501072Y-88237947D01*
X396305640Y-88181752D01*
X396114618Y-88114379D01*
X395928462Y-88036143D01*
X395747630Y-87947358D01*
X395572577Y-87848338D01*
X395403760Y-87739397D01*
X395241637Y-87620847D01*
X395086664Y-87493005D01*
X394939297Y-87356182D01*
X394799994Y-87210694D01*
X394669210Y-87056855D01*
X394547403Y-86894977D01*
X394435029Y-86725376D01*
X394332545Y-86548364D01*
X394240407Y-86364256D01*
X394159073Y-86173367D01*
X394088999Y-85976009D01*
X394030642Y-85772496D01*
X393984458Y-85563144D01*
X393950904Y-85348264D01*
X393930437Y-85128173D01*
X393923513Y-84903182D01*
X393924209Y-84872949D01*
X396303827Y-84872949D01*
X396304251Y-84950907D01*
X396310671Y-85029288D01*
X396323262Y-85107802D01*
X396342198Y-85186157D01*
X396367652Y-85264060D01*
X396399797Y-85341221D01*
X396438809Y-85417347D01*
X396484860Y-85492147D01*
X396538125Y-85565329D01*
X396577714Y-85612564D01*
X396619566Y-85656748D01*
X396663531Y-85697880D01*
X396709456Y-85735961D01*
X396757193Y-85770992D01*
X396806589Y-85802971D01*
X396857494Y-85831899D01*
X396909758Y-85857777D01*
X396963229Y-85880604D01*
X397017757Y-85900380D01*
X397073191Y-85917107D01*
X397129381Y-85930783D01*
X397186175Y-85941409D01*
X397243423Y-85948985D01*
X397300974Y-85953511D01*
X397358677Y-85954987D01*
X397416382Y-85953414D01*
X397473938Y-85948791D01*
X397531193Y-85941120D01*
X397587998Y-85930398D01*
X397644202Y-85916628D01*
X397699653Y-85899809D01*
X397754201Y-85879941D01*
X397807696Y-85857024D01*
X397859986Y-85831059D01*
X397910921Y-85802045D01*
X397960349Y-85769983D01*
X398008121Y-85734873D01*
X398054086Y-85696715D01*
X398098092Y-85655509D01*
X398139989Y-85611255D01*
X398179626Y-85563953D01*
X398223720Y-85504019D01*
X398262959Y-85442541D01*
X398297417Y-85379717D01*
X398327169Y-85315746D01*
X398352287Y-85250828D01*
X398372846Y-85185162D01*
X398388921Y-85118946D01*
X398400584Y-85052381D01*
X398407910Y-84985666D01*
X398410974Y-84918998D01*
X398409848Y-84852579D01*
X398404607Y-84786606D01*
X398395325Y-84721280D01*
X398382076Y-84656798D01*
X398364934Y-84593362D01*
X398343972Y-84531168D01*
X398319266Y-84470418D01*
X398290888Y-84411309D01*
X398258913Y-84354042D01*
X398223414Y-84298815D01*
X398184467Y-84245827D01*
X398142144Y-84195278D01*
X398096520Y-84147367D01*
X398047668Y-84102293D01*
X397995663Y-84060256D01*
X397940579Y-84021453D01*
X397882489Y-83986085D01*
X397821468Y-83954351D01*
X397757589Y-83926450D01*
X397690927Y-83902581D01*
X397621555Y-83882943D01*
X397549548Y-83867736D01*
X397460005Y-83855445D01*
X397372462Y-83850286D01*
X397287093Y-83851968D01*
X397204071Y-83860198D01*
X397123571Y-83874686D01*
X397045766Y-83895139D01*
X396970830Y-83921267D01*
X396898937Y-83952776D01*
X396830260Y-83989376D01*
X396764973Y-84030775D01*
X396703250Y-84076681D01*
X396645265Y-84126803D01*
X396591192Y-84180848D01*
X396541204Y-84238526D01*
X396495475Y-84299544D01*
X396454179Y-84363611D01*
X396417490Y-84430435D01*
X396385582Y-84499725D01*
X396358627Y-84571189D01*
X396336801Y-84644535D01*
X396320276Y-84719471D01*
X396309227Y-84795706D01*
X396303827Y-84872949D01*
X393924209Y-84872949D01*
X393927420Y-84733646D01*
X393939037Y-84566446D01*
X393958210Y-84401751D01*
X393984782Y-84239728D01*
X394018599Y-84080544D01*
X394059504Y-83924369D01*
X394107344Y-83771369D01*
X394161963Y-83621712D01*
X394223204Y-83475566D01*
X394290914Y-83333098D01*
X394364936Y-83194478D01*
X394445115Y-83059871D01*
X394531297Y-82929447D01*
X394623325Y-82803372D01*
X394721044Y-82681816D01*
X394824300Y-82564944D01*
X394932936Y-82452925D01*
X395046798Y-82345928D01*
X395165730Y-82244119D01*
X395289576Y-82147666D01*
X395418183Y-82056738D01*
X395551393Y-81971501D01*
X395689053Y-81892125D01*
X395831005Y-81818775D01*
X395977097Y-81751621D01*
X396127171Y-81690830D01*
X396281073Y-81636570D01*
X396438647Y-81589009D01*
X396599738Y-81548313D01*
X396764191Y-81514652D01*
X396931850Y-81488192D01*
X397102561Y-81469102D01*
X397198097Y-81463787D01*
X397310637Y-81462813D01*
X397434822Y-81465839D01*
G37*
G36*
X394678493Y-88572606D02*
G01*
X394680466Y-88574150D01*
X394687204Y-88580082D01*
X394710331Y-88601872D01*
X394743438Y-88634119D01*
X394783064Y-88673495D01*
X394803287Y-88693866D01*
X394821980Y-88712871D01*
X394838745Y-88730093D01*
X394853186Y-88745117D01*
X394864906Y-88757527D01*
X394873507Y-88766907D01*
X394876515Y-88770330D01*
X394878594Y-88772839D01*
X394879696Y-88774383D01*
X394879864Y-88774777D01*
X394879850Y-88774876D01*
X394879770Y-88774909D01*
X394878799Y-88774383D01*
X394876826Y-88772839D01*
X394870088Y-88766907D01*
X394846961Y-88745117D01*
X394813854Y-88712871D01*
X394774228Y-88673495D01*
X394754005Y-88653124D01*
X394735312Y-88634119D01*
X394718547Y-88616896D01*
X394704106Y-88601872D01*
X394692387Y-88589462D01*
X394683785Y-88580082D01*
X394680777Y-88576659D01*
X394678698Y-88574150D01*
X394677596Y-88572606D01*
X394677428Y-88572212D01*
X394677442Y-88572113D01*
X394677522Y-88572080D01*
X394678493Y-88572606D01*
G37*
G36*
X400955644Y-87655294D02*
G01*
X400955818Y-87655336D01*
X400955975Y-87655403D01*
X400956114Y-87655496D01*
X400956236Y-87655613D01*
X400956341Y-87655755D01*
X400956431Y-87655921D01*
X400956505Y-87656110D01*
X400956565Y-87656322D01*
X400956610Y-87656557D01*
X400956642Y-87656813D01*
X400956666Y-87657389D01*
X400956426Y-87657876D01*
X400955721Y-87658794D01*
X400953011Y-87661829D01*
X400948727Y-87666307D01*
X400943060Y-87672037D01*
X400928337Y-87686496D01*
X400910364Y-87703691D01*
X400864062Y-87747453D01*
X400907825Y-87701151D01*
X400915075Y-87693497D01*
X400921599Y-87686648D01*
X400927433Y-87680572D01*
X400932612Y-87675237D01*
X400937173Y-87670610D01*
X400939232Y-87668553D01*
X400941150Y-87666661D01*
X400942930Y-87664930D01*
X400944579Y-87663357D01*
X400946099Y-87661937D01*
X400947496Y-87660666D01*
X400948773Y-87659541D01*
X400949936Y-87658557D01*
X400950988Y-87657710D01*
X400951935Y-87656997D01*
X400952781Y-87656413D01*
X400953529Y-87655954D01*
X400954185Y-87655617D01*
X400954480Y-87655493D01*
X400954754Y-87655397D01*
X400955006Y-87655330D01*
X400955238Y-87655291D01*
X400955451Y-87655279D01*
X400955644Y-87655294D01*
G37*
G36*
X400869707Y-82063742D02*
G01*
X400871344Y-82064950D01*
X400876788Y-82069593D01*
X400884842Y-82076934D01*
X400895161Y-82086647D01*
X400921228Y-82111885D01*
X400952248Y-82142705D01*
X400968034Y-82158650D01*
X400982584Y-82173525D01*
X400995594Y-82187005D01*
X401006759Y-82198764D01*
X401015773Y-82208476D01*
X401022331Y-82215817D01*
X401024594Y-82218496D01*
X401026129Y-82220460D01*
X401026897Y-82221668D01*
X401026982Y-82221976D01*
X401026947Y-82222054D01*
X401026861Y-82222080D01*
X401026000Y-82221668D01*
X401024359Y-82220460D01*
X401018908Y-82215817D01*
X401010850Y-82208476D01*
X401000528Y-82198764D01*
X400974458Y-82173525D01*
X400943437Y-82142705D01*
X400927659Y-82126760D01*
X400913113Y-82111885D01*
X400900104Y-82098406D01*
X400888940Y-82086647D01*
X400879926Y-82076934D01*
X400873369Y-82069593D01*
X400871108Y-82066914D01*
X400869575Y-82064950D01*
X400868810Y-82063742D01*
X400868728Y-82063434D01*
X400868763Y-82063356D01*
X400868851Y-82063330D01*
X400869707Y-82063742D01*
G37*
G36*
X400659010Y-81851293D02*
G01*
X400665943Y-81857814D01*
X400672153Y-81863694D01*
X400677668Y-81868964D01*
X400682514Y-81873653D01*
X400686719Y-81877794D01*
X400688589Y-81879667D01*
X400690309Y-81881415D01*
X400691883Y-81883040D01*
X400693312Y-81884547D01*
X400694601Y-81885939D01*
X400695754Y-81887220D01*
X400696773Y-81888395D01*
X400697662Y-81889466D01*
X400698424Y-81890437D01*
X400699063Y-81891313D01*
X400699582Y-81892097D01*
X400699984Y-81892793D01*
X400700142Y-81893109D01*
X400700272Y-81893405D01*
X400700375Y-81893680D01*
X400700451Y-81893936D01*
X400700500Y-81894173D01*
X400700523Y-81894391D01*
X400700521Y-81894590D01*
X400700493Y-81894772D01*
X400700439Y-81894937D01*
X400700362Y-81895085D01*
X400700260Y-81895216D01*
X400700134Y-81895332D01*
X400699986Y-81895432D01*
X400699814Y-81895518D01*
X400699620Y-81895588D01*
X400699404Y-81895645D01*
X400699166Y-81895689D01*
X400698907Y-81895719D01*
X400698327Y-81895743D01*
X400697863Y-81895526D01*
X400697012Y-81894889D01*
X400694231Y-81892440D01*
X400690159Y-81888567D01*
X400684966Y-81883443D01*
X400671910Y-81870126D01*
X400656444Y-81853860D01*
X400617126Y-81811976D01*
X400659010Y-81851293D01*
G37*
G36*
X394094581Y-81816420D02*
G01*
X394094651Y-81816574D01*
X394094493Y-81817178D01*
X394093949Y-81818160D01*
X394093038Y-81819500D01*
X394090183Y-81823170D01*
X394086069Y-81828026D01*
X394080839Y-81833906D01*
X394074632Y-81840646D01*
X394067589Y-81848083D01*
X394059853Y-81856056D01*
X394051944Y-81864028D01*
X394044389Y-81871466D01*
X394037368Y-81878205D01*
X394031059Y-81884085D01*
X394025641Y-81888941D01*
X394023321Y-81890935D01*
X394021291Y-81892612D01*
X394019573Y-81893951D01*
X394018189Y-81894933D01*
X394017162Y-81895537D01*
X394016789Y-81895691D01*
X394016514Y-81895743D01*
X394016338Y-81895691D01*
X394016265Y-81895537D01*
X394016420Y-81894933D01*
X394016960Y-81893951D01*
X394017868Y-81892612D01*
X394020718Y-81888941D01*
X394024828Y-81884085D01*
X394030057Y-81878205D01*
X394036263Y-81871466D01*
X394043305Y-81864028D01*
X394051042Y-81856056D01*
X394058958Y-81848083D01*
X394066517Y-81840646D01*
X394073539Y-81833906D01*
X394079848Y-81828026D01*
X394085267Y-81823170D01*
X394087587Y-81821176D01*
X394089618Y-81819500D01*
X394091338Y-81818160D01*
X394092724Y-81817178D01*
X394093754Y-81816574D01*
X394094129Y-81816420D01*
X394094407Y-81816368D01*
X394094581Y-81816420D01*
G37*
G36*
X394270115Y-81640115D02*
G01*
X394270739Y-81640506D01*
X394270883Y-81640822D01*
X394270905Y-81641228D01*
X394270561Y-81642336D01*
X394269655Y-81643888D01*
X394268133Y-81645939D01*
X394265944Y-81648547D01*
X394263036Y-81651768D01*
X394254852Y-81660273D01*
X394243163Y-81671909D01*
X394207596Y-81706381D01*
X394143646Y-81767870D01*
X394205135Y-81703920D01*
X394217544Y-81691078D01*
X394229214Y-81679098D01*
X394239885Y-81668242D01*
X394249294Y-81658772D01*
X394257181Y-81650951D01*
X394263282Y-81645040D01*
X394267338Y-81641301D01*
X394268516Y-81640328D01*
X394268879Y-81640080D01*
X394269085Y-81639997D01*
X394270115Y-81640115D01*
G37*
G36*
X394149305Y-88043234D02*
G01*
X394150671Y-88044173D01*
X394155077Y-88047785D01*
X394161489Y-88053494D01*
X394169638Y-88061047D01*
X394179254Y-88070192D01*
X394190068Y-88080675D01*
X394214210Y-88104640D01*
X394226423Y-88117039D01*
X394237642Y-88128606D01*
X394247636Y-88139089D01*
X394256170Y-88148234D01*
X394263011Y-88155788D01*
X394265724Y-88158889D01*
X394267926Y-88161497D01*
X394269588Y-88163581D01*
X394270681Y-88165108D01*
X394271005Y-88165654D01*
X394271176Y-88166048D01*
X394271190Y-88166288D01*
X394271043Y-88166368D01*
X394270279Y-88166048D01*
X394268913Y-88165108D01*
X394264507Y-88161497D01*
X394258094Y-88155788D01*
X394249946Y-88148234D01*
X394240330Y-88139089D01*
X394229516Y-88128606D01*
X394205373Y-88104640D01*
X394193161Y-88092242D01*
X394181942Y-88080675D01*
X394171948Y-88070192D01*
X394163414Y-88061047D01*
X394156572Y-88053494D01*
X394153860Y-88050393D01*
X394151658Y-88047785D01*
X394149995Y-88045701D01*
X394148902Y-88044173D01*
X394148579Y-88043628D01*
X394148408Y-88043234D01*
X394148394Y-88042994D01*
X394148541Y-88042913D01*
X394149305Y-88043234D01*
G37*
G36*
X401026019Y-87584554D02*
G01*
X401026195Y-87584588D01*
X401026356Y-87584644D01*
X401026501Y-87584722D01*
X401026633Y-87584823D01*
X401026751Y-87584945D01*
X401026855Y-87585089D01*
X401026945Y-87585254D01*
X401027023Y-87585440D01*
X401027088Y-87585647D01*
X401027140Y-87585874D01*
X401027208Y-87586389D01*
X401027231Y-87586983D01*
X401027059Y-87587411D01*
X401026555Y-87588136D01*
X401024619Y-87590413D01*
X401021559Y-87593678D01*
X401017511Y-87597795D01*
X401012610Y-87602627D01*
X401006994Y-87608039D01*
X401000798Y-87613894D01*
X400994158Y-87620056D01*
X400961085Y-87650430D01*
X400991459Y-87617358D01*
X400996527Y-87611872D01*
X401001125Y-87606941D01*
X401005273Y-87602550D01*
X401008992Y-87598682D01*
X401010697Y-87596938D01*
X401012301Y-87595319D01*
X401013807Y-87593822D01*
X401015219Y-87592446D01*
X401016537Y-87591188D01*
X401017766Y-87590045D01*
X401018906Y-87589017D01*
X401019961Y-87588101D01*
X401020934Y-87587295D01*
X401021825Y-87586597D01*
X401022639Y-87586004D01*
X401023377Y-87585515D01*
X401024042Y-87585128D01*
X401024636Y-87584841D01*
X401024908Y-87584733D01*
X401025162Y-87584650D01*
X401025401Y-87584591D01*
X401025623Y-87584556D01*
X401025829Y-87584543D01*
X401026019Y-87584554D01*
G37*
G36*
X393846798Y-82063470D02*
G01*
X393847327Y-82063942D01*
X393847311Y-82064831D01*
X393846675Y-82066218D01*
X393845339Y-82068185D01*
X393843226Y-82070816D01*
X393836356Y-82078395D01*
X393825441Y-82089614D01*
X393809859Y-82105132D01*
X393762196Y-82151701D01*
X393676207Y-82235309D01*
X393759815Y-82149320D01*
X393792468Y-82115926D01*
X393819568Y-82088585D01*
X393830152Y-82078064D01*
X393838288Y-82070114D01*
X393843623Y-82065085D01*
X393845130Y-82063776D01*
X393845804Y-82063330D01*
X393846798Y-82063470D01*
G37*
G36*
X393485016Y-82425000D02*
G01*
X393485450Y-82425118D01*
X393485802Y-82425286D01*
X393486068Y-82425507D01*
X393486247Y-82425785D01*
X393486337Y-82426121D01*
X393486335Y-82426518D01*
X393486050Y-82427504D01*
X393485375Y-82428763D01*
X393484294Y-82430315D01*
X393482790Y-82432179D01*
X393480846Y-82434375D01*
X393478445Y-82436922D01*
X393472210Y-82443149D01*
X393463950Y-82451016D01*
X393453533Y-82460681D01*
X393420460Y-82491056D01*
X393450835Y-82457983D01*
X393456997Y-82451343D01*
X393462852Y-82445147D01*
X393468264Y-82439530D01*
X393473096Y-82434630D01*
X393477213Y-82430582D01*
X393478960Y-82428919D01*
X393480477Y-82427521D01*
X393481748Y-82426404D01*
X393482754Y-82425585D01*
X393483480Y-82425082D01*
X393483732Y-82424953D01*
X393483908Y-82424910D01*
X393485016Y-82425000D01*
G37*
G36*
X393979505Y-81931618D02*
G01*
X393979687Y-81931655D01*
X393979848Y-81931720D01*
X393979989Y-81931815D01*
X393980110Y-81931937D01*
X393980212Y-81932085D01*
X393980297Y-81932260D01*
X393980364Y-81932460D01*
X393980415Y-81932685D01*
X393980450Y-81932933D01*
X393980478Y-81933499D01*
X393980169Y-81934045D01*
X393979263Y-81935157D01*
X393975782Y-81938954D01*
X393962995Y-81951994D01*
X393944067Y-81970669D01*
X393920946Y-81993031D01*
X393861415Y-82050101D01*
X393918486Y-81990570D01*
X393927920Y-81980745D01*
X393936373Y-81971974D01*
X393943896Y-81964211D01*
X393950541Y-81957409D01*
X393956359Y-81951519D01*
X393961401Y-81946495D01*
X393963648Y-81944294D01*
X393965720Y-81942290D01*
X393967623Y-81940480D01*
X393969365Y-81938857D01*
X393970952Y-81937415D01*
X393972389Y-81936148D01*
X393973684Y-81935050D01*
X393974843Y-81934116D01*
X393975873Y-81933339D01*
X393976779Y-81932714D01*
X393977569Y-81932234D01*
X393977921Y-81932047D01*
X393978248Y-81931894D01*
X393978548Y-81931775D01*
X393978823Y-81931688D01*
X393979073Y-81931634D01*
X393979300Y-81931610D01*
X393979505Y-81931618D01*
G37*
G36*
X394334606Y-88228350D02*
G01*
X394335701Y-88229021D01*
X394339065Y-88231601D01*
X394343829Y-88235678D01*
X394349796Y-88241073D01*
X394356771Y-88247604D01*
X394364556Y-88255089D01*
X394372955Y-88263349D01*
X394381771Y-88272202D01*
X394390407Y-88281063D01*
X394398291Y-88289329D01*
X394405260Y-88296819D01*
X394411156Y-88303353D01*
X394413652Y-88306204D01*
X394415818Y-88308749D01*
X394417636Y-88310964D01*
X394419086Y-88312828D01*
X394420147Y-88314316D01*
X394420799Y-88315407D01*
X394420965Y-88315797D01*
X394421022Y-88316078D01*
X394420967Y-88316250D01*
X394420797Y-88316307D01*
X394420121Y-88316078D01*
X394419023Y-88315407D01*
X394415655Y-88312828D01*
X394410891Y-88308749D01*
X394404925Y-88303353D01*
X394397954Y-88296819D01*
X394390172Y-88289329D01*
X394381776Y-88281063D01*
X394372960Y-88272202D01*
X394364324Y-88263349D01*
X394356441Y-88255089D01*
X394349471Y-88247604D01*
X394343575Y-88241073D01*
X394341080Y-88238222D01*
X394338913Y-88235678D01*
X394337095Y-88233464D01*
X394335646Y-88231601D01*
X394334585Y-88230112D01*
X394333933Y-88229021D01*
X394333766Y-88228632D01*
X394333709Y-88228350D01*
X394333764Y-88228179D01*
X394333934Y-88228121D01*
X394334606Y-88228350D01*
G37*
G36*
X394879776Y-81031542D02*
G01*
X394879743Y-81031798D01*
X394879177Y-81032805D01*
X394876157Y-81036675D01*
X394870828Y-81042792D01*
X394863442Y-81050886D01*
X394854248Y-81060685D01*
X394843498Y-81071918D01*
X394818333Y-81097601D01*
X394805044Y-81110888D01*
X394792473Y-81123284D01*
X394780908Y-81134517D01*
X394770636Y-81144317D01*
X394761944Y-81152410D01*
X394755119Y-81158528D01*
X394752496Y-81160760D01*
X394750448Y-81162397D01*
X394749010Y-81163404D01*
X394748532Y-81163660D01*
X394748219Y-81163747D01*
X394748078Y-81163660D01*
X394748109Y-81163404D01*
X394748672Y-81162397D01*
X394751688Y-81158528D01*
X394757017Y-81152410D01*
X394764405Y-81144317D01*
X394773601Y-81134517D01*
X394784354Y-81123284D01*
X394809523Y-81097601D01*
X394822805Y-81084314D01*
X394835372Y-81071918D01*
X394846937Y-81060685D01*
X394857211Y-81050886D01*
X394865906Y-81042792D01*
X394872734Y-81036675D01*
X394875358Y-81034442D01*
X394877407Y-81032805D01*
X394878846Y-81031798D01*
X394879325Y-81031542D01*
X394879638Y-81031455D01*
X394879776Y-81031542D01*
G37*
G36*
X401594153Y-80667309D02*
G01*
X402650000Y-81723076D01*
X402650000Y-88083077D01*
X401594074Y-89138976D01*
X400538149Y-90194849D01*
X394178597Y-90194849D01*
X393122619Y-89139082D01*
X392066667Y-88083315D01*
X392066667Y-87285464D01*
X393389584Y-87285464D01*
X394182910Y-88078685D01*
X394976263Y-88871932D01*
X399739981Y-88871932D01*
X400533545Y-88078605D01*
X401327083Y-87285305D01*
X401327083Y-82521641D01*
X400533518Y-81728024D01*
X399739954Y-80934433D01*
X394976528Y-80934433D01*
X394183069Y-81727786D01*
X393389584Y-82521112D01*
X393389584Y-87285464D01*
X392066667Y-87285464D01*
X392066667Y-81722467D01*
X393122513Y-80666992D01*
X394178386Y-79611516D01*
X400538307Y-79611516D01*
X401594153Y-80667309D01*
G37*
G36*
X393761304Y-87655100D02*
G01*
X393762467Y-87655839D01*
X393766092Y-87658676D01*
X393771269Y-87663162D01*
X393777784Y-87669097D01*
X393785420Y-87676282D01*
X393793965Y-87684518D01*
X393803202Y-87693606D01*
X393812917Y-87703347D01*
X393822452Y-87713097D01*
X393831173Y-87722192D01*
X393838902Y-87730433D01*
X393845461Y-87737621D01*
X393848245Y-87740758D01*
X393850670Y-87743557D01*
X393852712Y-87745994D01*
X393854351Y-87748044D01*
X393855562Y-87749681D01*
X393856325Y-87750882D01*
X393856531Y-87751310D01*
X393856616Y-87751620D01*
X393856578Y-87751808D01*
X393856414Y-87751872D01*
X393855715Y-87751620D01*
X393854548Y-87750882D01*
X393850916Y-87748044D01*
X393845736Y-87743557D01*
X393839220Y-87737621D01*
X393831584Y-87730433D01*
X393823043Y-87722192D01*
X393813813Y-87713097D01*
X393804106Y-87703347D01*
X393794571Y-87693606D01*
X393785850Y-87684518D01*
X393778121Y-87676282D01*
X393771562Y-87669097D01*
X393768778Y-87665961D01*
X393766354Y-87663162D01*
X393764311Y-87660725D01*
X393762673Y-87658676D01*
X393761461Y-87657039D01*
X393760698Y-87655839D01*
X393760492Y-87655410D01*
X393760407Y-87655100D01*
X393760445Y-87654912D01*
X393760609Y-87654849D01*
X393761304Y-87655100D01*
G37*
G36*
X400446421Y-81640271D02*
G01*
X400447652Y-81641077D01*
X400451538Y-81644172D01*
X400457128Y-81649066D01*
X400464187Y-81655541D01*
X400472484Y-81663380D01*
X400481783Y-81672367D01*
X400491852Y-81682284D01*
X400502456Y-81692914D01*
X400512889Y-81703543D01*
X400522446Y-81713460D01*
X400530931Y-81722447D01*
X400538149Y-81730286D01*
X400543903Y-81736761D01*
X400546170Y-81739419D01*
X400547998Y-81741655D01*
X400549362Y-81743441D01*
X400550237Y-81744750D01*
X400550484Y-81745218D01*
X400550600Y-81745556D01*
X400550581Y-81745761D01*
X400550426Y-81745830D01*
X400549703Y-81745556D01*
X400548469Y-81744750D01*
X400544578Y-81741655D01*
X400538987Y-81736761D01*
X400531928Y-81730286D01*
X400523631Y-81722447D01*
X400514331Y-81713460D01*
X400504258Y-81703543D01*
X400493646Y-81692914D01*
X400483214Y-81682284D01*
X400473657Y-81672367D01*
X400465173Y-81663380D01*
X400457957Y-81655541D01*
X400452206Y-81649066D01*
X400449941Y-81646408D01*
X400448115Y-81644172D01*
X400446755Y-81642386D01*
X400445882Y-81641077D01*
X400445637Y-81640610D01*
X400445524Y-81640271D01*
X400445545Y-81640066D01*
X400445703Y-81639997D01*
X400446421Y-81640271D01*
G37*
G36*
X400808949Y-82001206D02*
G01*
X400815877Y-82007731D01*
X400822084Y-82013615D01*
X400827597Y-82018889D01*
X400832442Y-82023582D01*
X400836647Y-82027724D01*
X400838517Y-82029599D01*
X400840237Y-82031347D01*
X400841811Y-82032974D01*
X400843241Y-82034481D01*
X400844531Y-82035874D01*
X400845684Y-82037156D01*
X400846704Y-82038331D01*
X400847593Y-82039403D01*
X400848356Y-82040375D01*
X400848996Y-82041251D01*
X400849515Y-82042036D01*
X400849918Y-82042732D01*
X400850077Y-82043048D01*
X400850208Y-82043344D01*
X400850311Y-82043619D01*
X400850388Y-82043875D01*
X400850437Y-82044112D01*
X400850461Y-82044330D01*
X400850458Y-82044529D01*
X400850430Y-82044711D01*
X400850377Y-82044876D01*
X400850300Y-82045024D01*
X400850198Y-82045156D01*
X400850073Y-82045271D01*
X400849925Y-82045371D01*
X400849753Y-82045457D01*
X400849559Y-82045528D01*
X400849343Y-82045585D01*
X400849106Y-82045628D01*
X400848847Y-82045659D01*
X400848267Y-82045683D01*
X400847799Y-82045465D01*
X400846944Y-82044827D01*
X400844159Y-82042375D01*
X400840085Y-82038500D01*
X400834892Y-82033373D01*
X400821835Y-82020054D01*
X400806357Y-82003799D01*
X400767040Y-81961889D01*
X400808949Y-82001206D01*
G37*
G36*
X400849902Y-87761230D02*
G01*
X400850075Y-87761277D01*
X400850229Y-87761352D01*
X400850363Y-87761454D01*
X400850479Y-87761583D01*
X400850577Y-87761737D01*
X400850659Y-87761917D01*
X400850723Y-87762121D01*
X400850772Y-87762349D01*
X400850806Y-87762600D01*
X400850833Y-87763169D01*
X400850547Y-87763693D01*
X400849708Y-87764737D01*
X400846485Y-87768279D01*
X400841390Y-87773568D01*
X400834647Y-87780377D01*
X400817123Y-87797649D01*
X400795720Y-87818282D01*
X400740581Y-87870934D01*
X400793233Y-87815795D01*
X400801938Y-87806696D01*
X400809746Y-87798567D01*
X400816705Y-87791367D01*
X400822861Y-87785055D01*
X400828259Y-87779587D01*
X400832945Y-87774922D01*
X400835036Y-87772878D01*
X400836966Y-87771018D01*
X400838742Y-87769338D01*
X400840369Y-87767833D01*
X400841852Y-87766496D01*
X400843198Y-87765324D01*
X400844412Y-87764310D01*
X400845500Y-87763449D01*
X400846468Y-87762737D01*
X400847322Y-87762167D01*
X400848067Y-87761735D01*
X400848400Y-87761569D01*
X400848709Y-87761435D01*
X400848993Y-87761334D01*
X400849254Y-87761263D01*
X400849492Y-87761222D01*
X400849707Y-87761212D01*
X400849902Y-87761230D01*
G37*
G36*
X400567198Y-88043031D02*
G01*
X400567822Y-88043423D01*
X400567966Y-88043739D01*
X400567988Y-88044144D01*
X400567644Y-88045253D01*
X400566738Y-88046804D01*
X400565216Y-88048856D01*
X400563027Y-88051463D01*
X400560119Y-88054684D01*
X400551935Y-88063190D01*
X400540246Y-88074826D01*
X400504679Y-88109297D01*
X400440729Y-88170786D01*
X400502218Y-88106837D01*
X400514627Y-88093995D01*
X400526297Y-88082014D01*
X400536968Y-88071159D01*
X400546377Y-88061689D01*
X400554264Y-88053868D01*
X400560365Y-88047957D01*
X400564421Y-88044218D01*
X400565599Y-88043245D01*
X400565962Y-88042997D01*
X400566168Y-88042913D01*
X400567198Y-88043031D01*
G37*
G36*
X399905619Y-88704465D02*
G01*
X399906378Y-88704764D01*
X399906626Y-88704998D01*
X399906781Y-88705293D01*
X399906841Y-88705651D01*
X399906804Y-88706077D01*
X399906427Y-88707140D01*
X399905629Y-88708508D01*
X399904386Y-88710206D01*
X399902679Y-88712259D01*
X399900485Y-88714692D01*
X399897782Y-88717530D01*
X399890765Y-88724519D01*
X399881455Y-88733428D01*
X399869678Y-88744456D01*
X399832187Y-88779328D01*
X399867059Y-88741837D01*
X399874110Y-88734309D01*
X399880794Y-88727287D01*
X399886955Y-88720925D01*
X399892440Y-88715375D01*
X399897093Y-88710791D01*
X399900762Y-88707327D01*
X399902178Y-88706062D01*
X399903290Y-88705136D01*
X399904079Y-88704565D01*
X399904346Y-88704420D01*
X399904525Y-88704371D01*
X399905619Y-88704465D01*
G37*
G36*
X401231619Y-82425070D02*
G01*
X401232512Y-82425540D01*
X401233676Y-82426304D01*
X401235092Y-82427346D01*
X401238610Y-82430201D01*
X401242926Y-82433978D01*
X401247899Y-82438552D01*
X401253389Y-82443796D01*
X401259255Y-82449583D01*
X401265356Y-82455787D01*
X401268380Y-82458933D01*
X401271275Y-82461990D01*
X401274027Y-82464944D01*
X401276622Y-82467777D01*
X401279049Y-82470475D01*
X401281293Y-82473021D01*
X401283342Y-82475400D01*
X401285183Y-82477595D01*
X401286803Y-82479591D01*
X401288189Y-82481373D01*
X401289328Y-82482924D01*
X401290206Y-82484228D01*
X401290812Y-82485270D01*
X401291009Y-82485687D01*
X401291132Y-82486034D01*
X401291181Y-82486306D01*
X401291153Y-82486503D01*
X401291047Y-82486623D01*
X401290862Y-82486664D01*
X401290256Y-82486503D01*
X401289362Y-82486034D01*
X401288199Y-82485270D01*
X401286783Y-82484228D01*
X401283265Y-82481373D01*
X401278949Y-82477595D01*
X401273975Y-82473021D01*
X401268486Y-82467777D01*
X401262620Y-82461990D01*
X401256519Y-82455787D01*
X401253494Y-82452641D01*
X401250599Y-82449583D01*
X401247848Y-82446630D01*
X401245252Y-82443796D01*
X401242826Y-82441098D01*
X401240582Y-82438552D01*
X401238533Y-82436174D01*
X401236692Y-82433978D01*
X401235072Y-82431982D01*
X401233686Y-82430201D01*
X401232547Y-82428650D01*
X401231668Y-82427346D01*
X401231062Y-82426304D01*
X401230866Y-82425886D01*
X401230742Y-82425540D01*
X401230694Y-82425267D01*
X401230722Y-82425070D01*
X401230827Y-82424950D01*
X401231013Y-82424910D01*
X401231619Y-82425070D01*
G37*
G36*
X400038032Y-88572198D02*
G01*
X400038656Y-88572589D01*
X400038799Y-88572905D01*
X400038822Y-88573311D01*
X400038478Y-88574419D01*
X400037571Y-88575971D01*
X400036049Y-88578022D01*
X400033861Y-88580630D01*
X400030952Y-88583850D01*
X400022768Y-88592356D01*
X400011079Y-88603992D01*
X399975512Y-88638464D01*
X399911562Y-88699953D01*
X399973052Y-88636003D01*
X399985460Y-88623161D01*
X399997130Y-88611181D01*
X400007801Y-88600325D01*
X400017211Y-88590855D01*
X400025097Y-88583034D01*
X400031199Y-88577123D01*
X400035254Y-88573384D01*
X400036433Y-88572411D01*
X400036795Y-88572163D01*
X400037002Y-88572080D01*
X400038032Y-88572198D01*
G37*
G36*
X400381830Y-88228212D02*
G01*
X400382264Y-88228329D01*
X400382615Y-88228497D01*
X400382881Y-88228719D01*
X400383060Y-88228996D01*
X400383150Y-88229332D01*
X400383149Y-88229729D01*
X400382863Y-88230715D01*
X400382188Y-88231974D01*
X400381106Y-88233525D01*
X400379600Y-88235388D01*
X400377655Y-88237582D01*
X400375253Y-88240127D01*
X400369013Y-88246349D01*
X400360746Y-88254210D01*
X400350321Y-88263867D01*
X400317248Y-88294267D01*
X400347648Y-88261194D01*
X400353810Y-88254547D01*
X400359662Y-88248347D01*
X400365071Y-88242730D01*
X400369900Y-88237832D01*
X400374015Y-88233786D01*
X400375762Y-88232126D01*
X400377280Y-88230729D01*
X400378552Y-88229614D01*
X400379560Y-88228796D01*
X400380289Y-88228293D01*
X400380543Y-88228165D01*
X400380721Y-88228121D01*
X400381830Y-88228212D01*
G37*
G36*
X399839051Y-81032527D02*
G01*
X399840684Y-81033522D01*
X399842850Y-81035163D01*
X399849025Y-81040616D01*
X399858071Y-81049346D01*
X399870483Y-81061813D01*
X399907382Y-81099797D01*
X399973290Y-81168139D01*
X399904947Y-81102231D01*
X399891217Y-81088934D01*
X399878408Y-81076435D01*
X399866802Y-81065014D01*
X399856678Y-81054950D01*
X399848316Y-81046524D01*
X399841997Y-81040014D01*
X399838000Y-81035700D01*
X399836960Y-81034455D01*
X399836695Y-81034075D01*
X399836606Y-81033863D01*
X399836728Y-81032847D01*
X399837135Y-81032247D01*
X399837888Y-81032121D01*
X399839051Y-81032527D01*
G37*
G36*
X393867171Y-87760911D02*
G01*
X393868269Y-87761582D01*
X393871637Y-87764162D01*
X393876401Y-87768240D01*
X393882367Y-87773637D01*
X393889338Y-87780171D01*
X393897120Y-87787661D01*
X393905516Y-87795927D01*
X393914332Y-87804788D01*
X393922968Y-87813641D01*
X393930851Y-87821901D01*
X393937821Y-87829386D01*
X393943717Y-87835917D01*
X393946212Y-87838767D01*
X393948379Y-87841311D01*
X393950197Y-87843526D01*
X393951647Y-87845389D01*
X393952707Y-87846877D01*
X393953360Y-87847968D01*
X393953526Y-87848358D01*
X393953583Y-87848639D01*
X393953528Y-87848810D01*
X393953358Y-87848868D01*
X393952686Y-87848639D01*
X393951591Y-87847968D01*
X393948227Y-87845389D01*
X393943463Y-87841311D01*
X393937496Y-87835917D01*
X393930521Y-87829386D01*
X393922736Y-87821901D01*
X393914337Y-87813641D01*
X393905521Y-87804788D01*
X393896885Y-87795927D01*
X393889002Y-87787661D01*
X393882032Y-87780171D01*
X393876136Y-87773637D01*
X393873641Y-87770785D01*
X393871474Y-87768240D01*
X393869656Y-87766025D01*
X393868206Y-87764162D01*
X393867145Y-87762673D01*
X393866493Y-87761582D01*
X393866327Y-87761193D01*
X393866270Y-87760911D01*
X393866325Y-87760740D01*
X393866495Y-87760682D01*
X393867171Y-87760911D01*
G37*
G36*
X394412081Y-81498920D02*
G01*
X394412151Y-81499074D01*
X394411993Y-81499678D01*
X394411449Y-81500660D01*
X394410537Y-81502000D01*
X394407683Y-81505670D01*
X394403569Y-81510526D01*
X394398339Y-81516406D01*
X394392132Y-81523146D01*
X394385089Y-81530583D01*
X394377353Y-81538556D01*
X394369444Y-81546528D01*
X394361889Y-81553966D01*
X394354868Y-81560706D01*
X394348559Y-81566585D01*
X394343141Y-81571441D01*
X394340821Y-81573435D01*
X394338791Y-81575112D01*
X394337073Y-81576451D01*
X394335689Y-81577433D01*
X394334662Y-81578037D01*
X394334289Y-81578191D01*
X394334014Y-81578243D01*
X394333838Y-81578191D01*
X394333765Y-81578037D01*
X394333919Y-81577433D01*
X394334460Y-81576451D01*
X394335368Y-81575112D01*
X394338218Y-81571441D01*
X394342328Y-81566585D01*
X394347557Y-81560706D01*
X394353763Y-81553966D01*
X394360805Y-81546528D01*
X394368542Y-81538556D01*
X394376459Y-81530583D01*
X394384017Y-81523146D01*
X394391039Y-81516406D01*
X394397348Y-81510526D01*
X394402767Y-81505670D01*
X394405087Y-81503677D01*
X394407118Y-81502000D01*
X394408838Y-81500660D01*
X394410224Y-81499678D01*
X394411254Y-81499074D01*
X394411629Y-81498920D01*
X394411907Y-81498868D01*
X394412081Y-81498920D01*
G37*
G36*
X400305490Y-81499051D02*
G01*
X400306448Y-81499588D01*
X400307720Y-81500461D01*
X400309286Y-81501652D01*
X400313218Y-81504915D01*
X400318085Y-81509233D01*
X400323727Y-81514462D01*
X400329984Y-81520456D01*
X400336697Y-81527071D01*
X400343706Y-81534164D01*
X400347192Y-81537756D01*
X400350536Y-81541247D01*
X400353721Y-81544620D01*
X400356734Y-81547856D01*
X400359557Y-81550937D01*
X400362177Y-81553846D01*
X400364577Y-81556563D01*
X400366742Y-81559071D01*
X400368657Y-81561352D01*
X400370306Y-81563387D01*
X400371675Y-81565159D01*
X400372747Y-81566649D01*
X400373507Y-81567840D01*
X400373765Y-81568317D01*
X400373940Y-81568713D01*
X400374029Y-81569024D01*
X400374030Y-81569250D01*
X400373942Y-81569387D01*
X400373763Y-81569433D01*
X400373134Y-81569250D01*
X400372171Y-81568713D01*
X400370896Y-81567840D01*
X400369327Y-81566649D01*
X400365391Y-81563387D01*
X400360521Y-81559071D01*
X400354877Y-81553846D01*
X400348619Y-81547856D01*
X400341905Y-81541247D01*
X400334896Y-81534164D01*
X400331410Y-81530567D01*
X400328067Y-81527071D01*
X400324881Y-81523695D01*
X400321869Y-81520456D01*
X400319046Y-81517372D01*
X400316427Y-81514462D01*
X400314028Y-81511743D01*
X400311864Y-81509233D01*
X400309950Y-81506951D01*
X400308302Y-81504915D01*
X400306936Y-81503143D01*
X400305867Y-81501652D01*
X400305109Y-81500461D01*
X400304853Y-81499984D01*
X400304680Y-81499588D01*
X400304593Y-81499277D01*
X400304593Y-81499051D01*
X400304683Y-81498914D01*
X400304865Y-81498868D01*
X400305490Y-81499051D01*
G37*
D11*
%TO.C,U115*%
X389049999Y-124308100D03*
X390950001Y-124308100D03*
X390000000Y-121691900D03*
%TD*%
D12*
%TO.C,C222*%
X373775000Y-144000000D03*
X372225000Y-144000000D03*
%TD*%
D13*
%TO.C,R96*%
X355750000Y-124425000D03*
X355750000Y-126075000D03*
%TD*%
D12*
%TO.C,C93*%
X129775000Y-86000000D03*
X128225000Y-86000000D03*
%TD*%
D14*
%TO.C,C138*%
X214250000Y-142475000D03*
X214250000Y-144025000D03*
%TD*%
D11*
%TO.C,U106*%
X335049999Y-84308100D03*
X336950001Y-84308100D03*
X336000000Y-81691900D03*
%TD*%
D15*
%TO.C,C32*%
X254250000Y-49525000D03*
X254250000Y-47975000D03*
%TD*%
D11*
%TO.C,U26*%
X85549999Y-124308100D03*
X87450001Y-124308100D03*
X86500000Y-121691900D03*
%TD*%
D13*
%TO.C,R65*%
X237750000Y-160425000D03*
X237750000Y-162075000D03*
%TD*%
%TO.C,R49*%
X203750000Y-160425000D03*
X203750000Y-162075000D03*
%TD*%
D11*
%TO.C,U126*%
X406049999Y-160308100D03*
X407950001Y-160308100D03*
X407000000Y-157691900D03*
%TD*%
D14*
%TO.C,C57*%
X90750000Y-124475000D03*
X90750000Y-126025000D03*
%TD*%
D12*
%TO.C,C47*%
X116775000Y-162000000D03*
X115225000Y-162000000D03*
%TD*%
D13*
%TO.C,R106*%
X409750000Y-106425000D03*
X409750000Y-108075000D03*
%TD*%
%TO.C,R32*%
X131750000Y-84425000D03*
X131750000Y-86075000D03*
%TD*%
D11*
%TO.C,U40*%
X132049999Y-160308100D03*
X133950001Y-160308100D03*
X133000000Y-157691900D03*
%TD*%
D13*
%TO.C,R110*%
X409750000Y-142425000D03*
X409750000Y-144075000D03*
%TD*%
%TO.C,R24*%
X144750000Y-142425000D03*
X144750000Y-144075000D03*
%TD*%
D12*
%TO.C,C69*%
X125750000Y-144000000D03*
X124200000Y-144000000D03*
%TD*%
D11*
%TO.C,U73*%
X213049999Y-106308100D03*
X214950001Y-106308100D03*
X214000000Y-103691900D03*
%TD*%
D12*
%TO.C,C186*%
X291275000Y-126000000D03*
X289725000Y-126000000D03*
%TD*%
D11*
%TO.C,U20*%
X60049999Y-142308100D03*
X61950001Y-142308100D03*
X61000000Y-139691900D03*
%TD*%
%TO.C,U87*%
X266049999Y-178308100D03*
X267950001Y-178308100D03*
X267000000Y-175691900D03*
%TD*%
D16*
%TO.C,U6*%
X185555000Y-52362200D03*
X186825000Y-52362200D03*
X188095000Y-52362200D03*
X189365000Y-52362200D03*
X190635000Y-52362200D03*
X191905000Y-52362200D03*
X193175000Y-52362200D03*
X194445000Y-52362200D03*
X194445000Y-47637800D03*
X193175000Y-47637800D03*
X191905000Y-47637800D03*
X190635000Y-47637800D03*
X189365000Y-47637800D03*
X188095000Y-47637800D03*
X186825000Y-47637800D03*
X185555000Y-47637800D03*
%TD*%
D12*
%TO.C,C163*%
X267775000Y-180000000D03*
X266225000Y-180000000D03*
%TD*%
%TO.C,C154*%
X244775000Y-144000000D03*
X243225000Y-144000000D03*
%TD*%
D11*
%TO.C,U44*%
X145049999Y-66308100D03*
X146950001Y-66308100D03*
X146000000Y-63691900D03*
%TD*%
D14*
%TO.C,C111*%
X167250000Y-106475000D03*
X167250000Y-108025000D03*
%TD*%
D11*
%TO.C,U41*%
X94049999Y-66308100D03*
X95950001Y-66308100D03*
X95000000Y-63691900D03*
%TD*%
D17*
%TO.C,U8*%
X252625001Y-54445000D03*
X252625001Y-53175000D03*
X252625001Y-51905000D03*
X252625001Y-50635000D03*
X252625001Y-49365000D03*
X252625001Y-48095000D03*
X252625001Y-46825000D03*
X252625001Y-45555000D03*
X247375001Y-45555000D03*
X247375001Y-46825000D03*
X247375001Y-48095000D03*
X247375001Y-49365000D03*
X247375001Y-50635000D03*
X247375001Y-51905000D03*
X247375001Y-53175000D03*
X247375001Y-54445000D03*
%TD*%
D14*
%TO.C,C172*%
X260750000Y-124475000D03*
X260750000Y-126025000D03*
%TD*%
D13*
%TO.C,R72*%
X269750000Y-178425000D03*
X269750000Y-180075000D03*
%TD*%
D12*
%TO.C,C128*%
X206275000Y-68000000D03*
X204725000Y-68000000D03*
%TD*%
D14*
%TO.C,C150*%
X235250000Y-106475000D03*
X235250000Y-108025000D03*
%TD*%
%TO.C,C254*%
X411250000Y-160475000D03*
X411250000Y-162025000D03*
%TD*%
D17*
%TO.C,U9*%
X362625001Y-54445000D03*
X362625001Y-53175000D03*
X362625001Y-51905000D03*
X362625001Y-50635000D03*
X362625001Y-49365000D03*
X362625001Y-48095000D03*
X362625001Y-46825000D03*
X362625001Y-45555000D03*
X357375001Y-45555000D03*
X357375001Y-46825000D03*
X357375001Y-48095000D03*
X357375001Y-49365000D03*
X357375001Y-50635000D03*
X357375001Y-51905000D03*
X357375001Y-53175000D03*
X357375001Y-54445000D03*
%TD*%
D13*
%TO.C,R81*%
X281750000Y-142425000D03*
X281750000Y-144075000D03*
%TD*%
%TO.C,R104*%
X392750000Y-160425000D03*
X392750000Y-162075000D03*
%TD*%
D12*
%TO.C,C36*%
X61775000Y-144000000D03*
X60225000Y-144000000D03*
%TD*%
D16*
%TO.C,U12*%
X260555000Y-52362200D03*
X261825000Y-52362200D03*
X263095000Y-52362200D03*
X264365000Y-52362200D03*
X265635000Y-52362200D03*
X266905000Y-52362200D03*
X268175000Y-52362200D03*
X269445000Y-52362200D03*
X269445000Y-47637800D03*
X268175000Y-47637800D03*
X266905000Y-47637800D03*
X265635000Y-47637800D03*
X264365000Y-47637800D03*
X263095000Y-47637800D03*
X261825000Y-47637800D03*
X260555000Y-47637800D03*
%TD*%
D12*
%TO.C,C188*%
X282775000Y-86000000D03*
X281225000Y-86000000D03*
%TD*%
D11*
%TO.C,U25*%
X77049999Y-106308100D03*
X78950001Y-106308100D03*
X78000000Y-103691900D03*
%TD*%
D14*
%TO.C,C201*%
X294750000Y-124475000D03*
X294750000Y-126025000D03*
%TD*%
%TO.C,C53*%
X65250000Y-178475000D03*
X65250000Y-180025000D03*
%TD*%
D12*
%TO.C,C226*%
X373750000Y-180000000D03*
X372200000Y-180000000D03*
%TD*%
D14*
%TO.C,C149*%
X218250000Y-106475000D03*
X218250000Y-108025000D03*
%TD*%
%TO.C,C88*%
X116250000Y-66475000D03*
X116250000Y-68025000D03*
%TD*%
%TO.C,C208*%
X323250000Y-178475000D03*
X323250000Y-180025000D03*
%TD*%
D12*
%TO.C,C41*%
X78775000Y-108000000D03*
X77225000Y-108000000D03*
%TD*%
%TO.C,C107*%
X193750000Y-144000000D03*
X192200000Y-144000000D03*
%TD*%
D14*
%TO.C,C252*%
X428250000Y-124475000D03*
X428250000Y-126025000D03*
%TD*%
D15*
%TO.C,C31*%
X403750000Y-67000000D03*
X403750000Y-65450000D03*
%TD*%
D12*
%TO.C,C34*%
X61775000Y-108000000D03*
X60225000Y-108000000D03*
%TD*%
D13*
%TO.C,R57*%
X225250000Y-84425000D03*
X225250000Y-86075000D03*
%TD*%
D14*
%TO.C,C231*%
X340250000Y-124475000D03*
X340250000Y-126025000D03*
%TD*%
D12*
%TO.C,C136*%
X223275000Y-126000000D03*
X221725000Y-126000000D03*
%TD*%
%TO.C,C37*%
X61775000Y-162000000D03*
X60225000Y-162000000D03*
%TD*%
%TO.C,C192*%
X336775000Y-162000000D03*
X335225000Y-162000000D03*
%TD*%
D14*
%TO.C,C81*%
X133250000Y-106475000D03*
X133250000Y-108025000D03*
%TD*%
D11*
%TO.C,U52*%
X170549999Y-124308100D03*
X172450001Y-124308100D03*
X171500000Y-121691900D03*
%TD*%
%TO.C,U68*%
X221549999Y-66308100D03*
X223450001Y-66308100D03*
X222500000Y-63691900D03*
%TD*%
D15*
%TO.C,C10*%
X165250000Y-47025000D03*
X165250000Y-45475000D03*
%TD*%
D12*
%TO.C,C74*%
X129775000Y-68000000D03*
X128225000Y-68000000D03*
%TD*%
D13*
%TO.C,R5*%
X63750000Y-142425000D03*
X63750000Y-144075000D03*
%TD*%
D18*
%TO.C,D1*%
X429212500Y-51750000D03*
X430787500Y-51750000D03*
%TD*%
D11*
%TO.C,U111*%
X352049999Y-124308100D03*
X353950001Y-124308100D03*
X353000000Y-121691900D03*
%TD*%
D13*
%TO.C,R36*%
X157250000Y-124425000D03*
X157250000Y-126075000D03*
%TD*%
%TO.C,R91*%
X338750000Y-84425000D03*
X338750000Y-86075000D03*
%TD*%
D11*
%TO.C,U81*%
X255549999Y-124308100D03*
X257450001Y-124308100D03*
X256500000Y-121691900D03*
%TD*%
D14*
%TO.C,C234*%
X394250000Y-106475000D03*
X394250000Y-108025000D03*
%TD*%
%TO.C,C84*%
X129250000Y-142475000D03*
X129250000Y-144025000D03*
%TD*%
D13*
%TO.C,R31*%
X114750000Y-84425000D03*
X114750000Y-86075000D03*
%TD*%
%TO.C,R101*%
X375750000Y-142425000D03*
X375750000Y-144075000D03*
%TD*%
D12*
%TO.C,C123*%
X210775000Y-144000000D03*
X209225000Y-144000000D03*
%TD*%
D14*
%TO.C,C237*%
X377250000Y-142475000D03*
X377250000Y-144025000D03*
%TD*%
D15*
%TO.C,C17*%
X390000000Y-75775000D03*
X390000000Y-74225000D03*
%TD*%
D13*
%TO.C,R12*%
X106250000Y-124425000D03*
X106250000Y-126075000D03*
%TD*%
D12*
%TO.C,C191*%
X319775000Y-126000000D03*
X318225000Y-126000000D03*
%TD*%
D16*
%TO.C,U7*%
X207055000Y-52362200D03*
X208325000Y-52362200D03*
X209595000Y-52362200D03*
X210865000Y-52362200D03*
X212135000Y-52362200D03*
X213405000Y-52362200D03*
X214675000Y-52362200D03*
X215945000Y-52362200D03*
X215945000Y-47637800D03*
X214675000Y-47637800D03*
X213405000Y-47637800D03*
X212135000Y-47637800D03*
X210865000Y-47637800D03*
X209595000Y-47637800D03*
X208325000Y-47637800D03*
X207055000Y-47637800D03*
%TD*%
D13*
%TO.C,R15*%
X101750000Y-160425000D03*
X101750000Y-162075000D03*
%TD*%
D11*
%TO.C,U79*%
X217049999Y-160308100D03*
X218950001Y-160308100D03*
X218000000Y-157691900D03*
%TD*%
D14*
%TO.C,C119*%
X201250000Y-106475000D03*
X201250000Y-108025000D03*
%TD*%
D11*
%TO.C,U75*%
X221549999Y-124308100D03*
X223450001Y-124308100D03*
X222500000Y-121691900D03*
%TD*%
D14*
%TO.C,C181*%
X269250000Y-84475000D03*
X269250000Y-86025000D03*
%TD*%
D13*
%TO.C,R112*%
X426750000Y-160425000D03*
X426750000Y-162075000D03*
%TD*%
D14*
%TO.C,C115*%
X180250000Y-142475000D03*
X180250000Y-144025000D03*
%TD*%
%TO.C,C250*%
X428250000Y-106475000D03*
X428250000Y-108025000D03*
%TD*%
D11*
%TO.C,U88*%
X287049999Y-178308100D03*
X288950001Y-178308100D03*
X288000000Y-175691900D03*
%TD*%
D12*
%TO.C,C100*%
X176775000Y-144000000D03*
X175225000Y-144000000D03*
%TD*%
%TO.C,C216*%
X336775000Y-126000000D03*
X335225000Y-126000000D03*
%TD*%
D13*
%TO.C,R97*%
X375750000Y-106425000D03*
X375750000Y-108075000D03*
%TD*%
%TO.C,R41*%
X169750000Y-160425000D03*
X169750000Y-162075000D03*
%TD*%
%TO.C,R77*%
X267750000Y-106425000D03*
X267750000Y-108075000D03*
%TD*%
D14*
%TO.C,C236*%
X394250000Y-124475000D03*
X394250000Y-126025000D03*
%TD*%
D11*
%TO.C,U101*%
X335049999Y-160308100D03*
X336950001Y-160308100D03*
X336000000Y-157691900D03*
%TD*%
D16*
%TO.C,U14*%
X333555000Y-52362200D03*
X334825000Y-52362200D03*
X336095000Y-52362200D03*
X337365000Y-52362200D03*
X338635000Y-52362200D03*
X339905000Y-52362200D03*
X341175000Y-52362200D03*
X342445000Y-52362200D03*
X342445000Y-47637800D03*
X341175000Y-47637800D03*
X339905000Y-47637800D03*
X338635000Y-47637800D03*
X337365000Y-47637800D03*
X336095000Y-47637800D03*
X334825000Y-47637800D03*
X333555000Y-47637800D03*
%TD*%
D11*
%TO.C,U104*%
X352049999Y-178308100D03*
X353950001Y-178308100D03*
X353000000Y-175691900D03*
%TD*%
D12*
%TO.C,C137*%
X240275000Y-126000000D03*
X238725000Y-126000000D03*
%TD*%
D14*
%TO.C,C86*%
X137250000Y-160475000D03*
X137250000Y-162025000D03*
%TD*%
D12*
%TO.C,C244*%
X407775000Y-126000000D03*
X406225000Y-126000000D03*
%TD*%
D11*
%TO.C,U36*%
X119549999Y-124308100D03*
X121450001Y-124308100D03*
X120500000Y-121691900D03*
%TD*%
D12*
%TO.C,C249*%
X407750000Y-180000000D03*
X406200000Y-180000000D03*
%TD*%
%TO.C,C153*%
X227775000Y-144000000D03*
X226225000Y-144000000D03*
%TD*%
%TO.C,C127*%
X189275000Y-68000000D03*
X187725000Y-68000000D03*
%TD*%
%TO.C,C218*%
X373750000Y-108000000D03*
X372200000Y-108000000D03*
%TD*%
D11*
%TO.C,U84*%
X268049999Y-160308100D03*
X269950001Y-160308100D03*
X269000000Y-157691900D03*
%TD*%
D13*
%TO.C,R2*%
X63750000Y-84425000D03*
X63750000Y-86075000D03*
%TD*%
D11*
%TO.C,U24*%
X102049999Y-178308100D03*
X103950001Y-178308100D03*
X103000000Y-175691900D03*
%TD*%
D16*
%TO.C,U16*%
X405555000Y-72362200D03*
X406825000Y-72362200D03*
X408095000Y-72362200D03*
X409365000Y-72362200D03*
X410635000Y-72362200D03*
X411905000Y-72362200D03*
X413175000Y-72362200D03*
X414445000Y-72362200D03*
X414445000Y-67637800D03*
X413175000Y-67637800D03*
X411905000Y-67637800D03*
X410635000Y-67637800D03*
X409365000Y-67637800D03*
X408095000Y-67637800D03*
X406825000Y-67637800D03*
X405555000Y-67637800D03*
%TD*%
D11*
%TO.C,U60*%
X204549999Y-124308100D03*
X206450001Y-124308100D03*
X205500000Y-121691900D03*
%TD*%
D16*
%TO.C,U5*%
X167055000Y-52362200D03*
X168325000Y-52362200D03*
X169595000Y-52362200D03*
X170865000Y-52362200D03*
X172135000Y-52362200D03*
X173405000Y-52362200D03*
X174675000Y-52362200D03*
X175945000Y-52362200D03*
X175945000Y-47637800D03*
X174675000Y-47637800D03*
X173405000Y-47637800D03*
X172135000Y-47637800D03*
X170865000Y-47637800D03*
X169595000Y-47637800D03*
X168325000Y-47637800D03*
X167055000Y-47637800D03*
%TD*%
D11*
%TO.C,U32*%
X123049999Y-178308100D03*
X124950001Y-178308100D03*
X124000000Y-175691900D03*
%TD*%
D13*
%TO.C,R17*%
X126750000Y-178425000D03*
X126750000Y-180075000D03*
%TD*%
%TO.C,R52*%
X208250000Y-66425000D03*
X208250000Y-68075000D03*
%TD*%
D12*
%TO.C,C165*%
X248775000Y-86000000D03*
X247225000Y-86000000D03*
%TD*%
D13*
%TO.C,R95*%
X338750000Y-124425000D03*
X338750000Y-126075000D03*
%TD*%
%TO.C,R53*%
X226750000Y-66425000D03*
X226750000Y-68075000D03*
%TD*%
%TO.C,R16*%
X118750000Y-160425000D03*
X118750000Y-162075000D03*
%TD*%
D14*
%TO.C,C52*%
X65250000Y-160475000D03*
X65250000Y-162025000D03*
%TD*%
D13*
%TO.C,R59*%
X233750000Y-106425000D03*
X233750000Y-108075000D03*
%TD*%
D11*
%TO.C,U39*%
X141049999Y-142308100D03*
X142950001Y-142308100D03*
X142000000Y-139691900D03*
%TD*%
D14*
%TO.C,C140*%
X205275000Y-160475000D03*
X205275000Y-162025000D03*
%TD*%
D12*
%TO.C,C159*%
X252775000Y-162000000D03*
X251225000Y-162000000D03*
%TD*%
D11*
%TO.C,U90*%
X264049999Y-84308100D03*
X265950001Y-84308100D03*
X265000000Y-81691900D03*
%TD*%
D12*
%TO.C,C124*%
X184750000Y-162000000D03*
X183200000Y-162000000D03*
%TD*%
D11*
%TO.C,U18*%
X60049999Y-106308100D03*
X61950001Y-106308100D03*
X61000000Y-103691900D03*
%TD*%
%TO.C,U28*%
X90049999Y-142308100D03*
X91950001Y-142308100D03*
X91000000Y-139691900D03*
%TD*%
%TO.C,U69*%
X170549999Y-84308100D03*
X172450001Y-84308100D03*
X171500000Y-81691900D03*
%TD*%
D14*
%TO.C,C147*%
X209750000Y-84475000D03*
X209750000Y-86025000D03*
%TD*%
D11*
%TO.C,U63*%
X183049999Y-160308100D03*
X184950001Y-160308100D03*
X184000000Y-157691900D03*
%TD*%
%TO.C,U53*%
X158049999Y-142308100D03*
X159950001Y-142308100D03*
X159000000Y-139691900D03*
%TD*%
%TO.C,U37*%
X136549999Y-124308100D03*
X138450001Y-124308100D03*
X137500000Y-121691900D03*
%TD*%
D14*
%TO.C,C144*%
X225250000Y-66475000D03*
X225250000Y-68025000D03*
%TD*%
%TO.C,C256*%
X411250000Y-178500000D03*
X411250000Y-180050000D03*
%TD*%
D13*
%TO.C,R28*%
X133250000Y-66425000D03*
X133250000Y-68075000D03*
%TD*%
D11*
%TO.C,U35*%
X128049999Y-106308100D03*
X129950001Y-106308100D03*
X129000000Y-103691900D03*
%TD*%
D14*
%TO.C,C198*%
X269250000Y-106475000D03*
X269250000Y-108025000D03*
%TD*%
D11*
%TO.C,U34*%
X111049999Y-106308100D03*
X112950001Y-106308100D03*
X112000000Y-103691900D03*
%TD*%
%TO.C,U70*%
X187549999Y-84308100D03*
X189450001Y-84308100D03*
X188500000Y-81691900D03*
%TD*%
%TO.C,U66*%
X187549999Y-66308100D03*
X189450001Y-66308100D03*
X188500000Y-63691900D03*
%TD*%
D15*
%TO.C,C13*%
X208250000Y-45550000D03*
X208250000Y-44000000D03*
%TD*%
D14*
%TO.C,C49*%
X65250000Y-106475000D03*
X65250000Y-108025000D03*
%TD*%
D15*
%TO.C,C3*%
X91750000Y-45525000D03*
X91750000Y-43975000D03*
%TD*%
D14*
%TO.C,C108*%
X133250000Y-84475000D03*
X133250000Y-86025000D03*
%TD*%
D13*
%TO.C,R8*%
X84750000Y-178425000D03*
X84750000Y-180075000D03*
%TD*%
D14*
%TO.C,C255*%
X428250000Y-160475000D03*
X428250000Y-162025000D03*
%TD*%
D11*
%TO.C,U102*%
X318049999Y-178308100D03*
X319950001Y-178308100D03*
X319000000Y-175691900D03*
%TD*%
D13*
%TO.C,R56*%
X208250000Y-84425000D03*
X208250000Y-86075000D03*
%TD*%
%TO.C,R10*%
X80750000Y-106425000D03*
X80750000Y-108075000D03*
%TD*%
D14*
%TO.C,C206*%
X323250000Y-124475000D03*
X323250000Y-126025000D03*
%TD*%
D12*
%TO.C,C195*%
X353750000Y-180000000D03*
X352200000Y-180000000D03*
%TD*%
D13*
%TO.C,R100*%
X392750000Y-124425000D03*
X392750000Y-126075000D03*
%TD*%
D16*
%TO.C,U15*%
X369555000Y-72362200D03*
X370825000Y-72362200D03*
X372095000Y-72362200D03*
X373365000Y-72362200D03*
X374635000Y-72362200D03*
X375905000Y-72362200D03*
X377175000Y-72362200D03*
X378445000Y-72362200D03*
X378445000Y-67637800D03*
X377175000Y-67637800D03*
X375905000Y-67637800D03*
X374635000Y-67637800D03*
X373365000Y-67637800D03*
X372095000Y-67637800D03*
X370825000Y-67637800D03*
X369555000Y-67637800D03*
%TD*%
D14*
%TO.C,C199*%
X286250000Y-106475000D03*
X286250000Y-108025000D03*
%TD*%
D12*
%TO.C,C183*%
X265775000Y-108000000D03*
X264225000Y-108000000D03*
%TD*%
D14*
%TO.C,C139*%
X188250000Y-160475000D03*
X188250000Y-162025000D03*
%TD*%
D12*
%TO.C,C245*%
X424775000Y-126000000D03*
X423225000Y-126000000D03*
%TD*%
%TO.C,C219*%
X390775000Y-108000000D03*
X389225000Y-108000000D03*
%TD*%
D14*
%TO.C,C118*%
X184225000Y-106475000D03*
X184225000Y-108025000D03*
%TD*%
D13*
%TO.C,R98*%
X392750000Y-106425000D03*
X392750000Y-108075000D03*
%TD*%
D12*
%TO.C,C125*%
X201750000Y-162000000D03*
X200200000Y-162000000D03*
%TD*%
D14*
%TO.C,C209*%
X340250000Y-178475000D03*
X340250000Y-180025000D03*
%TD*%
D13*
%TO.C,R20*%
X131750000Y-106425000D03*
X131750000Y-108075000D03*
%TD*%
%TO.C,R79*%
X276250000Y-124425000D03*
X276250000Y-126075000D03*
%TD*%
D14*
%TO.C,C55*%
X107250000Y-178475000D03*
X107250000Y-180025000D03*
%TD*%
D13*
%TO.C,R85*%
X321750000Y-124425000D03*
X321750000Y-126075000D03*
%TD*%
D14*
%TO.C,C83*%
X141750000Y-124475000D03*
X141750000Y-126025000D03*
%TD*%
%TO.C,C173*%
X265250000Y-142475000D03*
X265250000Y-144025000D03*
%TD*%
D13*
%TO.C,R68*%
X254750000Y-160425000D03*
X254750000Y-162075000D03*
%TD*%
%TO.C,R4*%
X63750000Y-124425000D03*
X63750000Y-126075000D03*
%TD*%
D14*
%TO.C,C152*%
X243750000Y-124475000D03*
X243750000Y-126025000D03*
%TD*%
D12*
%TO.C,C130*%
X172275000Y-86000000D03*
X170725000Y-86000000D03*
%TD*%
D11*
%TO.C,U120*%
X372049999Y-178308100D03*
X373950001Y-178308100D03*
X373000000Y-175691900D03*
%TD*%
D14*
%TO.C,C85*%
X146250000Y-142475000D03*
X146250000Y-144025000D03*
%TD*%
D13*
%TO.C,R50*%
X174250000Y-66425000D03*
X174250000Y-68075000D03*
%TD*%
D11*
%TO.C,U71*%
X204549999Y-84308100D03*
X206450001Y-84308100D03*
X205500000Y-81691900D03*
%TD*%
D13*
%TO.C,R45*%
X208250000Y-124425000D03*
X208250000Y-126075000D03*
%TD*%
D12*
%TO.C,C193*%
X319775000Y-180000000D03*
X318225000Y-180000000D03*
%TD*%
%TO.C,C102*%
X167775000Y-162000000D03*
X166225000Y-162000000D03*
%TD*%
D11*
%TO.C,U118*%
X372049999Y-160308100D03*
X373950001Y-160308100D03*
X373000000Y-157691900D03*
%TD*%
%TO.C,U61*%
X192049999Y-142308100D03*
X193950001Y-142308100D03*
X193000000Y-139691900D03*
%TD*%
D13*
%TO.C,R113*%
X409750000Y-178425000D03*
X409750000Y-180075000D03*
%TD*%
D12*
%TO.C,C167*%
X248775000Y-108000000D03*
X247225000Y-108000000D03*
%TD*%
D11*
%TO.C,U125*%
X406049999Y-142308100D03*
X407950001Y-142308100D03*
X407000000Y-139691900D03*
%TD*%
D14*
%TO.C,C121*%
X209750000Y-124475000D03*
X209750000Y-126025000D03*
%TD*%
D11*
%TO.C,U117*%
X389049999Y-142308100D03*
X390950001Y-142308100D03*
X390000000Y-139691900D03*
%TD*%
D14*
%TO.C,C180*%
X252250000Y-84475000D03*
X252250000Y-86025000D03*
%TD*%
D11*
%TO.C,U62*%
X209049999Y-142308100D03*
X210950001Y-142308100D03*
X210000000Y-139691900D03*
%TD*%
D14*
%TO.C,C202*%
X283250000Y-142475000D03*
X283250000Y-144025000D03*
%TD*%
D12*
%TO.C,C73*%
X112775000Y-68000000D03*
X111225000Y-68000000D03*
%TD*%
D19*
%TO.C,C15*%
X357500000Y-56000000D03*
X359050000Y-56000000D03*
%TD*%
D12*
%TO.C,C75*%
X146775000Y-68000000D03*
X145225000Y-68000000D03*
%TD*%
D14*
%TO.C,C238*%
X394250000Y-142475000D03*
X394250000Y-144025000D03*
%TD*%
D13*
%TO.C,R63*%
X246750000Y-142425000D03*
X246750000Y-144075000D03*
%TD*%
%TO.C,R23*%
X127750000Y-142425000D03*
X127750000Y-144075000D03*
%TD*%
D12*
%TO.C,C65*%
X112775000Y-108000000D03*
X111225000Y-108000000D03*
%TD*%
%TO.C,C189*%
X299775000Y-86000000D03*
X298225000Y-86000000D03*
%TD*%
D11*
%TO.C,U38*%
X124049999Y-142308100D03*
X125950001Y-142308100D03*
X125000000Y-139691900D03*
%TD*%
D14*
%TO.C,C59*%
X95250000Y-142475000D03*
X95250000Y-144025000D03*
%TD*%
D13*
%TO.C,R47*%
X212750000Y-142425000D03*
X212750000Y-144075000D03*
%TD*%
D14*
%TO.C,C60*%
X112250000Y-142500000D03*
X112250000Y-144050000D03*
%TD*%
D12*
%TO.C,C133*%
X223275000Y-86000000D03*
X221725000Y-86000000D03*
%TD*%
D11*
%TO.C,U43*%
X128049999Y-66308100D03*
X129950001Y-66308100D03*
X129000000Y-63691900D03*
%TD*%
%TO.C,U46*%
X111049999Y-84308100D03*
X112950001Y-84308100D03*
X112000000Y-81691900D03*
%TD*%
D14*
%TO.C,C175*%
X273250000Y-160475000D03*
X273250000Y-162025000D03*
%TD*%
D12*
%TO.C,C164*%
X288775000Y-180000000D03*
X287225000Y-180000000D03*
%TD*%
D13*
%TO.C,R27*%
X114750000Y-66425000D03*
X114750000Y-68075000D03*
%TD*%
%TO.C,R62*%
X229750000Y-142425000D03*
X229750000Y-144075000D03*
%TD*%
D14*
%TO.C,C251*%
X411250000Y-124475000D03*
X411250000Y-126025000D03*
%TD*%
D11*
%TO.C,U77*%
X226049999Y-142308100D03*
X227950001Y-142308100D03*
X227000000Y-139691900D03*
%TD*%
D12*
%TO.C,C26*%
X334750000Y-45500000D03*
X333200000Y-45500000D03*
%TD*%
D20*
%TO.C,FB1*%
X391500000Y-75787500D03*
X391500000Y-74212500D03*
%TD*%
D12*
%TO.C,C248*%
X424775000Y-162000000D03*
X423225000Y-162000000D03*
%TD*%
%TO.C,C43*%
X104275000Y-126000000D03*
X102725000Y-126000000D03*
%TD*%
D11*
%TO.C,U95*%
X289549999Y-124308100D03*
X291450001Y-124308100D03*
X290500000Y-121691900D03*
%TD*%
D13*
%TO.C,R34*%
X148750000Y-106425000D03*
X148750000Y-108075000D03*
%TD*%
D11*
%TO.C,U74*%
X230049999Y-106308100D03*
X231950001Y-106308100D03*
X231000000Y-103691900D03*
%TD*%
D13*
%TO.C,R39*%
X178750000Y-142425000D03*
X178750000Y-144075000D03*
%TD*%
D14*
%TO.C,C178*%
X271250000Y-178475000D03*
X271250000Y-180025000D03*
%TD*%
D11*
%TO.C,U114*%
X372049999Y-124308100D03*
X373950001Y-124308100D03*
X373000000Y-121691900D03*
%TD*%
D14*
%TO.C,C176*%
X229250000Y-178475000D03*
X229250000Y-180025000D03*
%TD*%
D16*
%TO.C,U3*%
X117555000Y-52362200D03*
X118825000Y-52362200D03*
X120095000Y-52362200D03*
X121365000Y-52362200D03*
X122635000Y-52362200D03*
X123905000Y-52362200D03*
X125175000Y-52362200D03*
X126445000Y-52362200D03*
X126445000Y-47637800D03*
X125175000Y-47637800D03*
X123905000Y-47637800D03*
X122635000Y-47637800D03*
X121365000Y-47637800D03*
X120095000Y-47637800D03*
X118825000Y-47637800D03*
X117555000Y-47637800D03*
%TD*%
D15*
%TO.C,C8*%
X140000000Y-47000000D03*
X140000000Y-45450000D03*
%TD*%
D13*
%TO.C,R38*%
X161750000Y-142425000D03*
X161750000Y-144075000D03*
%TD*%
D12*
%TO.C,C22*%
X287000000Y-45500000D03*
X285450000Y-45500000D03*
%TD*%
D11*
%TO.C,U116*%
X372049999Y-142308100D03*
X373950001Y-142308100D03*
X373000000Y-139691900D03*
%TD*%
D13*
%TO.C,R87*%
X321750000Y-178425000D03*
X321750000Y-180075000D03*
%TD*%
D15*
%TO.C,C9*%
X168500000Y-45550000D03*
X168500000Y-44000000D03*
%TD*%
D13*
%TO.C,R70*%
X227750000Y-178425000D03*
X227750000Y-180075000D03*
%TD*%
%TO.C,R80*%
X293250000Y-124425000D03*
X293250000Y-126075000D03*
%TD*%
%TO.C,R105*%
X375750000Y-178425000D03*
X375750000Y-180075000D03*
%TD*%
D11*
%TO.C,U96*%
X278049999Y-142308100D03*
X279950001Y-142308100D03*
X279000000Y-139691900D03*
%TD*%
D15*
%TO.C,C30*%
X407000000Y-65525000D03*
X407000000Y-63975000D03*
%TD*%
D14*
%TO.C,C233*%
X377250000Y-106475000D03*
X377250000Y-108025000D03*
%TD*%
D11*
%TO.C,U110*%
X335049999Y-124308100D03*
X336950001Y-124308100D03*
X336000000Y-121691900D03*
%TD*%
D14*
%TO.C,C207*%
X340250000Y-160475000D03*
X340250000Y-162025000D03*
%TD*%
%TO.C,C62*%
X120250000Y-160475000D03*
X120250000Y-162025000D03*
%TD*%
%TO.C,C169*%
X248250000Y-142475000D03*
X248250000Y-144025000D03*
%TD*%
%TO.C,C79*%
X99250000Y-106450000D03*
X99250000Y-108000000D03*
%TD*%
D16*
%TO.C,U11*%
X285555000Y-52362200D03*
X286825000Y-52362200D03*
X288095000Y-52362200D03*
X289365000Y-52362200D03*
X290635000Y-52362200D03*
X291905000Y-52362200D03*
X293175000Y-52362200D03*
X294445000Y-52362200D03*
X294445000Y-47637800D03*
X293175000Y-47637800D03*
X291905000Y-47637800D03*
X290635000Y-47637800D03*
X289365000Y-47637800D03*
X288095000Y-47637800D03*
X286825000Y-47637800D03*
X285555000Y-47637800D03*
%TD*%
D13*
%TO.C,R88*%
X338750000Y-178425000D03*
X338750000Y-180075000D03*
%TD*%
D12*
%TO.C,C160*%
X269775000Y-162000000D03*
X268225000Y-162000000D03*
%TD*%
D11*
%TO.C,U51*%
X153549999Y-124308100D03*
X155450001Y-124308100D03*
X154500000Y-121691900D03*
%TD*%
D14*
%TO.C,C168*%
X231250000Y-142475000D03*
X231250000Y-144025000D03*
%TD*%
D12*
%TO.C,C63*%
X124775000Y-180000000D03*
X123225000Y-180000000D03*
%TD*%
%TO.C,C24*%
X302000000Y-45500000D03*
X300450000Y-45500000D03*
%TD*%
D13*
%TO.C,R93*%
X338750000Y-106425000D03*
X338750000Y-108075000D03*
%TD*%
D11*
%TO.C,U59*%
X187549999Y-124308100D03*
X189450001Y-124308100D03*
X188500000Y-121691900D03*
%TD*%
D12*
%TO.C,C45*%
X108775000Y-144000000D03*
X107225000Y-144000000D03*
%TD*%
D11*
%TO.C,U54*%
X175049999Y-142308100D03*
X176950001Y-142308100D03*
X176000000Y-139691900D03*
%TD*%
D12*
%TO.C,C158*%
X261775000Y-144000000D03*
X260225000Y-144000000D03*
%TD*%
D14*
%TO.C,C205*%
X323250000Y-106475000D03*
X323250000Y-108025000D03*
%TD*%
%TO.C,C253*%
X411250000Y-142475000D03*
X411250000Y-144025000D03*
%TD*%
%TO.C,C204*%
X303250000Y-84475000D03*
X303250000Y-86025000D03*
%TD*%
D12*
%TO.C,C129*%
X223275000Y-68000000D03*
X221725000Y-68000000D03*
%TD*%
D14*
%TO.C,C114*%
X163250000Y-142475000D03*
X163250000Y-144025000D03*
%TD*%
%TO.C,C48*%
X65250000Y-84475000D03*
X65250000Y-86025000D03*
%TD*%
D13*
%TO.C,R78*%
X284750000Y-106425000D03*
X284750000Y-108075000D03*
%TD*%
%TO.C,R35*%
X165750000Y-106425000D03*
X165750000Y-108075000D03*
%TD*%
D11*
%TO.C,U82*%
X260049999Y-142308100D03*
X261950001Y-142308100D03*
X261000000Y-139691900D03*
%TD*%
D13*
%TO.C,R25*%
X135750000Y-160425000D03*
X135750000Y-162075000D03*
%TD*%
%TO.C,R51*%
X191250000Y-66425000D03*
X191250000Y-68075000D03*
%TD*%
D11*
%TO.C,U100*%
X318049999Y-124308100D03*
X319950001Y-124308100D03*
X319000000Y-121691900D03*
%TD*%
D12*
%TO.C,C135*%
X231750000Y-108000000D03*
X230200000Y-108000000D03*
%TD*%
D14*
%TO.C,C210*%
X357250000Y-178475000D03*
X357250000Y-180025000D03*
%TD*%
D12*
%TO.C,C25*%
X299000000Y-47000000D03*
X297450000Y-47000000D03*
%TD*%
D14*
%TO.C,C177*%
X250250000Y-178475000D03*
X250250000Y-180025000D03*
%TD*%
D12*
%TO.C,C42*%
X87275000Y-126000000D03*
X85725000Y-126000000D03*
%TD*%
D13*
%TO.C,R43*%
X199750000Y-106425000D03*
X199750000Y-108075000D03*
%TD*%
%TO.C,R103*%
X375750000Y-160425000D03*
X375750000Y-162075000D03*
%TD*%
D14*
%TO.C,C174*%
X256250000Y-160475000D03*
X256250000Y-162025000D03*
%TD*%
D12*
%TO.C,C98*%
X172275000Y-126000000D03*
X170725000Y-126000000D03*
%TD*%
D11*
%TO.C,U123*%
X406049999Y-124308100D03*
X407950001Y-124308100D03*
X407000000Y-121691900D03*
%TD*%
D12*
%TO.C,C106*%
X206275000Y-126000000D03*
X204725000Y-126000000D03*
%TD*%
D11*
%TO.C,U98*%
X298049999Y-84308100D03*
X299950001Y-84308100D03*
X299000000Y-81691900D03*
%TD*%
D16*
%TO.C,U4*%
X141555000Y-52362200D03*
X142825000Y-52362200D03*
X144095000Y-52362200D03*
X145365000Y-52362200D03*
X146635000Y-52362200D03*
X147905000Y-52362200D03*
X149175000Y-52362200D03*
X150445000Y-52362200D03*
X150445000Y-47637800D03*
X149175000Y-47637800D03*
X147905000Y-47637800D03*
X146635000Y-47637800D03*
X145365000Y-47637800D03*
X144095000Y-47637800D03*
X142825000Y-47637800D03*
X141555000Y-47637800D03*
%TD*%
D11*
%TO.C,U47*%
X128049999Y-84308100D03*
X129950001Y-84308100D03*
X129000000Y-81691900D03*
%TD*%
%TO.C,U83*%
X251049999Y-160308100D03*
X252950001Y-160308100D03*
X252000000Y-157691900D03*
%TD*%
D13*
%TO.C,R44*%
X191250000Y-124425000D03*
X191250000Y-126075000D03*
%TD*%
D14*
%TO.C,C113*%
X175750000Y-124475000D03*
X175750000Y-126025000D03*
%TD*%
D21*
%TO.C,R1*%
X429175000Y-50000000D03*
X430825000Y-50000000D03*
%TD*%
D13*
%TO.C,R108*%
X409750000Y-124425000D03*
X409750000Y-126075000D03*
%TD*%
D11*
%TO.C,U21*%
X60049999Y-160308100D03*
X61950001Y-160308100D03*
X61000000Y-157691900D03*
%TD*%
D12*
%TO.C,C33*%
X61775000Y-86000000D03*
X60225000Y-86000000D03*
%TD*%
D11*
%TO.C,U72*%
X221549999Y-84308100D03*
X223450001Y-84308100D03*
X222500000Y-81691900D03*
%TD*%
D13*
%TO.C,R89*%
X355750000Y-178425000D03*
X355750000Y-180075000D03*
%TD*%
D11*
%TO.C,U127*%
X423049999Y-160308100D03*
X424950001Y-160308100D03*
X424000000Y-157691900D03*
%TD*%
%TO.C,U128*%
X406049999Y-178308100D03*
X407950001Y-178308100D03*
X407000000Y-175691900D03*
%TD*%
%TO.C,U45*%
X94049999Y-84308100D03*
X95950001Y-84308100D03*
X95000000Y-81691900D03*
%TD*%
%TO.C,U94*%
X272549999Y-124308100D03*
X274450001Y-124308100D03*
X273500000Y-121691900D03*
%TD*%
D13*
%TO.C,R84*%
X321750000Y-106425000D03*
X321750000Y-108075000D03*
%TD*%
D14*
%TO.C,C58*%
X107750000Y-124475000D03*
X107750000Y-126025000D03*
%TD*%
D11*
%TO.C,U121*%
X406049999Y-106308100D03*
X407950001Y-106308100D03*
X407000000Y-103691900D03*
%TD*%
%TO.C,U50*%
X162049999Y-106308100D03*
X163950001Y-106308100D03*
X163000000Y-103691900D03*
%TD*%
D12*
%TO.C,C27*%
X331750000Y-47000000D03*
X330200000Y-47000000D03*
%TD*%
D13*
%TO.C,R73*%
X290750000Y-178425000D03*
X290750000Y-180075000D03*
%TD*%
D16*
%TO.C,U2*%
X90555000Y-52362200D03*
X91825000Y-52362200D03*
X93095000Y-52362200D03*
X94365000Y-52362200D03*
X95635000Y-52362200D03*
X96905000Y-52362200D03*
X98175000Y-52362200D03*
X99445000Y-52362200D03*
X99445000Y-47637800D03*
X98175000Y-47637800D03*
X96905000Y-47637800D03*
X95635000Y-47637800D03*
X94365000Y-47637800D03*
X93095000Y-47637800D03*
X91825000Y-47637800D03*
X90555000Y-47637800D03*
%TD*%
%TO.C,U1*%
X70555000Y-52362200D03*
X71825000Y-52362200D03*
X73095000Y-52362200D03*
X74365000Y-52362200D03*
X75635000Y-52362200D03*
X76905000Y-52362200D03*
X78175000Y-52362200D03*
X79445000Y-52362200D03*
X79445000Y-47637800D03*
X78175000Y-47637800D03*
X76905000Y-47637800D03*
X75635000Y-47637800D03*
X74365000Y-47637800D03*
X73095000Y-47637800D03*
X71825000Y-47637800D03*
X70555000Y-47637800D03*
%TD*%
D13*
%TO.C,R69*%
X271750000Y-160425000D03*
X271750000Y-162075000D03*
%TD*%
D11*
%TO.C,U109*%
X352049999Y-106308100D03*
X353950001Y-106308100D03*
X353000000Y-103691900D03*
%TD*%
D13*
%TO.C,R64*%
X220750000Y-160425000D03*
X220750000Y-162075000D03*
%TD*%
D11*
%TO.C,U58*%
X196049999Y-106308100D03*
X197950001Y-106308100D03*
X197000000Y-103691900D03*
%TD*%
%TO.C,U92*%
X264049999Y-106308100D03*
X265950001Y-106308100D03*
X265000000Y-103691900D03*
%TD*%
D14*
%TO.C,C120*%
X192750000Y-124475000D03*
X192750000Y-126025000D03*
%TD*%
D12*
%TO.C,C225*%
X390750000Y-162000000D03*
X389200000Y-162000000D03*
%TD*%
D14*
%TO.C,C141*%
X175750000Y-66475000D03*
X175750000Y-68025000D03*
%TD*%
D12*
%TO.C,C227*%
X407750000Y-108000000D03*
X406200000Y-108000000D03*
%TD*%
D11*
%TO.C,U124*%
X423049999Y-124308100D03*
X424950001Y-124308100D03*
X424000000Y-121691900D03*
%TD*%
%TO.C,U108*%
X335049999Y-106308100D03*
X336950001Y-106308100D03*
X336000000Y-103691900D03*
%TD*%
D12*
%TO.C,C126*%
X172275000Y-68000000D03*
X170725000Y-68000000D03*
%TD*%
%TO.C,C76*%
X95775000Y-86000000D03*
X94225000Y-86000000D03*
%TD*%
%TO.C,C161*%
X225750000Y-180000000D03*
X224200000Y-180000000D03*
%TD*%
D14*
%TO.C,C82*%
X124750000Y-124475000D03*
X124750000Y-126025000D03*
%TD*%
D15*
%TO.C,C29*%
X367750000Y-67025000D03*
X367750000Y-65475000D03*
%TD*%
D12*
%TO.C,C131*%
X189275000Y-86000000D03*
X187725000Y-86000000D03*
%TD*%
D11*
%TO.C,U99*%
X318049999Y-106308100D03*
X319950001Y-106308100D03*
X319000000Y-103691900D03*
%TD*%
D16*
%TO.C,U10*%
X230555000Y-52362200D03*
X231825000Y-52362200D03*
X233095000Y-52362200D03*
X234365000Y-52362200D03*
X235635000Y-52362200D03*
X236905000Y-52362200D03*
X238175000Y-52362200D03*
X239445000Y-52362200D03*
X239445000Y-47637800D03*
X238175000Y-47637800D03*
X236905000Y-47637800D03*
X235635000Y-47637800D03*
X234365000Y-47637800D03*
X233095000Y-47637800D03*
X231825000Y-47637800D03*
X230555000Y-47637800D03*
%TD*%
D14*
%TO.C,C170*%
X222250000Y-160475000D03*
X222250000Y-162025000D03*
%TD*%
D12*
%TO.C,C70*%
X142775000Y-144000000D03*
X141225000Y-144000000D03*
%TD*%
%TO.C,C197*%
X336775000Y-86000000D03*
X335225000Y-86000000D03*
%TD*%
D15*
%TO.C,C7*%
X143000000Y-45525000D03*
X143000000Y-43975000D03*
%TD*%
D11*
%TO.C,U57*%
X179049999Y-106308100D03*
X180950001Y-106308100D03*
X180000000Y-103691900D03*
%TD*%
%TO.C,U64*%
X200049999Y-160308100D03*
X201950001Y-160308100D03*
X201000000Y-157691900D03*
%TD*%
D14*
%TO.C,C91*%
X99250000Y-84475000D03*
X99250000Y-86025000D03*
%TD*%
D12*
%TO.C,C46*%
X99775000Y-162000000D03*
X98225000Y-162000000D03*
%TD*%
D15*
%TO.C,C18*%
X231750000Y-45550000D03*
X231750000Y-44000000D03*
%TD*%
D11*
%TO.C,U30*%
X98049999Y-160308100D03*
X99950001Y-160308100D03*
X99000000Y-157691900D03*
%TD*%
D12*
%TO.C,C64*%
X95775000Y-108000000D03*
X94225000Y-108000000D03*
%TD*%
D13*
%TO.C,R109*%
X426750000Y-124425000D03*
X426750000Y-126075000D03*
%TD*%
D14*
%TO.C,C241*%
X377250000Y-178475000D03*
X377250000Y-180025000D03*
%TD*%
D13*
%TO.C,R11*%
X89250000Y-124425000D03*
X89250000Y-126075000D03*
%TD*%
%TO.C,R61*%
X242250000Y-124425000D03*
X242250000Y-126075000D03*
%TD*%
D12*
%TO.C,C187*%
X279775000Y-144000000D03*
X278225000Y-144000000D03*
%TD*%
D13*
%TO.C,R83*%
X301750000Y-84425000D03*
X301750000Y-86075000D03*
%TD*%
D12*
%TO.C,C68*%
X138275000Y-126000000D03*
X136725000Y-126000000D03*
%TD*%
D14*
%TO.C,C229*%
X340250000Y-106475000D03*
X340250000Y-108025000D03*
%TD*%
%TO.C,C116*%
X154250000Y-160475000D03*
X154250000Y-162025000D03*
%TD*%
D15*
%TO.C,C12*%
X183750000Y-47000000D03*
X183750000Y-45450000D03*
%TD*%
D11*
%TO.C,U17*%
X60049999Y-84308100D03*
X61950001Y-84308100D03*
X61000000Y-81691900D03*
%TD*%
D12*
%TO.C,C156*%
X235775000Y-162000000D03*
X234225000Y-162000000D03*
%TD*%
D11*
%TO.C,U97*%
X281049999Y-84308100D03*
X282950001Y-84308100D03*
X282000000Y-81691900D03*
%TD*%
%TO.C,U103*%
X335049999Y-178308100D03*
X336950001Y-178308100D03*
X336000000Y-175691900D03*
%TD*%
D14*
%TO.C,C242*%
X411250000Y-106475000D03*
X411250000Y-108025000D03*
%TD*%
D11*
%TO.C,U23*%
X81049999Y-178308100D03*
X82950001Y-178308100D03*
X82000000Y-175691900D03*
%TD*%
D14*
%TO.C,C232*%
X357250000Y-124475000D03*
X357250000Y-126025000D03*
%TD*%
D12*
%TO.C,C247*%
X407775000Y-162025000D03*
X406225000Y-162025000D03*
%TD*%
D11*
%TO.C,U91*%
X247049999Y-106308100D03*
X248950001Y-106308100D03*
X248000000Y-103691900D03*
%TD*%
D14*
%TO.C,C240*%
X394250000Y-160475000D03*
X394250000Y-162025000D03*
%TD*%
%TO.C,C228*%
X357250000Y-84475000D03*
X357250000Y-86025000D03*
%TD*%
D12*
%TO.C,C71*%
X133800000Y-162000000D03*
X132250000Y-162000000D03*
%TD*%
D11*
%TO.C,U19*%
X60049999Y-124308100D03*
X61950001Y-124308100D03*
X61000000Y-121691900D03*
%TD*%
D12*
%TO.C,C23*%
X283750000Y-47000000D03*
X282200000Y-47000000D03*
%TD*%
D13*
%TO.C,R26*%
X97750000Y-66425000D03*
X97750000Y-68075000D03*
%TD*%
D12*
%TO.C,C155*%
X218775000Y-162000000D03*
X217225000Y-162000000D03*
%TD*%
D15*
%TO.C,C19*%
X229000000Y-46975000D03*
X229000000Y-45425000D03*
%TD*%
D14*
%TO.C,C54*%
X86250000Y-178475000D03*
X86250000Y-180025000D03*
%TD*%
D12*
%TO.C,C35*%
X61775000Y-126000000D03*
X60225000Y-126000000D03*
%TD*%
D11*
%TO.C,U105*%
X318049999Y-84308100D03*
X319950001Y-84308100D03*
X319000000Y-81691900D03*
%TD*%
D13*
%TO.C,R40*%
X152750000Y-160425000D03*
X152750000Y-162075000D03*
%TD*%
D11*
%TO.C,U107*%
X352049999Y-84308100D03*
X353950001Y-84308100D03*
X353000000Y-81691900D03*
%TD*%
D12*
%TO.C,C105*%
X189275000Y-126000000D03*
X187725000Y-126000000D03*
%TD*%
%TO.C,C77*%
X112775000Y-86000000D03*
X111225000Y-86000000D03*
%TD*%
D11*
%TO.C,U112*%
X372049999Y-106308100D03*
X373950001Y-106308100D03*
X373000000Y-103691900D03*
%TD*%
D13*
%TO.C,R48*%
X186750000Y-160425000D03*
X186750000Y-162075000D03*
%TD*%
D12*
%TO.C,C21*%
X259000000Y-47000000D03*
X257450000Y-47000000D03*
%TD*%
D14*
%TO.C,C117*%
X171250000Y-160475000D03*
X171250000Y-162025000D03*
%TD*%
%TO.C,C89*%
X131650000Y-66475000D03*
X131650000Y-68025000D03*
%TD*%
D12*
%TO.C,C96*%
X163775000Y-108000000D03*
X162225000Y-108000000D03*
%TD*%
%TO.C,C184*%
X282775000Y-108000000D03*
X281225000Y-108000000D03*
%TD*%
D14*
%TO.C,C171*%
X239250000Y-160475000D03*
X239250000Y-162025000D03*
%TD*%
D15*
%TO.C,C14*%
X205400000Y-47025000D03*
X205400000Y-45475000D03*
%TD*%
D14*
%TO.C,C110*%
X150250000Y-106475000D03*
X150250000Y-108025000D03*
%TD*%
D12*
%TO.C,C196*%
X319775000Y-86000000D03*
X318225000Y-86000000D03*
%TD*%
D14*
%TO.C,C142*%
X192750000Y-66475000D03*
X192750000Y-68025000D03*
%TD*%
D11*
%TO.C,U89*%
X247049999Y-84308100D03*
X248950001Y-84308100D03*
X248000000Y-81691900D03*
%TD*%
%TO.C,U22*%
X60049999Y-178308100D03*
X61950001Y-178308100D03*
X61000000Y-175691900D03*
%TD*%
%TO.C,U33*%
X94049999Y-106308100D03*
X95950001Y-106308100D03*
X95000000Y-103691900D03*
%TD*%
D12*
%TO.C,C134*%
X214775000Y-108000000D03*
X213225000Y-108000000D03*
%TD*%
%TO.C,C39*%
X82775000Y-180000000D03*
X81225000Y-180000000D03*
%TD*%
%TO.C,C38*%
X61775000Y-180000000D03*
X60225000Y-180000000D03*
%TD*%
D14*
%TO.C,C90*%
X150250000Y-66475000D03*
X150250000Y-68025000D03*
%TD*%
D11*
%TO.C,U48*%
X145049999Y-84308100D03*
X146950001Y-84308100D03*
X146000000Y-81691900D03*
%TD*%
D13*
%TO.C,R42*%
X182750000Y-106425000D03*
X182750000Y-108075000D03*
%TD*%
D11*
%TO.C,U80*%
X234049999Y-160308100D03*
X235950001Y-160308100D03*
X235000000Y-157691900D03*
%TD*%
D16*
%TO.C,U13*%
X300555000Y-52362200D03*
X301825000Y-52362200D03*
X303095000Y-52362200D03*
X304365000Y-52362200D03*
X305635000Y-52362200D03*
X306905000Y-52362200D03*
X308175000Y-52362200D03*
X309445000Y-52362200D03*
X309445000Y-47637800D03*
X308175000Y-47637800D03*
X306905000Y-47637800D03*
X305635000Y-47637800D03*
X304365000Y-47637800D03*
X303095000Y-47637800D03*
X301825000Y-47637800D03*
X300555000Y-47637800D03*
%TD*%
D12*
%TO.C,C94*%
X146750000Y-86000000D03*
X145200000Y-86000000D03*
%TD*%
D11*
%TO.C,U31*%
X115049999Y-160308100D03*
X116950001Y-160308100D03*
X116000000Y-157691900D03*
%TD*%
D12*
%TO.C,C72*%
X95775000Y-68000000D03*
X94225000Y-68000000D03*
%TD*%
D13*
%TO.C,R82*%
X284750000Y-84425000D03*
X284750000Y-86075000D03*
%TD*%
D14*
%TO.C,C151*%
X226750000Y-124475000D03*
X226750000Y-126025000D03*
%TD*%
D11*
%TO.C,U29*%
X107049999Y-142308100D03*
X108950001Y-142308100D03*
X108000000Y-139691900D03*
%TD*%
D14*
%TO.C,C235*%
X377250000Y-124475000D03*
X377250000Y-126025000D03*
%TD*%
D12*
%TO.C,C103*%
X180775000Y-108000000D03*
X179225000Y-108000000D03*
%TD*%
D13*
%TO.C,R9*%
X105750000Y-178425000D03*
X105750000Y-180075000D03*
%TD*%
D14*
%TO.C,C87*%
X99250000Y-66475000D03*
X99250000Y-68025000D03*
%TD*%
D15*
%TO.C,C4*%
X88750000Y-47025000D03*
X88750000Y-45475000D03*
%TD*%
D11*
%TO.C,U78*%
X243049999Y-142308100D03*
X244950001Y-142308100D03*
X244000000Y-139691900D03*
%TD*%
D12*
%TO.C,C40*%
X103775000Y-180000000D03*
X102225000Y-180000000D03*
%TD*%
D13*
%TO.C,R6*%
X63750000Y-160425000D03*
X63750000Y-162075000D03*
%TD*%
D12*
%TO.C,C194*%
X336750000Y-180000000D03*
X335200000Y-180000000D03*
%TD*%
%TO.C,C215*%
X353750000Y-108000000D03*
X352200000Y-108000000D03*
%TD*%
D13*
%TO.C,R37*%
X174250000Y-124425000D03*
X174250000Y-126075000D03*
%TD*%
%TO.C,R18*%
X97750000Y-106425000D03*
X97750000Y-108075000D03*
%TD*%
%TO.C,R55*%
X191250000Y-84425000D03*
X191250000Y-86075000D03*
%TD*%
D14*
%TO.C,C143*%
X209750000Y-66475000D03*
X209750000Y-68025000D03*
%TD*%
D11*
%TO.C,U65*%
X170549999Y-66308100D03*
X172450001Y-66308100D03*
X171500000Y-63691900D03*
%TD*%
D15*
%TO.C,C11*%
X187000000Y-45550000D03*
X187000000Y-44000000D03*
%TD*%
D11*
%TO.C,U76*%
X238549999Y-124308100D03*
X240450001Y-124308100D03*
X239500000Y-121691900D03*
%TD*%
D14*
%TO.C,C146*%
X192750000Y-84475000D03*
X192750000Y-86025000D03*
%TD*%
%TO.C,C179*%
X292250000Y-178475000D03*
X292250000Y-180025000D03*
%TD*%
%TO.C,C182*%
X252250000Y-106475000D03*
X252250000Y-108025000D03*
%TD*%
%TO.C,C50*%
X65250000Y-124475000D03*
X65250000Y-126025000D03*
%TD*%
D15*
%TO.C,C1*%
X72000000Y-45550000D03*
X72000000Y-44000000D03*
%TD*%
%TO.C,C28*%
X370750000Y-65550000D03*
X370750000Y-64000000D03*
%TD*%
D12*
%TO.C,C221*%
X390775000Y-126000000D03*
X389225000Y-126000000D03*
%TD*%
D14*
%TO.C,C203*%
X286250000Y-84475000D03*
X286250000Y-86025000D03*
%TD*%
%TO.C,C80*%
X116250000Y-106475000D03*
X116250000Y-108025000D03*
%TD*%
D11*
%TO.C,U119*%
X389049999Y-160308100D03*
X390950001Y-160308100D03*
X390000000Y-157691900D03*
%TD*%
D13*
%TO.C,R67*%
X263750000Y-142425000D03*
X263750000Y-144075000D03*
%TD*%
D12*
%TO.C,C99*%
X159775000Y-144000000D03*
X158225000Y-144000000D03*
%TD*%
%TO.C,C224*%
X373750000Y-162000000D03*
X372200000Y-162000000D03*
%TD*%
D14*
%TO.C,C211*%
X323250000Y-84475000D03*
X323250000Y-86025000D03*
%TD*%
%TO.C,C109*%
X150250000Y-84475000D03*
X150250000Y-86025000D03*
%TD*%
D13*
%TO.C,R102*%
X392750000Y-142425000D03*
X392750000Y-144075000D03*
%TD*%
D14*
%TO.C,C92*%
X116250000Y-84475000D03*
X116250000Y-86025000D03*
%TD*%
D13*
%TO.C,R90*%
X321750000Y-84425000D03*
X321750000Y-86075000D03*
%TD*%
D12*
%TO.C,C66*%
X129775000Y-108000000D03*
X128225000Y-108000000D03*
%TD*%
%TO.C,C162*%
X246775000Y-180000000D03*
X245225000Y-180000000D03*
%TD*%
%TO.C,C101*%
X150775000Y-162000000D03*
X149225000Y-162000000D03*
%TD*%
D13*
%TO.C,R86*%
X338750000Y-160425000D03*
X338750000Y-162075000D03*
%TD*%
D12*
%TO.C,C217*%
X353775000Y-126000000D03*
X352225000Y-126000000D03*
%TD*%
D13*
%TO.C,R107*%
X426750000Y-106425000D03*
X426750000Y-108075000D03*
%TD*%
D11*
%TO.C,U93*%
X281049999Y-106308100D03*
X282950001Y-106308100D03*
X282000000Y-103691900D03*
%TD*%
%TO.C,U85*%
X224049999Y-178308100D03*
X225950001Y-178308100D03*
X225000000Y-175691900D03*
%TD*%
D12*
%TO.C,C223*%
X390800000Y-144000000D03*
X389250000Y-144000000D03*
%TD*%
D11*
%TO.C,U42*%
X111049999Y-66308100D03*
X112950001Y-66308100D03*
X112000000Y-63691900D03*
%TD*%
D15*
%TO.C,C6*%
X116000000Y-47025000D03*
X116000000Y-45475000D03*
%TD*%
D14*
%TO.C,C122*%
X197250000Y-142475000D03*
X197250000Y-144025000D03*
%TD*%
D11*
%TO.C,U56*%
X166049999Y-160308100D03*
X167950001Y-160308100D03*
X167000000Y-157691900D03*
%TD*%
D12*
%TO.C,C95*%
X146750000Y-108000000D03*
X145200000Y-108000000D03*
%TD*%
%TO.C,C213*%
X353800000Y-86000000D03*
X352250000Y-86000000D03*
%TD*%
D14*
%TO.C,C148*%
X226750000Y-84475000D03*
X226750000Y-86025000D03*
%TD*%
D12*
%TO.C,C243*%
X424775000Y-108000000D03*
X423225000Y-108000000D03*
%TD*%
%TO.C,C67*%
X121275000Y-126000000D03*
X119725000Y-126000000D03*
%TD*%
D13*
%TO.C,R7*%
X63750000Y-178425000D03*
X63750000Y-180075000D03*
%TD*%
D12*
%TO.C,C185*%
X274275000Y-126000000D03*
X272725000Y-126000000D03*
%TD*%
D13*
%TO.C,R33*%
X148750000Y-84425000D03*
X148750000Y-86075000D03*
%TD*%
D12*
%TO.C,C190*%
X319775000Y-108000000D03*
X318225000Y-108000000D03*
%TD*%
%TO.C,C104*%
X197750000Y-108000000D03*
X196200000Y-108000000D03*
%TD*%
D14*
%TO.C,C61*%
X103250000Y-160500000D03*
X103250000Y-162050000D03*
%TD*%
D13*
%TO.C,R54*%
X174250000Y-84425000D03*
X174250000Y-86075000D03*
%TD*%
D11*
%TO.C,U113*%
X389049999Y-106308100D03*
X390950001Y-106308100D03*
X390000000Y-103691900D03*
%TD*%
D13*
%TO.C,R76*%
X250750000Y-106425000D03*
X250750000Y-108075000D03*
%TD*%
%TO.C,R58*%
X216750000Y-106425000D03*
X216750000Y-108075000D03*
%TD*%
D14*
%TO.C,C145*%
X175750000Y-84475000D03*
X175750000Y-86025000D03*
%TD*%
D11*
%TO.C,U67*%
X204549999Y-66308100D03*
X206450001Y-66308100D03*
X205500000Y-63691900D03*
%TD*%
D12*
%TO.C,C97*%
X155275000Y-126000000D03*
X153725000Y-126000000D03*
%TD*%
D13*
%TO.C,R94*%
X355750000Y-106425000D03*
X355750000Y-108075000D03*
%TD*%
D11*
%TO.C,U86*%
X245049999Y-178308100D03*
X246950001Y-178308100D03*
X246000000Y-175691900D03*
%TD*%
D12*
%TO.C,C214*%
X336750000Y-108000000D03*
X335200000Y-108000000D03*
%TD*%
D13*
%TO.C,R66*%
X259250000Y-124425000D03*
X259250000Y-126075000D03*
%TD*%
D14*
%TO.C,C78*%
X128250000Y-178475000D03*
X128250000Y-180025000D03*
%TD*%
D13*
%TO.C,R111*%
X409750000Y-160425000D03*
X409750000Y-162075000D03*
%TD*%
D14*
%TO.C,C212*%
X340250000Y-84475000D03*
X340250000Y-86025000D03*
%TD*%
D11*
%TO.C,U122*%
X423049999Y-106308100D03*
X424950001Y-106308100D03*
X424000000Y-103691900D03*
%TD*%
D12*
%TO.C,C220*%
X373775000Y-126000000D03*
X372225000Y-126000000D03*
%TD*%
D14*
%TO.C,C56*%
X82250000Y-106475000D03*
X82250000Y-108025000D03*
%TD*%
D13*
%TO.C,R71*%
X248750000Y-178425000D03*
X248750000Y-180075000D03*
%TD*%
D15*
%TO.C,C2*%
X68750000Y-47000000D03*
X68750000Y-45450000D03*
%TD*%
D13*
%TO.C,R30*%
X97750000Y-84425000D03*
X97750000Y-86075000D03*
%TD*%
D14*
%TO.C,C51*%
X65250000Y-142475000D03*
X65250000Y-144025000D03*
%TD*%
D13*
%TO.C,R21*%
X123250000Y-124425000D03*
X123250000Y-126075000D03*
%TD*%
D14*
%TO.C,C200*%
X277750000Y-124475000D03*
X277750000Y-126025000D03*
%TD*%
%TO.C,C239*%
X377250000Y-160475000D03*
X377250000Y-162025000D03*
%TD*%
D15*
%TO.C,C5*%
X118750000Y-45525000D03*
X118750000Y-43975000D03*
%TD*%
D13*
%TO.C,R22*%
X140250000Y-124425000D03*
X140250000Y-126075000D03*
%TD*%
D12*
%TO.C,C246*%
X407775000Y-144000000D03*
X406225000Y-144000000D03*
%TD*%
D13*
%TO.C,R99*%
X375750000Y-124425000D03*
X375750000Y-126075000D03*
%TD*%
D14*
%TO.C,C112*%
X158750000Y-124475000D03*
X158750000Y-126025000D03*
%TD*%
D13*
%TO.C,R19*%
X114750000Y-106425000D03*
X114750000Y-108075000D03*
%TD*%
%TO.C,R60*%
X225250000Y-124425000D03*
X225250000Y-126075000D03*
%TD*%
D11*
%TO.C,U27*%
X102549999Y-124308100D03*
X104450001Y-124308100D03*
X103500000Y-121691900D03*
%TD*%
D12*
%TO.C,C132*%
X206275000Y-86000000D03*
X204725000Y-86000000D03*
%TD*%
D14*
%TO.C,C230*%
X357250000Y-106475000D03*
X357250000Y-108025000D03*
%TD*%
D13*
%TO.C,R46*%
X195750000Y-142425000D03*
X195750000Y-144075000D03*
%TD*%
%TO.C,R74*%
X250750000Y-84425000D03*
X250750000Y-86075000D03*
%TD*%
%TO.C,R3*%
X63750000Y-106425000D03*
X63750000Y-108075000D03*
%TD*%
D19*
%TO.C,C16*%
X247450000Y-56000000D03*
X249000000Y-56000000D03*
%TD*%
D12*
%TO.C,C20*%
X262000000Y-45500000D03*
X260450000Y-45500000D03*
%TD*%
D13*
%TO.C,R29*%
X148750000Y-66425000D03*
X148750000Y-68075000D03*
%TD*%
%TO.C,R92*%
X355750000Y-84425000D03*
X355750000Y-86075000D03*
%TD*%
D11*
%TO.C,U49*%
X145049999Y-106308100D03*
X146950001Y-106308100D03*
X146000000Y-103691900D03*
%TD*%
D13*
%TO.C,R14*%
X110750000Y-142425000D03*
X110750000Y-144075000D03*
%TD*%
D12*
%TO.C,C44*%
X91775000Y-144000000D03*
X90225000Y-144000000D03*
%TD*%
D13*
%TO.C,R13*%
X93750000Y-142425000D03*
X93750000Y-144075000D03*
%TD*%
D11*
%TO.C,U55*%
X149049999Y-160308100D03*
X150950001Y-160308100D03*
X150000000Y-157691900D03*
%TD*%
D13*
%TO.C,R75*%
X267750000Y-84425000D03*
X267750000Y-86075000D03*
%TD*%
D12*
%TO.C,C166*%
X265750000Y-86000000D03*
X264200000Y-86000000D03*
%TD*%
%TO.C,C157*%
X257275000Y-126000000D03*
X255725000Y-126000000D03*
%TD*%
D22*
%TO.C,J1*%
X432000000Y-40000000D03*
D23*
X429460000Y-40000000D03*
X426920000Y-40000000D03*
X424380000Y-40000000D03*
X421840000Y-40000000D03*
X419300000Y-40000000D03*
X416760000Y-40000000D03*
X414220000Y-40000000D03*
X411680000Y-40000000D03*
X409140000Y-40000000D03*
%TD*%
M02*
