%TF.GenerationSoftware,KiCad,Pcbnew,8.0.0*%
%TF.CreationDate,2025-05-08T15:49:05+08:00*%
%TF.ProjectId,keyboard,6b657962-6f61-4726-942e-6b696361645f,1.0*%
%TF.SameCoordinates,Original*%
%TF.FileFunction,Paste,Top*%
%TF.FilePolarity,Positive*%
%FSLAX46Y46*%
G04 Gerber Fmt 4.6, Leading zero omitted, Abs format (unit mm)*
G04 Created by KiCad (PCBNEW 8.0.0) date 2025-05-08 15:49:05*
%MOMM*%
%LPD*%
G01*
G04 APERTURE LIST*
G04 Aperture macros list*
%AMRoundRect*
0 Rectangle with rounded corners*
0 $1 Rounding radius*
0 $2 $3 $4 $5 $6 $7 $8 $9 X,Y pos of 4 corners*
0 Add a 4 corners polygon primitive as box body*
4,1,4,$2,$3,$4,$5,$6,$7,$8,$9,$2,$3,0*
0 Add four circle primitives for the rounded corners*
1,1,$1+$1,$2,$3*
1,1,$1+$1,$4,$5*
1,1,$1+$1,$6,$7*
1,1,$1+$1,$8,$9*
0 Add four rect primitives between the rounded corners*
20,1,$1+$1,$2,$3,$4,$5,0*
20,1,$1+$1,$4,$5,$6,$7,0*
20,1,$1+$1,$6,$7,$8,$9,0*
20,1,$1+$1,$8,$9,$2,$3,0*%
G04 Aperture macros list end*
%ADD10R,0.558800X1.092200*%
%ADD11RoundRect,0.225000X0.225000X0.250000X-0.225000X0.250000X-0.225000X-0.250000X0.225000X-0.250000X0*%
%ADD12RoundRect,0.200000X-0.275000X0.200000X-0.275000X-0.200000X0.275000X-0.200000X0.275000X0.200000X0*%
%ADD13RoundRect,0.225000X-0.250000X0.225000X-0.250000X-0.225000X0.250000X-0.225000X0.250000X0.225000X0*%
%ADD14RoundRect,0.225000X0.250000X-0.225000X0.250000X0.225000X-0.250000X0.225000X-0.250000X-0.225000X0*%
%ADD15R,0.558800X1.981200*%
%ADD16O,1.250000X0.549999*%
%ADD17RoundRect,0.218750X-0.218750X-0.256250X0.218750X-0.256250X0.218750X0.256250X-0.218750X0.256250X0*%
%ADD18RoundRect,0.225000X-0.225000X-0.250000X0.225000X-0.250000X0.225000X0.250000X-0.225000X0.250000X0*%
%ADD19RoundRect,0.218750X0.256250X-0.218750X0.256250X0.218750X-0.256250X0.218750X-0.256250X-0.218750X0*%
%ADD20RoundRect,0.200000X-0.200000X-0.275000X0.200000X-0.275000X0.200000X0.275000X-0.200000X0.275000X0*%
G04 APERTURE END LIST*
D10*
%TO.C,U115*%
X389049999Y-124308100D03*
X390950001Y-124308100D03*
X390000000Y-121691900D03*
%TD*%
D11*
%TO.C,C222*%
X373775000Y-144000000D03*
X372225000Y-144000000D03*
%TD*%
D12*
%TO.C,R96*%
X355750000Y-124425000D03*
X355750000Y-126075000D03*
%TD*%
D11*
%TO.C,C93*%
X129775000Y-86000000D03*
X128225000Y-86000000D03*
%TD*%
D13*
%TO.C,C138*%
X214250000Y-142475000D03*
X214250000Y-144025000D03*
%TD*%
D10*
%TO.C,U106*%
X335049999Y-84308100D03*
X336950001Y-84308100D03*
X336000000Y-81691900D03*
%TD*%
D14*
%TO.C,C32*%
X254250000Y-49525000D03*
X254250000Y-47975000D03*
%TD*%
D10*
%TO.C,U26*%
X85549999Y-124308100D03*
X87450001Y-124308100D03*
X86500000Y-121691900D03*
%TD*%
D12*
%TO.C,R65*%
X237750000Y-160425000D03*
X237750000Y-162075000D03*
%TD*%
%TO.C,R49*%
X203750000Y-160425000D03*
X203750000Y-162075000D03*
%TD*%
D10*
%TO.C,U126*%
X406049999Y-160308100D03*
X407950001Y-160308100D03*
X407000000Y-157691900D03*
%TD*%
D13*
%TO.C,C57*%
X90750000Y-124475000D03*
X90750000Y-126025000D03*
%TD*%
D11*
%TO.C,C47*%
X116775000Y-162000000D03*
X115225000Y-162000000D03*
%TD*%
D12*
%TO.C,R106*%
X409750000Y-106425000D03*
X409750000Y-108075000D03*
%TD*%
%TO.C,R32*%
X131750000Y-84425000D03*
X131750000Y-86075000D03*
%TD*%
D10*
%TO.C,U40*%
X132049999Y-160308100D03*
X133950001Y-160308100D03*
X133000000Y-157691900D03*
%TD*%
D12*
%TO.C,R110*%
X409750000Y-142425000D03*
X409750000Y-144075000D03*
%TD*%
%TO.C,R24*%
X144750000Y-142425000D03*
X144750000Y-144075000D03*
%TD*%
D11*
%TO.C,C69*%
X125750000Y-144000000D03*
X124200000Y-144000000D03*
%TD*%
D10*
%TO.C,U73*%
X213049999Y-106308100D03*
X214950001Y-106308100D03*
X214000000Y-103691900D03*
%TD*%
D11*
%TO.C,C186*%
X291275000Y-126000000D03*
X289725000Y-126000000D03*
%TD*%
D10*
%TO.C,U20*%
X60049999Y-142308100D03*
X61950001Y-142308100D03*
X61000000Y-139691900D03*
%TD*%
%TO.C,U87*%
X266049999Y-178308100D03*
X267950001Y-178308100D03*
X267000000Y-175691900D03*
%TD*%
D15*
%TO.C,U6*%
X185555000Y-52362200D03*
X186825000Y-52362200D03*
X188095000Y-52362200D03*
X189365000Y-52362200D03*
X190635000Y-52362200D03*
X191905000Y-52362200D03*
X193175000Y-52362200D03*
X194445000Y-52362200D03*
X194445000Y-47637800D03*
X193175000Y-47637800D03*
X191905000Y-47637800D03*
X190635000Y-47637800D03*
X189365000Y-47637800D03*
X188095000Y-47637800D03*
X186825000Y-47637800D03*
X185555000Y-47637800D03*
%TD*%
D11*
%TO.C,C163*%
X267775000Y-180000000D03*
X266225000Y-180000000D03*
%TD*%
%TO.C,C154*%
X244775000Y-144000000D03*
X243225000Y-144000000D03*
%TD*%
D10*
%TO.C,U44*%
X145049999Y-66308100D03*
X146950001Y-66308100D03*
X146000000Y-63691900D03*
%TD*%
D13*
%TO.C,C111*%
X167250000Y-106475000D03*
X167250000Y-108025000D03*
%TD*%
D10*
%TO.C,U41*%
X94049999Y-66308100D03*
X95950001Y-66308100D03*
X95000000Y-63691900D03*
%TD*%
D16*
%TO.C,U8*%
X252625001Y-54445000D03*
X252625001Y-53175000D03*
X252625001Y-51905000D03*
X252625001Y-50635000D03*
X252625001Y-49365000D03*
X252625001Y-48095000D03*
X252625001Y-46825000D03*
X252625001Y-45555000D03*
X247375001Y-45555000D03*
X247375001Y-46825000D03*
X247375001Y-48095000D03*
X247375001Y-49365000D03*
X247375001Y-50635000D03*
X247375001Y-51905000D03*
X247375001Y-53175000D03*
X247375001Y-54445000D03*
%TD*%
D13*
%TO.C,C172*%
X260750000Y-124475000D03*
X260750000Y-126025000D03*
%TD*%
D12*
%TO.C,R72*%
X269750000Y-178425000D03*
X269750000Y-180075000D03*
%TD*%
D11*
%TO.C,C128*%
X206275000Y-68000000D03*
X204725000Y-68000000D03*
%TD*%
D13*
%TO.C,C150*%
X235250000Y-106475000D03*
X235250000Y-108025000D03*
%TD*%
%TO.C,C254*%
X411250000Y-160475000D03*
X411250000Y-162025000D03*
%TD*%
D16*
%TO.C,U9*%
X362625001Y-54445000D03*
X362625001Y-53175000D03*
X362625001Y-51905000D03*
X362625001Y-50635000D03*
X362625001Y-49365000D03*
X362625001Y-48095000D03*
X362625001Y-46825000D03*
X362625001Y-45555000D03*
X357375001Y-45555000D03*
X357375001Y-46825000D03*
X357375001Y-48095000D03*
X357375001Y-49365000D03*
X357375001Y-50635000D03*
X357375001Y-51905000D03*
X357375001Y-53175000D03*
X357375001Y-54445000D03*
%TD*%
D12*
%TO.C,R81*%
X281750000Y-142425000D03*
X281750000Y-144075000D03*
%TD*%
%TO.C,R104*%
X392750000Y-160425000D03*
X392750000Y-162075000D03*
%TD*%
D11*
%TO.C,C36*%
X61775000Y-144000000D03*
X60225000Y-144000000D03*
%TD*%
D15*
%TO.C,U12*%
X260555000Y-52362200D03*
X261825000Y-52362200D03*
X263095000Y-52362200D03*
X264365000Y-52362200D03*
X265635000Y-52362200D03*
X266905000Y-52362200D03*
X268175000Y-52362200D03*
X269445000Y-52362200D03*
X269445000Y-47637800D03*
X268175000Y-47637800D03*
X266905000Y-47637800D03*
X265635000Y-47637800D03*
X264365000Y-47637800D03*
X263095000Y-47637800D03*
X261825000Y-47637800D03*
X260555000Y-47637800D03*
%TD*%
D11*
%TO.C,C188*%
X282775000Y-86000000D03*
X281225000Y-86000000D03*
%TD*%
D10*
%TO.C,U25*%
X77049999Y-106308100D03*
X78950001Y-106308100D03*
X78000000Y-103691900D03*
%TD*%
D13*
%TO.C,C201*%
X294750000Y-124475000D03*
X294750000Y-126025000D03*
%TD*%
%TO.C,C53*%
X65250000Y-178475000D03*
X65250000Y-180025000D03*
%TD*%
D11*
%TO.C,C226*%
X373750000Y-180000000D03*
X372200000Y-180000000D03*
%TD*%
D13*
%TO.C,C149*%
X218250000Y-106475000D03*
X218250000Y-108025000D03*
%TD*%
%TO.C,C88*%
X116250000Y-66475000D03*
X116250000Y-68025000D03*
%TD*%
%TO.C,C208*%
X323250000Y-178475000D03*
X323250000Y-180025000D03*
%TD*%
D11*
%TO.C,C41*%
X78775000Y-108000000D03*
X77225000Y-108000000D03*
%TD*%
%TO.C,C107*%
X193750000Y-144000000D03*
X192200000Y-144000000D03*
%TD*%
D13*
%TO.C,C252*%
X428250000Y-124475000D03*
X428250000Y-126025000D03*
%TD*%
D14*
%TO.C,C31*%
X403750000Y-67000000D03*
X403750000Y-65450000D03*
%TD*%
D11*
%TO.C,C34*%
X61775000Y-108000000D03*
X60225000Y-108000000D03*
%TD*%
D12*
%TO.C,R57*%
X225250000Y-84425000D03*
X225250000Y-86075000D03*
%TD*%
D13*
%TO.C,C231*%
X340250000Y-124475000D03*
X340250000Y-126025000D03*
%TD*%
D11*
%TO.C,C136*%
X223275000Y-126000000D03*
X221725000Y-126000000D03*
%TD*%
%TO.C,C37*%
X61775000Y-162000000D03*
X60225000Y-162000000D03*
%TD*%
%TO.C,C192*%
X336775000Y-162000000D03*
X335225000Y-162000000D03*
%TD*%
D13*
%TO.C,C81*%
X133250000Y-106475000D03*
X133250000Y-108025000D03*
%TD*%
D10*
%TO.C,U52*%
X170549999Y-124308100D03*
X172450001Y-124308100D03*
X171500000Y-121691900D03*
%TD*%
%TO.C,U68*%
X221549999Y-66308100D03*
X223450001Y-66308100D03*
X222500000Y-63691900D03*
%TD*%
D14*
%TO.C,C10*%
X165250000Y-47025000D03*
X165250000Y-45475000D03*
%TD*%
D11*
%TO.C,C74*%
X129775000Y-68000000D03*
X128225000Y-68000000D03*
%TD*%
D12*
%TO.C,R5*%
X63750000Y-142425000D03*
X63750000Y-144075000D03*
%TD*%
D17*
%TO.C,D1*%
X429212500Y-51750000D03*
X430787500Y-51750000D03*
%TD*%
D10*
%TO.C,U111*%
X352049999Y-124308100D03*
X353950001Y-124308100D03*
X353000000Y-121691900D03*
%TD*%
D12*
%TO.C,R36*%
X157250000Y-124425000D03*
X157250000Y-126075000D03*
%TD*%
%TO.C,R91*%
X338750000Y-84425000D03*
X338750000Y-86075000D03*
%TD*%
D10*
%TO.C,U81*%
X255549999Y-124308100D03*
X257450001Y-124308100D03*
X256500000Y-121691900D03*
%TD*%
D13*
%TO.C,C234*%
X394250000Y-106475000D03*
X394250000Y-108025000D03*
%TD*%
%TO.C,C84*%
X129250000Y-142475000D03*
X129250000Y-144025000D03*
%TD*%
D12*
%TO.C,R31*%
X114750000Y-84425000D03*
X114750000Y-86075000D03*
%TD*%
%TO.C,R101*%
X375750000Y-142425000D03*
X375750000Y-144075000D03*
%TD*%
D11*
%TO.C,C123*%
X210775000Y-144000000D03*
X209225000Y-144000000D03*
%TD*%
D13*
%TO.C,C237*%
X377250000Y-142475000D03*
X377250000Y-144025000D03*
%TD*%
D14*
%TO.C,C17*%
X390000000Y-75775000D03*
X390000000Y-74225000D03*
%TD*%
D12*
%TO.C,R12*%
X106250000Y-124425000D03*
X106250000Y-126075000D03*
%TD*%
D11*
%TO.C,C191*%
X319775000Y-126000000D03*
X318225000Y-126000000D03*
%TD*%
D15*
%TO.C,U7*%
X207055000Y-52362200D03*
X208325000Y-52362200D03*
X209595000Y-52362200D03*
X210865000Y-52362200D03*
X212135000Y-52362200D03*
X213405000Y-52362200D03*
X214675000Y-52362200D03*
X215945000Y-52362200D03*
X215945000Y-47637800D03*
X214675000Y-47637800D03*
X213405000Y-47637800D03*
X212135000Y-47637800D03*
X210865000Y-47637800D03*
X209595000Y-47637800D03*
X208325000Y-47637800D03*
X207055000Y-47637800D03*
%TD*%
D12*
%TO.C,R15*%
X101750000Y-160425000D03*
X101750000Y-162075000D03*
%TD*%
D10*
%TO.C,U79*%
X217049999Y-160308100D03*
X218950001Y-160308100D03*
X218000000Y-157691900D03*
%TD*%
D13*
%TO.C,C119*%
X201250000Y-106475000D03*
X201250000Y-108025000D03*
%TD*%
D10*
%TO.C,U75*%
X221549999Y-124308100D03*
X223450001Y-124308100D03*
X222500000Y-121691900D03*
%TD*%
D13*
%TO.C,C181*%
X269250000Y-84475000D03*
X269250000Y-86025000D03*
%TD*%
D12*
%TO.C,R112*%
X426750000Y-160425000D03*
X426750000Y-162075000D03*
%TD*%
D13*
%TO.C,C115*%
X180250000Y-142475000D03*
X180250000Y-144025000D03*
%TD*%
%TO.C,C250*%
X428250000Y-106475000D03*
X428250000Y-108025000D03*
%TD*%
D10*
%TO.C,U88*%
X287049999Y-178308100D03*
X288950001Y-178308100D03*
X288000000Y-175691900D03*
%TD*%
D11*
%TO.C,C100*%
X176775000Y-144000000D03*
X175225000Y-144000000D03*
%TD*%
%TO.C,C216*%
X336775000Y-126000000D03*
X335225000Y-126000000D03*
%TD*%
D12*
%TO.C,R97*%
X375750000Y-106425000D03*
X375750000Y-108075000D03*
%TD*%
%TO.C,R41*%
X169750000Y-160425000D03*
X169750000Y-162075000D03*
%TD*%
%TO.C,R77*%
X267750000Y-106425000D03*
X267750000Y-108075000D03*
%TD*%
D13*
%TO.C,C236*%
X394250000Y-124475000D03*
X394250000Y-126025000D03*
%TD*%
D10*
%TO.C,U101*%
X335049999Y-160308100D03*
X336950001Y-160308100D03*
X336000000Y-157691900D03*
%TD*%
D15*
%TO.C,U14*%
X333555000Y-52362200D03*
X334825000Y-52362200D03*
X336095000Y-52362200D03*
X337365000Y-52362200D03*
X338635000Y-52362200D03*
X339905000Y-52362200D03*
X341175000Y-52362200D03*
X342445000Y-52362200D03*
X342445000Y-47637800D03*
X341175000Y-47637800D03*
X339905000Y-47637800D03*
X338635000Y-47637800D03*
X337365000Y-47637800D03*
X336095000Y-47637800D03*
X334825000Y-47637800D03*
X333555000Y-47637800D03*
%TD*%
D10*
%TO.C,U104*%
X352049999Y-178308100D03*
X353950001Y-178308100D03*
X353000000Y-175691900D03*
%TD*%
D11*
%TO.C,C137*%
X240275000Y-126000000D03*
X238725000Y-126000000D03*
%TD*%
D13*
%TO.C,C86*%
X137250000Y-160475000D03*
X137250000Y-162025000D03*
%TD*%
D11*
%TO.C,C244*%
X407775000Y-126000000D03*
X406225000Y-126000000D03*
%TD*%
D10*
%TO.C,U36*%
X119549999Y-124308100D03*
X121450001Y-124308100D03*
X120500000Y-121691900D03*
%TD*%
D11*
%TO.C,C249*%
X407750000Y-180000000D03*
X406200000Y-180000000D03*
%TD*%
%TO.C,C153*%
X227775000Y-144000000D03*
X226225000Y-144000000D03*
%TD*%
%TO.C,C127*%
X189275000Y-68000000D03*
X187725000Y-68000000D03*
%TD*%
%TO.C,C218*%
X373750000Y-108000000D03*
X372200000Y-108000000D03*
%TD*%
D10*
%TO.C,U84*%
X268049999Y-160308100D03*
X269950001Y-160308100D03*
X269000000Y-157691900D03*
%TD*%
D12*
%TO.C,R2*%
X63750000Y-84425000D03*
X63750000Y-86075000D03*
%TD*%
D10*
%TO.C,U24*%
X102049999Y-178308100D03*
X103950001Y-178308100D03*
X103000000Y-175691900D03*
%TD*%
D15*
%TO.C,U16*%
X405555000Y-72362200D03*
X406825000Y-72362200D03*
X408095000Y-72362200D03*
X409365000Y-72362200D03*
X410635000Y-72362200D03*
X411905000Y-72362200D03*
X413175000Y-72362200D03*
X414445000Y-72362200D03*
X414445000Y-67637800D03*
X413175000Y-67637800D03*
X411905000Y-67637800D03*
X410635000Y-67637800D03*
X409365000Y-67637800D03*
X408095000Y-67637800D03*
X406825000Y-67637800D03*
X405555000Y-67637800D03*
%TD*%
D10*
%TO.C,U60*%
X204549999Y-124308100D03*
X206450001Y-124308100D03*
X205500000Y-121691900D03*
%TD*%
D15*
%TO.C,U5*%
X167055000Y-52362200D03*
X168325000Y-52362200D03*
X169595000Y-52362200D03*
X170865000Y-52362200D03*
X172135000Y-52362200D03*
X173405000Y-52362200D03*
X174675000Y-52362200D03*
X175945000Y-52362200D03*
X175945000Y-47637800D03*
X174675000Y-47637800D03*
X173405000Y-47637800D03*
X172135000Y-47637800D03*
X170865000Y-47637800D03*
X169595000Y-47637800D03*
X168325000Y-47637800D03*
X167055000Y-47637800D03*
%TD*%
D10*
%TO.C,U32*%
X123049999Y-178308100D03*
X124950001Y-178308100D03*
X124000000Y-175691900D03*
%TD*%
D12*
%TO.C,R17*%
X126750000Y-178425000D03*
X126750000Y-180075000D03*
%TD*%
%TO.C,R52*%
X208250000Y-66425000D03*
X208250000Y-68075000D03*
%TD*%
D11*
%TO.C,C165*%
X248775000Y-86000000D03*
X247225000Y-86000000D03*
%TD*%
D12*
%TO.C,R95*%
X338750000Y-124425000D03*
X338750000Y-126075000D03*
%TD*%
%TO.C,R53*%
X226750000Y-66425000D03*
X226750000Y-68075000D03*
%TD*%
%TO.C,R16*%
X118750000Y-160425000D03*
X118750000Y-162075000D03*
%TD*%
D13*
%TO.C,C52*%
X65250000Y-160475000D03*
X65250000Y-162025000D03*
%TD*%
D12*
%TO.C,R59*%
X233750000Y-106425000D03*
X233750000Y-108075000D03*
%TD*%
D10*
%TO.C,U39*%
X141049999Y-142308100D03*
X142950001Y-142308100D03*
X142000000Y-139691900D03*
%TD*%
D13*
%TO.C,C140*%
X205275000Y-160475000D03*
X205275000Y-162025000D03*
%TD*%
D11*
%TO.C,C159*%
X252775000Y-162000000D03*
X251225000Y-162000000D03*
%TD*%
D10*
%TO.C,U90*%
X264049999Y-84308100D03*
X265950001Y-84308100D03*
X265000000Y-81691900D03*
%TD*%
D11*
%TO.C,C124*%
X184750000Y-162000000D03*
X183200000Y-162000000D03*
%TD*%
D10*
%TO.C,U18*%
X60049999Y-106308100D03*
X61950001Y-106308100D03*
X61000000Y-103691900D03*
%TD*%
%TO.C,U28*%
X90049999Y-142308100D03*
X91950001Y-142308100D03*
X91000000Y-139691900D03*
%TD*%
%TO.C,U69*%
X170549999Y-84308100D03*
X172450001Y-84308100D03*
X171500000Y-81691900D03*
%TD*%
D13*
%TO.C,C147*%
X209750000Y-84475000D03*
X209750000Y-86025000D03*
%TD*%
D10*
%TO.C,U63*%
X183049999Y-160308100D03*
X184950001Y-160308100D03*
X184000000Y-157691900D03*
%TD*%
%TO.C,U53*%
X158049999Y-142308100D03*
X159950001Y-142308100D03*
X159000000Y-139691900D03*
%TD*%
%TO.C,U37*%
X136549999Y-124308100D03*
X138450001Y-124308100D03*
X137500000Y-121691900D03*
%TD*%
D13*
%TO.C,C144*%
X225250000Y-66475000D03*
X225250000Y-68025000D03*
%TD*%
%TO.C,C256*%
X411250000Y-178500000D03*
X411250000Y-180050000D03*
%TD*%
D12*
%TO.C,R28*%
X133250000Y-66425000D03*
X133250000Y-68075000D03*
%TD*%
D10*
%TO.C,U35*%
X128049999Y-106308100D03*
X129950001Y-106308100D03*
X129000000Y-103691900D03*
%TD*%
D13*
%TO.C,C198*%
X269250000Y-106475000D03*
X269250000Y-108025000D03*
%TD*%
D10*
%TO.C,U34*%
X111049999Y-106308100D03*
X112950001Y-106308100D03*
X112000000Y-103691900D03*
%TD*%
%TO.C,U70*%
X187549999Y-84308100D03*
X189450001Y-84308100D03*
X188500000Y-81691900D03*
%TD*%
%TO.C,U66*%
X187549999Y-66308100D03*
X189450001Y-66308100D03*
X188500000Y-63691900D03*
%TD*%
D14*
%TO.C,C13*%
X208250000Y-45550000D03*
X208250000Y-44000000D03*
%TD*%
D13*
%TO.C,C49*%
X65250000Y-106475000D03*
X65250000Y-108025000D03*
%TD*%
D14*
%TO.C,C3*%
X91750000Y-45525000D03*
X91750000Y-43975000D03*
%TD*%
D13*
%TO.C,C108*%
X133250000Y-84475000D03*
X133250000Y-86025000D03*
%TD*%
D12*
%TO.C,R8*%
X84750000Y-178425000D03*
X84750000Y-180075000D03*
%TD*%
D13*
%TO.C,C255*%
X428250000Y-160475000D03*
X428250000Y-162025000D03*
%TD*%
D10*
%TO.C,U102*%
X318049999Y-178308100D03*
X319950001Y-178308100D03*
X319000000Y-175691900D03*
%TD*%
D12*
%TO.C,R56*%
X208250000Y-84425000D03*
X208250000Y-86075000D03*
%TD*%
%TO.C,R10*%
X80750000Y-106425000D03*
X80750000Y-108075000D03*
%TD*%
D13*
%TO.C,C206*%
X323250000Y-124475000D03*
X323250000Y-126025000D03*
%TD*%
D11*
%TO.C,C195*%
X353750000Y-180000000D03*
X352200000Y-180000000D03*
%TD*%
D12*
%TO.C,R100*%
X392750000Y-124425000D03*
X392750000Y-126075000D03*
%TD*%
D15*
%TO.C,U15*%
X369555000Y-72362200D03*
X370825000Y-72362200D03*
X372095000Y-72362200D03*
X373365000Y-72362200D03*
X374635000Y-72362200D03*
X375905000Y-72362200D03*
X377175000Y-72362200D03*
X378445000Y-72362200D03*
X378445000Y-67637800D03*
X377175000Y-67637800D03*
X375905000Y-67637800D03*
X374635000Y-67637800D03*
X373365000Y-67637800D03*
X372095000Y-67637800D03*
X370825000Y-67637800D03*
X369555000Y-67637800D03*
%TD*%
D13*
%TO.C,C199*%
X286250000Y-106475000D03*
X286250000Y-108025000D03*
%TD*%
D11*
%TO.C,C183*%
X265775000Y-108000000D03*
X264225000Y-108000000D03*
%TD*%
D13*
%TO.C,C139*%
X188250000Y-160475000D03*
X188250000Y-162025000D03*
%TD*%
D11*
%TO.C,C245*%
X424775000Y-126000000D03*
X423225000Y-126000000D03*
%TD*%
%TO.C,C219*%
X390775000Y-108000000D03*
X389225000Y-108000000D03*
%TD*%
D13*
%TO.C,C118*%
X184225000Y-106475000D03*
X184225000Y-108025000D03*
%TD*%
D12*
%TO.C,R98*%
X392750000Y-106425000D03*
X392750000Y-108075000D03*
%TD*%
D11*
%TO.C,C125*%
X201750000Y-162000000D03*
X200200000Y-162000000D03*
%TD*%
D13*
%TO.C,C209*%
X340250000Y-178475000D03*
X340250000Y-180025000D03*
%TD*%
D12*
%TO.C,R20*%
X131750000Y-106425000D03*
X131750000Y-108075000D03*
%TD*%
%TO.C,R79*%
X276250000Y-124425000D03*
X276250000Y-126075000D03*
%TD*%
D13*
%TO.C,C55*%
X107250000Y-178475000D03*
X107250000Y-180025000D03*
%TD*%
D12*
%TO.C,R85*%
X321750000Y-124425000D03*
X321750000Y-126075000D03*
%TD*%
D13*
%TO.C,C83*%
X141750000Y-124475000D03*
X141750000Y-126025000D03*
%TD*%
%TO.C,C173*%
X265250000Y-142475000D03*
X265250000Y-144025000D03*
%TD*%
D12*
%TO.C,R68*%
X254750000Y-160425000D03*
X254750000Y-162075000D03*
%TD*%
%TO.C,R4*%
X63750000Y-124425000D03*
X63750000Y-126075000D03*
%TD*%
D13*
%TO.C,C152*%
X243750000Y-124475000D03*
X243750000Y-126025000D03*
%TD*%
D11*
%TO.C,C130*%
X172275000Y-86000000D03*
X170725000Y-86000000D03*
%TD*%
D10*
%TO.C,U120*%
X372049999Y-178308100D03*
X373950001Y-178308100D03*
X373000000Y-175691900D03*
%TD*%
D13*
%TO.C,C85*%
X146250000Y-142475000D03*
X146250000Y-144025000D03*
%TD*%
D12*
%TO.C,R50*%
X174250000Y-66425000D03*
X174250000Y-68075000D03*
%TD*%
D10*
%TO.C,U71*%
X204549999Y-84308100D03*
X206450001Y-84308100D03*
X205500000Y-81691900D03*
%TD*%
D12*
%TO.C,R45*%
X208250000Y-124425000D03*
X208250000Y-126075000D03*
%TD*%
D11*
%TO.C,C193*%
X319775000Y-180000000D03*
X318225000Y-180000000D03*
%TD*%
%TO.C,C102*%
X167775000Y-162000000D03*
X166225000Y-162000000D03*
%TD*%
D10*
%TO.C,U118*%
X372049999Y-160308100D03*
X373950001Y-160308100D03*
X373000000Y-157691900D03*
%TD*%
%TO.C,U61*%
X192049999Y-142308100D03*
X193950001Y-142308100D03*
X193000000Y-139691900D03*
%TD*%
D12*
%TO.C,R113*%
X409750000Y-178425000D03*
X409750000Y-180075000D03*
%TD*%
D11*
%TO.C,C167*%
X248775000Y-108000000D03*
X247225000Y-108000000D03*
%TD*%
D10*
%TO.C,U125*%
X406049999Y-142308100D03*
X407950001Y-142308100D03*
X407000000Y-139691900D03*
%TD*%
D13*
%TO.C,C121*%
X209750000Y-124475000D03*
X209750000Y-126025000D03*
%TD*%
D10*
%TO.C,U117*%
X389049999Y-142308100D03*
X390950001Y-142308100D03*
X390000000Y-139691900D03*
%TD*%
D13*
%TO.C,C180*%
X252250000Y-84475000D03*
X252250000Y-86025000D03*
%TD*%
D10*
%TO.C,U62*%
X209049999Y-142308100D03*
X210950001Y-142308100D03*
X210000000Y-139691900D03*
%TD*%
D13*
%TO.C,C202*%
X283250000Y-142475000D03*
X283250000Y-144025000D03*
%TD*%
D11*
%TO.C,C73*%
X112775000Y-68000000D03*
X111225000Y-68000000D03*
%TD*%
D18*
%TO.C,C15*%
X357500000Y-56000000D03*
X359050000Y-56000000D03*
%TD*%
D11*
%TO.C,C75*%
X146775000Y-68000000D03*
X145225000Y-68000000D03*
%TD*%
D13*
%TO.C,C238*%
X394250000Y-142475000D03*
X394250000Y-144025000D03*
%TD*%
D12*
%TO.C,R63*%
X246750000Y-142425000D03*
X246750000Y-144075000D03*
%TD*%
%TO.C,R23*%
X127750000Y-142425000D03*
X127750000Y-144075000D03*
%TD*%
D11*
%TO.C,C65*%
X112775000Y-108000000D03*
X111225000Y-108000000D03*
%TD*%
%TO.C,C189*%
X299775000Y-86000000D03*
X298225000Y-86000000D03*
%TD*%
D10*
%TO.C,U38*%
X124049999Y-142308100D03*
X125950001Y-142308100D03*
X125000000Y-139691900D03*
%TD*%
D13*
%TO.C,C59*%
X95250000Y-142475000D03*
X95250000Y-144025000D03*
%TD*%
D12*
%TO.C,R47*%
X212750000Y-142425000D03*
X212750000Y-144075000D03*
%TD*%
D13*
%TO.C,C60*%
X112250000Y-142500000D03*
X112250000Y-144050000D03*
%TD*%
D11*
%TO.C,C133*%
X223275000Y-86000000D03*
X221725000Y-86000000D03*
%TD*%
D10*
%TO.C,U43*%
X128049999Y-66308100D03*
X129950001Y-66308100D03*
X129000000Y-63691900D03*
%TD*%
%TO.C,U46*%
X111049999Y-84308100D03*
X112950001Y-84308100D03*
X112000000Y-81691900D03*
%TD*%
D13*
%TO.C,C175*%
X273250000Y-160475000D03*
X273250000Y-162025000D03*
%TD*%
D11*
%TO.C,C164*%
X288775000Y-180000000D03*
X287225000Y-180000000D03*
%TD*%
D12*
%TO.C,R27*%
X114750000Y-66425000D03*
X114750000Y-68075000D03*
%TD*%
%TO.C,R62*%
X229750000Y-142425000D03*
X229750000Y-144075000D03*
%TD*%
D13*
%TO.C,C251*%
X411250000Y-124475000D03*
X411250000Y-126025000D03*
%TD*%
D10*
%TO.C,U77*%
X226049999Y-142308100D03*
X227950001Y-142308100D03*
X227000000Y-139691900D03*
%TD*%
D11*
%TO.C,C26*%
X334750000Y-45500000D03*
X333200000Y-45500000D03*
%TD*%
D19*
%TO.C,FB1*%
X391500000Y-75787500D03*
X391500000Y-74212500D03*
%TD*%
D11*
%TO.C,C248*%
X424775000Y-162000000D03*
X423225000Y-162000000D03*
%TD*%
%TO.C,C43*%
X104275000Y-126000000D03*
X102725000Y-126000000D03*
%TD*%
D10*
%TO.C,U95*%
X289549999Y-124308100D03*
X291450001Y-124308100D03*
X290500000Y-121691900D03*
%TD*%
D12*
%TO.C,R34*%
X148750000Y-106425000D03*
X148750000Y-108075000D03*
%TD*%
D10*
%TO.C,U74*%
X230049999Y-106308100D03*
X231950001Y-106308100D03*
X231000000Y-103691900D03*
%TD*%
D12*
%TO.C,R39*%
X178750000Y-142425000D03*
X178750000Y-144075000D03*
%TD*%
D13*
%TO.C,C178*%
X271250000Y-178475000D03*
X271250000Y-180025000D03*
%TD*%
D10*
%TO.C,U114*%
X372049999Y-124308100D03*
X373950001Y-124308100D03*
X373000000Y-121691900D03*
%TD*%
D13*
%TO.C,C176*%
X229250000Y-178475000D03*
X229250000Y-180025000D03*
%TD*%
D15*
%TO.C,U3*%
X117555000Y-52362200D03*
X118825000Y-52362200D03*
X120095000Y-52362200D03*
X121365000Y-52362200D03*
X122635000Y-52362200D03*
X123905000Y-52362200D03*
X125175000Y-52362200D03*
X126445000Y-52362200D03*
X126445000Y-47637800D03*
X125175000Y-47637800D03*
X123905000Y-47637800D03*
X122635000Y-47637800D03*
X121365000Y-47637800D03*
X120095000Y-47637800D03*
X118825000Y-47637800D03*
X117555000Y-47637800D03*
%TD*%
D14*
%TO.C,C8*%
X140000000Y-47000000D03*
X140000000Y-45450000D03*
%TD*%
D12*
%TO.C,R38*%
X161750000Y-142425000D03*
X161750000Y-144075000D03*
%TD*%
D11*
%TO.C,C22*%
X287000000Y-45500000D03*
X285450000Y-45500000D03*
%TD*%
D10*
%TO.C,U116*%
X372049999Y-142308100D03*
X373950001Y-142308100D03*
X373000000Y-139691900D03*
%TD*%
D12*
%TO.C,R87*%
X321750000Y-178425000D03*
X321750000Y-180075000D03*
%TD*%
D14*
%TO.C,C9*%
X168500000Y-45550000D03*
X168500000Y-44000000D03*
%TD*%
D12*
%TO.C,R70*%
X227750000Y-178425000D03*
X227750000Y-180075000D03*
%TD*%
%TO.C,R80*%
X293250000Y-124425000D03*
X293250000Y-126075000D03*
%TD*%
%TO.C,R105*%
X375750000Y-178425000D03*
X375750000Y-180075000D03*
%TD*%
D10*
%TO.C,U96*%
X278049999Y-142308100D03*
X279950001Y-142308100D03*
X279000000Y-139691900D03*
%TD*%
D14*
%TO.C,C30*%
X407000000Y-65525000D03*
X407000000Y-63975000D03*
%TD*%
D13*
%TO.C,C233*%
X377250000Y-106475000D03*
X377250000Y-108025000D03*
%TD*%
D10*
%TO.C,U110*%
X335049999Y-124308100D03*
X336950001Y-124308100D03*
X336000000Y-121691900D03*
%TD*%
D13*
%TO.C,C207*%
X340250000Y-160475000D03*
X340250000Y-162025000D03*
%TD*%
%TO.C,C62*%
X120250000Y-160475000D03*
X120250000Y-162025000D03*
%TD*%
%TO.C,C169*%
X248250000Y-142475000D03*
X248250000Y-144025000D03*
%TD*%
%TO.C,C79*%
X99250000Y-106450000D03*
X99250000Y-108000000D03*
%TD*%
D15*
%TO.C,U11*%
X285555000Y-52362200D03*
X286825000Y-52362200D03*
X288095000Y-52362200D03*
X289365000Y-52362200D03*
X290635000Y-52362200D03*
X291905000Y-52362200D03*
X293175000Y-52362200D03*
X294445000Y-52362200D03*
X294445000Y-47637800D03*
X293175000Y-47637800D03*
X291905000Y-47637800D03*
X290635000Y-47637800D03*
X289365000Y-47637800D03*
X288095000Y-47637800D03*
X286825000Y-47637800D03*
X285555000Y-47637800D03*
%TD*%
D12*
%TO.C,R88*%
X338750000Y-178425000D03*
X338750000Y-180075000D03*
%TD*%
D11*
%TO.C,C160*%
X269775000Y-162000000D03*
X268225000Y-162000000D03*
%TD*%
D10*
%TO.C,U51*%
X153549999Y-124308100D03*
X155450001Y-124308100D03*
X154500000Y-121691900D03*
%TD*%
D13*
%TO.C,C168*%
X231250000Y-142475000D03*
X231250000Y-144025000D03*
%TD*%
D11*
%TO.C,C63*%
X124775000Y-180000000D03*
X123225000Y-180000000D03*
%TD*%
%TO.C,C24*%
X302000000Y-45500000D03*
X300450000Y-45500000D03*
%TD*%
D12*
%TO.C,R93*%
X338750000Y-106425000D03*
X338750000Y-108075000D03*
%TD*%
D10*
%TO.C,U59*%
X187549999Y-124308100D03*
X189450001Y-124308100D03*
X188500000Y-121691900D03*
%TD*%
D11*
%TO.C,C45*%
X108775000Y-144000000D03*
X107225000Y-144000000D03*
%TD*%
D10*
%TO.C,U54*%
X175049999Y-142308100D03*
X176950001Y-142308100D03*
X176000000Y-139691900D03*
%TD*%
D11*
%TO.C,C158*%
X261775000Y-144000000D03*
X260225000Y-144000000D03*
%TD*%
D13*
%TO.C,C205*%
X323250000Y-106475000D03*
X323250000Y-108025000D03*
%TD*%
%TO.C,C253*%
X411250000Y-142475000D03*
X411250000Y-144025000D03*
%TD*%
%TO.C,C204*%
X303250000Y-84475000D03*
X303250000Y-86025000D03*
%TD*%
D11*
%TO.C,C129*%
X223275000Y-68000000D03*
X221725000Y-68000000D03*
%TD*%
D13*
%TO.C,C114*%
X163250000Y-142475000D03*
X163250000Y-144025000D03*
%TD*%
%TO.C,C48*%
X65250000Y-84475000D03*
X65250000Y-86025000D03*
%TD*%
D12*
%TO.C,R78*%
X284750000Y-106425000D03*
X284750000Y-108075000D03*
%TD*%
%TO.C,R35*%
X165750000Y-106425000D03*
X165750000Y-108075000D03*
%TD*%
D10*
%TO.C,U82*%
X260049999Y-142308100D03*
X261950001Y-142308100D03*
X261000000Y-139691900D03*
%TD*%
D12*
%TO.C,R25*%
X135750000Y-160425000D03*
X135750000Y-162075000D03*
%TD*%
%TO.C,R51*%
X191250000Y-66425000D03*
X191250000Y-68075000D03*
%TD*%
D10*
%TO.C,U100*%
X318049999Y-124308100D03*
X319950001Y-124308100D03*
X319000000Y-121691900D03*
%TD*%
D11*
%TO.C,C135*%
X231750000Y-108000000D03*
X230200000Y-108000000D03*
%TD*%
D13*
%TO.C,C210*%
X357250000Y-178475000D03*
X357250000Y-180025000D03*
%TD*%
D11*
%TO.C,C25*%
X299000000Y-47000000D03*
X297450000Y-47000000D03*
%TD*%
D13*
%TO.C,C177*%
X250250000Y-178475000D03*
X250250000Y-180025000D03*
%TD*%
D11*
%TO.C,C42*%
X87275000Y-126000000D03*
X85725000Y-126000000D03*
%TD*%
D12*
%TO.C,R43*%
X199750000Y-106425000D03*
X199750000Y-108075000D03*
%TD*%
%TO.C,R103*%
X375750000Y-160425000D03*
X375750000Y-162075000D03*
%TD*%
D13*
%TO.C,C174*%
X256250000Y-160475000D03*
X256250000Y-162025000D03*
%TD*%
D11*
%TO.C,C98*%
X172275000Y-126000000D03*
X170725000Y-126000000D03*
%TD*%
D10*
%TO.C,U123*%
X406049999Y-124308100D03*
X407950001Y-124308100D03*
X407000000Y-121691900D03*
%TD*%
D11*
%TO.C,C106*%
X206275000Y-126000000D03*
X204725000Y-126000000D03*
%TD*%
D10*
%TO.C,U98*%
X298049999Y-84308100D03*
X299950001Y-84308100D03*
X299000000Y-81691900D03*
%TD*%
D15*
%TO.C,U4*%
X141555000Y-52362200D03*
X142825000Y-52362200D03*
X144095000Y-52362200D03*
X145365000Y-52362200D03*
X146635000Y-52362200D03*
X147905000Y-52362200D03*
X149175000Y-52362200D03*
X150445000Y-52362200D03*
X150445000Y-47637800D03*
X149175000Y-47637800D03*
X147905000Y-47637800D03*
X146635000Y-47637800D03*
X145365000Y-47637800D03*
X144095000Y-47637800D03*
X142825000Y-47637800D03*
X141555000Y-47637800D03*
%TD*%
D10*
%TO.C,U47*%
X128049999Y-84308100D03*
X129950001Y-84308100D03*
X129000000Y-81691900D03*
%TD*%
%TO.C,U83*%
X251049999Y-160308100D03*
X252950001Y-160308100D03*
X252000000Y-157691900D03*
%TD*%
D12*
%TO.C,R44*%
X191250000Y-124425000D03*
X191250000Y-126075000D03*
%TD*%
D13*
%TO.C,C113*%
X175750000Y-124475000D03*
X175750000Y-126025000D03*
%TD*%
D20*
%TO.C,R1*%
X429175000Y-50000000D03*
X430825000Y-50000000D03*
%TD*%
D12*
%TO.C,R108*%
X409750000Y-124425000D03*
X409750000Y-126075000D03*
%TD*%
D10*
%TO.C,U21*%
X60049999Y-160308100D03*
X61950001Y-160308100D03*
X61000000Y-157691900D03*
%TD*%
D11*
%TO.C,C33*%
X61775000Y-86000000D03*
X60225000Y-86000000D03*
%TD*%
D10*
%TO.C,U72*%
X221549999Y-84308100D03*
X223450001Y-84308100D03*
X222500000Y-81691900D03*
%TD*%
D12*
%TO.C,R89*%
X355750000Y-178425000D03*
X355750000Y-180075000D03*
%TD*%
D10*
%TO.C,U127*%
X423049999Y-160308100D03*
X424950001Y-160308100D03*
X424000000Y-157691900D03*
%TD*%
%TO.C,U128*%
X406049999Y-178308100D03*
X407950001Y-178308100D03*
X407000000Y-175691900D03*
%TD*%
%TO.C,U45*%
X94049999Y-84308100D03*
X95950001Y-84308100D03*
X95000000Y-81691900D03*
%TD*%
%TO.C,U94*%
X272549999Y-124308100D03*
X274450001Y-124308100D03*
X273500000Y-121691900D03*
%TD*%
D12*
%TO.C,R84*%
X321750000Y-106425000D03*
X321750000Y-108075000D03*
%TD*%
D13*
%TO.C,C58*%
X107750000Y-124475000D03*
X107750000Y-126025000D03*
%TD*%
D10*
%TO.C,U121*%
X406049999Y-106308100D03*
X407950001Y-106308100D03*
X407000000Y-103691900D03*
%TD*%
%TO.C,U50*%
X162049999Y-106308100D03*
X163950001Y-106308100D03*
X163000000Y-103691900D03*
%TD*%
D11*
%TO.C,C27*%
X331750000Y-47000000D03*
X330200000Y-47000000D03*
%TD*%
D12*
%TO.C,R73*%
X290750000Y-178425000D03*
X290750000Y-180075000D03*
%TD*%
D15*
%TO.C,U2*%
X90555000Y-52362200D03*
X91825000Y-52362200D03*
X93095000Y-52362200D03*
X94365000Y-52362200D03*
X95635000Y-52362200D03*
X96905000Y-52362200D03*
X98175000Y-52362200D03*
X99445000Y-52362200D03*
X99445000Y-47637800D03*
X98175000Y-47637800D03*
X96905000Y-47637800D03*
X95635000Y-47637800D03*
X94365000Y-47637800D03*
X93095000Y-47637800D03*
X91825000Y-47637800D03*
X90555000Y-47637800D03*
%TD*%
%TO.C,U1*%
X70555000Y-52362200D03*
X71825000Y-52362200D03*
X73095000Y-52362200D03*
X74365000Y-52362200D03*
X75635000Y-52362200D03*
X76905000Y-52362200D03*
X78175000Y-52362200D03*
X79445000Y-52362200D03*
X79445000Y-47637800D03*
X78175000Y-47637800D03*
X76905000Y-47637800D03*
X75635000Y-47637800D03*
X74365000Y-47637800D03*
X73095000Y-47637800D03*
X71825000Y-47637800D03*
X70555000Y-47637800D03*
%TD*%
D12*
%TO.C,R69*%
X271750000Y-160425000D03*
X271750000Y-162075000D03*
%TD*%
D10*
%TO.C,U109*%
X352049999Y-106308100D03*
X353950001Y-106308100D03*
X353000000Y-103691900D03*
%TD*%
D12*
%TO.C,R64*%
X220750000Y-160425000D03*
X220750000Y-162075000D03*
%TD*%
D10*
%TO.C,U58*%
X196049999Y-106308100D03*
X197950001Y-106308100D03*
X197000000Y-103691900D03*
%TD*%
%TO.C,U92*%
X264049999Y-106308100D03*
X265950001Y-106308100D03*
X265000000Y-103691900D03*
%TD*%
D13*
%TO.C,C120*%
X192750000Y-124475000D03*
X192750000Y-126025000D03*
%TD*%
D11*
%TO.C,C225*%
X390750000Y-162000000D03*
X389200000Y-162000000D03*
%TD*%
D13*
%TO.C,C141*%
X175750000Y-66475000D03*
X175750000Y-68025000D03*
%TD*%
D11*
%TO.C,C227*%
X407750000Y-108000000D03*
X406200000Y-108000000D03*
%TD*%
D10*
%TO.C,U124*%
X423049999Y-124308100D03*
X424950001Y-124308100D03*
X424000000Y-121691900D03*
%TD*%
%TO.C,U108*%
X335049999Y-106308100D03*
X336950001Y-106308100D03*
X336000000Y-103691900D03*
%TD*%
D11*
%TO.C,C126*%
X172275000Y-68000000D03*
X170725000Y-68000000D03*
%TD*%
%TO.C,C76*%
X95775000Y-86000000D03*
X94225000Y-86000000D03*
%TD*%
%TO.C,C161*%
X225750000Y-180000000D03*
X224200000Y-180000000D03*
%TD*%
D13*
%TO.C,C82*%
X124750000Y-124475000D03*
X124750000Y-126025000D03*
%TD*%
D14*
%TO.C,C29*%
X367750000Y-67025000D03*
X367750000Y-65475000D03*
%TD*%
D11*
%TO.C,C131*%
X189275000Y-86000000D03*
X187725000Y-86000000D03*
%TD*%
D10*
%TO.C,U99*%
X318049999Y-106308100D03*
X319950001Y-106308100D03*
X319000000Y-103691900D03*
%TD*%
D15*
%TO.C,U10*%
X230555000Y-52362200D03*
X231825000Y-52362200D03*
X233095000Y-52362200D03*
X234365000Y-52362200D03*
X235635000Y-52362200D03*
X236905000Y-52362200D03*
X238175000Y-52362200D03*
X239445000Y-52362200D03*
X239445000Y-47637800D03*
X238175000Y-47637800D03*
X236905000Y-47637800D03*
X235635000Y-47637800D03*
X234365000Y-47637800D03*
X233095000Y-47637800D03*
X231825000Y-47637800D03*
X230555000Y-47637800D03*
%TD*%
D13*
%TO.C,C170*%
X222250000Y-160475000D03*
X222250000Y-162025000D03*
%TD*%
D11*
%TO.C,C70*%
X142775000Y-144000000D03*
X141225000Y-144000000D03*
%TD*%
%TO.C,C197*%
X336775000Y-86000000D03*
X335225000Y-86000000D03*
%TD*%
D14*
%TO.C,C7*%
X143000000Y-45525000D03*
X143000000Y-43975000D03*
%TD*%
D10*
%TO.C,U57*%
X179049999Y-106308100D03*
X180950001Y-106308100D03*
X180000000Y-103691900D03*
%TD*%
%TO.C,U64*%
X200049999Y-160308100D03*
X201950001Y-160308100D03*
X201000000Y-157691900D03*
%TD*%
D13*
%TO.C,C91*%
X99250000Y-84475000D03*
X99250000Y-86025000D03*
%TD*%
D11*
%TO.C,C46*%
X99775000Y-162000000D03*
X98225000Y-162000000D03*
%TD*%
D14*
%TO.C,C18*%
X231750000Y-45550000D03*
X231750000Y-44000000D03*
%TD*%
D10*
%TO.C,U30*%
X98049999Y-160308100D03*
X99950001Y-160308100D03*
X99000000Y-157691900D03*
%TD*%
D11*
%TO.C,C64*%
X95775000Y-108000000D03*
X94225000Y-108000000D03*
%TD*%
D12*
%TO.C,R109*%
X426750000Y-124425000D03*
X426750000Y-126075000D03*
%TD*%
D13*
%TO.C,C241*%
X377250000Y-178475000D03*
X377250000Y-180025000D03*
%TD*%
D12*
%TO.C,R11*%
X89250000Y-124425000D03*
X89250000Y-126075000D03*
%TD*%
%TO.C,R61*%
X242250000Y-124425000D03*
X242250000Y-126075000D03*
%TD*%
D11*
%TO.C,C187*%
X279775000Y-144000000D03*
X278225000Y-144000000D03*
%TD*%
D12*
%TO.C,R83*%
X301750000Y-84425000D03*
X301750000Y-86075000D03*
%TD*%
D11*
%TO.C,C68*%
X138275000Y-126000000D03*
X136725000Y-126000000D03*
%TD*%
D13*
%TO.C,C229*%
X340250000Y-106475000D03*
X340250000Y-108025000D03*
%TD*%
%TO.C,C116*%
X154250000Y-160475000D03*
X154250000Y-162025000D03*
%TD*%
D14*
%TO.C,C12*%
X183750000Y-47000000D03*
X183750000Y-45450000D03*
%TD*%
D10*
%TO.C,U17*%
X60049999Y-84308100D03*
X61950001Y-84308100D03*
X61000000Y-81691900D03*
%TD*%
D11*
%TO.C,C156*%
X235775000Y-162000000D03*
X234225000Y-162000000D03*
%TD*%
D10*
%TO.C,U97*%
X281049999Y-84308100D03*
X282950001Y-84308100D03*
X282000000Y-81691900D03*
%TD*%
%TO.C,U103*%
X335049999Y-178308100D03*
X336950001Y-178308100D03*
X336000000Y-175691900D03*
%TD*%
D13*
%TO.C,C242*%
X411250000Y-106475000D03*
X411250000Y-108025000D03*
%TD*%
D10*
%TO.C,U23*%
X81049999Y-178308100D03*
X82950001Y-178308100D03*
X82000000Y-175691900D03*
%TD*%
D13*
%TO.C,C232*%
X357250000Y-124475000D03*
X357250000Y-126025000D03*
%TD*%
D11*
%TO.C,C247*%
X407775000Y-162025000D03*
X406225000Y-162025000D03*
%TD*%
D10*
%TO.C,U91*%
X247049999Y-106308100D03*
X248950001Y-106308100D03*
X248000000Y-103691900D03*
%TD*%
D13*
%TO.C,C240*%
X394250000Y-160475000D03*
X394250000Y-162025000D03*
%TD*%
%TO.C,C228*%
X357250000Y-84475000D03*
X357250000Y-86025000D03*
%TD*%
D11*
%TO.C,C71*%
X133800000Y-162000000D03*
X132250000Y-162000000D03*
%TD*%
D10*
%TO.C,U19*%
X60049999Y-124308100D03*
X61950001Y-124308100D03*
X61000000Y-121691900D03*
%TD*%
D11*
%TO.C,C23*%
X283750000Y-47000000D03*
X282200000Y-47000000D03*
%TD*%
D12*
%TO.C,R26*%
X97750000Y-66425000D03*
X97750000Y-68075000D03*
%TD*%
D11*
%TO.C,C155*%
X218775000Y-162000000D03*
X217225000Y-162000000D03*
%TD*%
D14*
%TO.C,C19*%
X229000000Y-46975000D03*
X229000000Y-45425000D03*
%TD*%
D13*
%TO.C,C54*%
X86250000Y-178475000D03*
X86250000Y-180025000D03*
%TD*%
D11*
%TO.C,C35*%
X61775000Y-126000000D03*
X60225000Y-126000000D03*
%TD*%
D10*
%TO.C,U105*%
X318049999Y-84308100D03*
X319950001Y-84308100D03*
X319000000Y-81691900D03*
%TD*%
D12*
%TO.C,R40*%
X152750000Y-160425000D03*
X152750000Y-162075000D03*
%TD*%
D10*
%TO.C,U107*%
X352049999Y-84308100D03*
X353950001Y-84308100D03*
X353000000Y-81691900D03*
%TD*%
D11*
%TO.C,C105*%
X189275000Y-126000000D03*
X187725000Y-126000000D03*
%TD*%
%TO.C,C77*%
X112775000Y-86000000D03*
X111225000Y-86000000D03*
%TD*%
D10*
%TO.C,U112*%
X372049999Y-106308100D03*
X373950001Y-106308100D03*
X373000000Y-103691900D03*
%TD*%
D12*
%TO.C,R48*%
X186750000Y-160425000D03*
X186750000Y-162075000D03*
%TD*%
D11*
%TO.C,C21*%
X259000000Y-47000000D03*
X257450000Y-47000000D03*
%TD*%
D13*
%TO.C,C117*%
X171250000Y-160475000D03*
X171250000Y-162025000D03*
%TD*%
%TO.C,C89*%
X131650000Y-66475000D03*
X131650000Y-68025000D03*
%TD*%
D11*
%TO.C,C96*%
X163775000Y-108000000D03*
X162225000Y-108000000D03*
%TD*%
%TO.C,C184*%
X282775000Y-108000000D03*
X281225000Y-108000000D03*
%TD*%
D13*
%TO.C,C171*%
X239250000Y-160475000D03*
X239250000Y-162025000D03*
%TD*%
D14*
%TO.C,C14*%
X205400000Y-47025000D03*
X205400000Y-45475000D03*
%TD*%
D13*
%TO.C,C110*%
X150250000Y-106475000D03*
X150250000Y-108025000D03*
%TD*%
D11*
%TO.C,C196*%
X319775000Y-86000000D03*
X318225000Y-86000000D03*
%TD*%
D13*
%TO.C,C142*%
X192750000Y-66475000D03*
X192750000Y-68025000D03*
%TD*%
D10*
%TO.C,U89*%
X247049999Y-84308100D03*
X248950001Y-84308100D03*
X248000000Y-81691900D03*
%TD*%
%TO.C,U22*%
X60049999Y-178308100D03*
X61950001Y-178308100D03*
X61000000Y-175691900D03*
%TD*%
%TO.C,U33*%
X94049999Y-106308100D03*
X95950001Y-106308100D03*
X95000000Y-103691900D03*
%TD*%
D11*
%TO.C,C134*%
X214775000Y-108000000D03*
X213225000Y-108000000D03*
%TD*%
%TO.C,C39*%
X82775000Y-180000000D03*
X81225000Y-180000000D03*
%TD*%
%TO.C,C38*%
X61775000Y-180000000D03*
X60225000Y-180000000D03*
%TD*%
D13*
%TO.C,C90*%
X150250000Y-66475000D03*
X150250000Y-68025000D03*
%TD*%
D10*
%TO.C,U48*%
X145049999Y-84308100D03*
X146950001Y-84308100D03*
X146000000Y-81691900D03*
%TD*%
D12*
%TO.C,R42*%
X182750000Y-106425000D03*
X182750000Y-108075000D03*
%TD*%
D10*
%TO.C,U80*%
X234049999Y-160308100D03*
X235950001Y-160308100D03*
X235000000Y-157691900D03*
%TD*%
D15*
%TO.C,U13*%
X300555000Y-52362200D03*
X301825000Y-52362200D03*
X303095000Y-52362200D03*
X304365000Y-52362200D03*
X305635000Y-52362200D03*
X306905000Y-52362200D03*
X308175000Y-52362200D03*
X309445000Y-52362200D03*
X309445000Y-47637800D03*
X308175000Y-47637800D03*
X306905000Y-47637800D03*
X305635000Y-47637800D03*
X304365000Y-47637800D03*
X303095000Y-47637800D03*
X301825000Y-47637800D03*
X300555000Y-47637800D03*
%TD*%
D11*
%TO.C,C94*%
X146750000Y-86000000D03*
X145200000Y-86000000D03*
%TD*%
D10*
%TO.C,U31*%
X115049999Y-160308100D03*
X116950001Y-160308100D03*
X116000000Y-157691900D03*
%TD*%
D11*
%TO.C,C72*%
X95775000Y-68000000D03*
X94225000Y-68000000D03*
%TD*%
D12*
%TO.C,R82*%
X284750000Y-84425000D03*
X284750000Y-86075000D03*
%TD*%
D13*
%TO.C,C151*%
X226750000Y-124475000D03*
X226750000Y-126025000D03*
%TD*%
D10*
%TO.C,U29*%
X107049999Y-142308100D03*
X108950001Y-142308100D03*
X108000000Y-139691900D03*
%TD*%
D13*
%TO.C,C235*%
X377250000Y-124475000D03*
X377250000Y-126025000D03*
%TD*%
D11*
%TO.C,C103*%
X180775000Y-108000000D03*
X179225000Y-108000000D03*
%TD*%
D12*
%TO.C,R9*%
X105750000Y-178425000D03*
X105750000Y-180075000D03*
%TD*%
D13*
%TO.C,C87*%
X99250000Y-66475000D03*
X99250000Y-68025000D03*
%TD*%
D14*
%TO.C,C4*%
X88750000Y-47025000D03*
X88750000Y-45475000D03*
%TD*%
D10*
%TO.C,U78*%
X243049999Y-142308100D03*
X244950001Y-142308100D03*
X244000000Y-139691900D03*
%TD*%
D11*
%TO.C,C40*%
X103775000Y-180000000D03*
X102225000Y-180000000D03*
%TD*%
D12*
%TO.C,R6*%
X63750000Y-160425000D03*
X63750000Y-162075000D03*
%TD*%
D11*
%TO.C,C194*%
X336750000Y-180000000D03*
X335200000Y-180000000D03*
%TD*%
%TO.C,C215*%
X353750000Y-108000000D03*
X352200000Y-108000000D03*
%TD*%
D12*
%TO.C,R37*%
X174250000Y-124425000D03*
X174250000Y-126075000D03*
%TD*%
%TO.C,R18*%
X97750000Y-106425000D03*
X97750000Y-108075000D03*
%TD*%
%TO.C,R55*%
X191250000Y-84425000D03*
X191250000Y-86075000D03*
%TD*%
D13*
%TO.C,C143*%
X209750000Y-66475000D03*
X209750000Y-68025000D03*
%TD*%
D10*
%TO.C,U65*%
X170549999Y-66308100D03*
X172450001Y-66308100D03*
X171500000Y-63691900D03*
%TD*%
D14*
%TO.C,C11*%
X187000000Y-45550000D03*
X187000000Y-44000000D03*
%TD*%
D10*
%TO.C,U76*%
X238549999Y-124308100D03*
X240450001Y-124308100D03*
X239500000Y-121691900D03*
%TD*%
D13*
%TO.C,C146*%
X192750000Y-84475000D03*
X192750000Y-86025000D03*
%TD*%
%TO.C,C179*%
X292250000Y-178475000D03*
X292250000Y-180025000D03*
%TD*%
%TO.C,C182*%
X252250000Y-106475000D03*
X252250000Y-108025000D03*
%TD*%
%TO.C,C50*%
X65250000Y-124475000D03*
X65250000Y-126025000D03*
%TD*%
D14*
%TO.C,C1*%
X72000000Y-45550000D03*
X72000000Y-44000000D03*
%TD*%
%TO.C,C28*%
X370750000Y-65550000D03*
X370750000Y-64000000D03*
%TD*%
D11*
%TO.C,C221*%
X390775000Y-126000000D03*
X389225000Y-126000000D03*
%TD*%
D13*
%TO.C,C203*%
X286250000Y-84475000D03*
X286250000Y-86025000D03*
%TD*%
%TO.C,C80*%
X116250000Y-106475000D03*
X116250000Y-108025000D03*
%TD*%
D10*
%TO.C,U119*%
X389049999Y-160308100D03*
X390950001Y-160308100D03*
X390000000Y-157691900D03*
%TD*%
D12*
%TO.C,R67*%
X263750000Y-142425000D03*
X263750000Y-144075000D03*
%TD*%
D11*
%TO.C,C99*%
X159775000Y-144000000D03*
X158225000Y-144000000D03*
%TD*%
%TO.C,C224*%
X373750000Y-162000000D03*
X372200000Y-162000000D03*
%TD*%
D13*
%TO.C,C211*%
X323250000Y-84475000D03*
X323250000Y-86025000D03*
%TD*%
%TO.C,C109*%
X150250000Y-84475000D03*
X150250000Y-86025000D03*
%TD*%
D12*
%TO.C,R102*%
X392750000Y-142425000D03*
X392750000Y-144075000D03*
%TD*%
D13*
%TO.C,C92*%
X116250000Y-84475000D03*
X116250000Y-86025000D03*
%TD*%
D12*
%TO.C,R90*%
X321750000Y-84425000D03*
X321750000Y-86075000D03*
%TD*%
D11*
%TO.C,C66*%
X129775000Y-108000000D03*
X128225000Y-108000000D03*
%TD*%
%TO.C,C162*%
X246775000Y-180000000D03*
X245225000Y-180000000D03*
%TD*%
%TO.C,C101*%
X150775000Y-162000000D03*
X149225000Y-162000000D03*
%TD*%
D12*
%TO.C,R86*%
X338750000Y-160425000D03*
X338750000Y-162075000D03*
%TD*%
D11*
%TO.C,C217*%
X353775000Y-126000000D03*
X352225000Y-126000000D03*
%TD*%
D12*
%TO.C,R107*%
X426750000Y-106425000D03*
X426750000Y-108075000D03*
%TD*%
D10*
%TO.C,U93*%
X281049999Y-106308100D03*
X282950001Y-106308100D03*
X282000000Y-103691900D03*
%TD*%
%TO.C,U85*%
X224049999Y-178308100D03*
X225950001Y-178308100D03*
X225000000Y-175691900D03*
%TD*%
D11*
%TO.C,C223*%
X390800000Y-144000000D03*
X389250000Y-144000000D03*
%TD*%
D10*
%TO.C,U42*%
X111049999Y-66308100D03*
X112950001Y-66308100D03*
X112000000Y-63691900D03*
%TD*%
D14*
%TO.C,C6*%
X116000000Y-47025000D03*
X116000000Y-45475000D03*
%TD*%
D13*
%TO.C,C122*%
X197250000Y-142475000D03*
X197250000Y-144025000D03*
%TD*%
D10*
%TO.C,U56*%
X166049999Y-160308100D03*
X167950001Y-160308100D03*
X167000000Y-157691900D03*
%TD*%
D11*
%TO.C,C95*%
X146750000Y-108000000D03*
X145200000Y-108000000D03*
%TD*%
%TO.C,C213*%
X353800000Y-86000000D03*
X352250000Y-86000000D03*
%TD*%
D13*
%TO.C,C148*%
X226750000Y-84475000D03*
X226750000Y-86025000D03*
%TD*%
D11*
%TO.C,C243*%
X424775000Y-108000000D03*
X423225000Y-108000000D03*
%TD*%
%TO.C,C67*%
X121275000Y-126000000D03*
X119725000Y-126000000D03*
%TD*%
D12*
%TO.C,R7*%
X63750000Y-178425000D03*
X63750000Y-180075000D03*
%TD*%
D11*
%TO.C,C185*%
X274275000Y-126000000D03*
X272725000Y-126000000D03*
%TD*%
D12*
%TO.C,R33*%
X148750000Y-84425000D03*
X148750000Y-86075000D03*
%TD*%
D11*
%TO.C,C190*%
X319775000Y-108000000D03*
X318225000Y-108000000D03*
%TD*%
%TO.C,C104*%
X197750000Y-108000000D03*
X196200000Y-108000000D03*
%TD*%
D13*
%TO.C,C61*%
X103250000Y-160500000D03*
X103250000Y-162050000D03*
%TD*%
D12*
%TO.C,R54*%
X174250000Y-84425000D03*
X174250000Y-86075000D03*
%TD*%
D10*
%TO.C,U113*%
X389049999Y-106308100D03*
X390950001Y-106308100D03*
X390000000Y-103691900D03*
%TD*%
D12*
%TO.C,R76*%
X250750000Y-106425000D03*
X250750000Y-108075000D03*
%TD*%
%TO.C,R58*%
X216750000Y-106425000D03*
X216750000Y-108075000D03*
%TD*%
D13*
%TO.C,C145*%
X175750000Y-84475000D03*
X175750000Y-86025000D03*
%TD*%
D10*
%TO.C,U67*%
X204549999Y-66308100D03*
X206450001Y-66308100D03*
X205500000Y-63691900D03*
%TD*%
D11*
%TO.C,C97*%
X155275000Y-126000000D03*
X153725000Y-126000000D03*
%TD*%
D12*
%TO.C,R94*%
X355750000Y-106425000D03*
X355750000Y-108075000D03*
%TD*%
D10*
%TO.C,U86*%
X245049999Y-178308100D03*
X246950001Y-178308100D03*
X246000000Y-175691900D03*
%TD*%
D11*
%TO.C,C214*%
X336750000Y-108000000D03*
X335200000Y-108000000D03*
%TD*%
D12*
%TO.C,R66*%
X259250000Y-124425000D03*
X259250000Y-126075000D03*
%TD*%
D13*
%TO.C,C78*%
X128250000Y-178475000D03*
X128250000Y-180025000D03*
%TD*%
D12*
%TO.C,R111*%
X409750000Y-160425000D03*
X409750000Y-162075000D03*
%TD*%
D13*
%TO.C,C212*%
X340250000Y-84475000D03*
X340250000Y-86025000D03*
%TD*%
D10*
%TO.C,U122*%
X423049999Y-106308100D03*
X424950001Y-106308100D03*
X424000000Y-103691900D03*
%TD*%
D11*
%TO.C,C220*%
X373775000Y-126000000D03*
X372225000Y-126000000D03*
%TD*%
D13*
%TO.C,C56*%
X82250000Y-106475000D03*
X82250000Y-108025000D03*
%TD*%
D12*
%TO.C,R71*%
X248750000Y-178425000D03*
X248750000Y-180075000D03*
%TD*%
D14*
%TO.C,C2*%
X68750000Y-47000000D03*
X68750000Y-45450000D03*
%TD*%
D12*
%TO.C,R30*%
X97750000Y-84425000D03*
X97750000Y-86075000D03*
%TD*%
D13*
%TO.C,C51*%
X65250000Y-142475000D03*
X65250000Y-144025000D03*
%TD*%
D12*
%TO.C,R21*%
X123250000Y-124425000D03*
X123250000Y-126075000D03*
%TD*%
D13*
%TO.C,C200*%
X277750000Y-124475000D03*
X277750000Y-126025000D03*
%TD*%
%TO.C,C239*%
X377250000Y-160475000D03*
X377250000Y-162025000D03*
%TD*%
D14*
%TO.C,C5*%
X118750000Y-45525000D03*
X118750000Y-43975000D03*
%TD*%
D12*
%TO.C,R22*%
X140250000Y-124425000D03*
X140250000Y-126075000D03*
%TD*%
D11*
%TO.C,C246*%
X407775000Y-144000000D03*
X406225000Y-144000000D03*
%TD*%
D12*
%TO.C,R99*%
X375750000Y-124425000D03*
X375750000Y-126075000D03*
%TD*%
D13*
%TO.C,C112*%
X158750000Y-124475000D03*
X158750000Y-126025000D03*
%TD*%
D12*
%TO.C,R19*%
X114750000Y-106425000D03*
X114750000Y-108075000D03*
%TD*%
%TO.C,R60*%
X225250000Y-124425000D03*
X225250000Y-126075000D03*
%TD*%
D10*
%TO.C,U27*%
X102549999Y-124308100D03*
X104450001Y-124308100D03*
X103500000Y-121691900D03*
%TD*%
D11*
%TO.C,C132*%
X206275000Y-86000000D03*
X204725000Y-86000000D03*
%TD*%
D13*
%TO.C,C230*%
X357250000Y-106475000D03*
X357250000Y-108025000D03*
%TD*%
D12*
%TO.C,R46*%
X195750000Y-142425000D03*
X195750000Y-144075000D03*
%TD*%
%TO.C,R74*%
X250750000Y-84425000D03*
X250750000Y-86075000D03*
%TD*%
%TO.C,R3*%
X63750000Y-106425000D03*
X63750000Y-108075000D03*
%TD*%
D18*
%TO.C,C16*%
X247450000Y-56000000D03*
X249000000Y-56000000D03*
%TD*%
D11*
%TO.C,C20*%
X262000000Y-45500000D03*
X260450000Y-45500000D03*
%TD*%
D12*
%TO.C,R29*%
X148750000Y-66425000D03*
X148750000Y-68075000D03*
%TD*%
%TO.C,R92*%
X355750000Y-84425000D03*
X355750000Y-86075000D03*
%TD*%
D10*
%TO.C,U49*%
X145049999Y-106308100D03*
X146950001Y-106308100D03*
X146000000Y-103691900D03*
%TD*%
D12*
%TO.C,R14*%
X110750000Y-142425000D03*
X110750000Y-144075000D03*
%TD*%
D11*
%TO.C,C44*%
X91775000Y-144000000D03*
X90225000Y-144000000D03*
%TD*%
D12*
%TO.C,R13*%
X93750000Y-142425000D03*
X93750000Y-144075000D03*
%TD*%
D10*
%TO.C,U55*%
X149049999Y-160308100D03*
X150950001Y-160308100D03*
X150000000Y-157691900D03*
%TD*%
D12*
%TO.C,R75*%
X267750000Y-84425000D03*
X267750000Y-86075000D03*
%TD*%
D11*
%TO.C,C166*%
X265750000Y-86000000D03*
X264200000Y-86000000D03*
%TD*%
%TO.C,C157*%
X257275000Y-126000000D03*
X255725000Y-126000000D03*
%TD*%
M02*
