%TF.GenerationSoftware,KiCad,Pcbnew,8.0.0*%
%TF.CreationDate,2025-05-08T15:49:05+08:00*%
%TF.ProjectId,keyboard,6b657962-6f61-4726-942e-6b696361645f,1.0*%
%TF.SameCoordinates,Original*%
%TF.FileFunction,Legend,Bot*%
%TF.FilePolarity,Positive*%
%FSLAX46Y46*%
G04 Gerber Fmt 4.6, Leading zero omitted, Abs format (unit mm)*
G04 Created by KiCad (PCBNEW 8.0.0) date 2025-05-08 15:49:05*
%MOMM*%
%LPD*%
G01*
G04 APERTURE LIST*
%ADD10C,0.150000*%
%ADD11C,0.120000*%
%ADD12R,1.700000X1.700000*%
%ADD13O,1.700000X1.700000*%
G04 APERTURE END LIST*
D10*
X433784819Y-39666666D02*
X434499104Y-39666666D01*
X434499104Y-39666666D02*
X434641961Y-39619047D01*
X434641961Y-39619047D02*
X434737200Y-39523809D01*
X434737200Y-39523809D02*
X434784819Y-39380952D01*
X434784819Y-39380952D02*
X434784819Y-39285714D01*
X434784819Y-40666666D02*
X434784819Y-40095238D01*
X434784819Y-40380952D02*
X433784819Y-40380952D01*
X433784819Y-40380952D02*
X433927676Y-40285714D01*
X433927676Y-40285714D02*
X434022914Y-40190476D01*
X434022914Y-40190476D02*
X434070533Y-40095238D01*
D11*
%TO.C,J1*%
X407810000Y-38670000D02*
X407810000Y-41330000D01*
X407810000Y-38670000D02*
X430730000Y-38670000D01*
X407810000Y-41330000D02*
X430730000Y-41330000D01*
X430730000Y-38670000D02*
X430730000Y-41330000D01*
X433330000Y-40000000D02*
X433330000Y-41330000D01*
X433330000Y-41330000D02*
X432000000Y-41330000D01*
%TD*%
%LPC*%
D12*
%TO.C,J1*%
X432000000Y-40000000D03*
D13*
X429460000Y-40000000D03*
X426920000Y-40000000D03*
X424380000Y-40000000D03*
X421840000Y-40000000D03*
X419300000Y-40000000D03*
X416760000Y-40000000D03*
X414220000Y-40000000D03*
X411680000Y-40000000D03*
X409140000Y-40000000D03*
%TD*%
%LPD*%
M02*
